{"glyphs":{"0":{"ha":853,"x_min":64,"x_max":789,"o":"m 789 407 q 761 238 789 315 q 685 105 733 161 q 570 17 636 49 q 426 -14 504 -14 q 282 17 349 -14 q 167 105 215 49 q 91 238 118 161 q 64 407 64 315 q 91 576 64 499 q 167 709 118 653 q 282 797 215 765 q 426 829 349 829 q 570 797 504 829 q 685 709 636 765 q 761 576 733 653 q 789 407 789 499 m 565 407 q 526 565 565 504 q 426 625 488 625 q 324 565 363 625 q 286 407 286 504 q 324 250 286 310 q 426 190 363 190 q 526 250 488 190 q 565 407 565 310 z "},"1":{"ha":719,"x_min":58,"x_max":686,"o":"m 686 200 l 686 0 l 86 0 l 86 200 l 283 200 l 283 554 q 244 520 271 538 q 185 488 218 503 q 119 465 153 474 q 58 456 85 456 l 58 661 q 116 676 81 661 q 186 713 151 692 q 249 757 221 735 q 283 793 276 779 l 510 793 l 510 200 l 686 200 z "},"2":{"ha":806,"x_min":54,"x_max":746,"o":"m 54 0 q 64 117 54 65 q 97 210 74 168 q 161 289 121 253 q 263 360 201 325 q 372 419 328 396 q 441 461 415 443 q 478 494 467 479 q 489 528 489 508 q 461 590 489 567 q 382 614 433 614 q 281 585 324 614 q 197 511 238 557 l 56 675 q 115 724 78 700 q 200 766 153 747 q 303 796 247 785 q 421 807 360 807 q 651 742 571 807 q 731 565 731 676 q 716 483 731 519 q 678 419 701 447 q 625 369 654 390 q 565 329 596 347 q 515 300 544 317 q 458 266 486 283 q 405 231 429 249 q 368 200 381 214 l 746 200 l 746 0 l 54 0 z "},"3":{"ha":790,"x_min":33,"x_max":740,"o":"m 546 329 q 625 299 589 321 q 687 245 661 278 q 726 170 713 213 q 740 79 740 128 q 714 -38 740 14 q 638 -127 688 -90 q 519 -184 589 -164 q 364 -204 450 -204 q 33 -81 153 -204 l 153 78 q 238 19 190 39 q 353 -1 286 -1 q 510 114 510 -1 q 463 208 510 176 q 317 240 417 240 l 275 240 l 275 400 l 321 400 q 442 432 399 400 q 486 517 486 464 q 454 586 486 563 q 369 610 422 610 q 266 583 313 610 q 188 506 219 556 l 47 667 q 106 721 69 696 q 188 763 142 746 q 286 790 233 781 q 394 800 339 800 q 529 783 468 800 q 633 733 590 765 q 700 655 676 700 q 724 554 724 610 q 710 475 724 513 q 674 407 697 438 q 617 356 650 376 q 546 329 585 336 z "},"4":{"ha":803,"x_min":25,"x_max":751,"o":"m 407 -176 l 407 14 l 25 14 l 25 213 l 478 793 l 629 793 l 629 214 l 751 214 l 751 14 l 629 14 l 629 -176 l 407 -176 m 244 214 l 433 214 l 433 460 l 244 214 z "},"5":{"ha":775,"x_min":38,"x_max":735,"o":"m 408 447 q 539 424 479 447 q 642 358 599 400 q 710 258 686 317 q 735 129 735 200 q 707 -8 735 54 q 630 -114 679 -69 q 513 -183 581 -158 q 363 -207 444 -207 q 168 -164 254 -207 q 38 -43 82 -121 l 161 94 q 255 17 201 46 q 364 -12 308 -12 q 468 25 429 -12 q 507 125 507 63 q 471 221 507 185 q 376 257 435 257 q 307 240 339 257 q 256 193 275 224 l 63 193 q 68 222 63 194 q 81 292 74 249 q 99 388 89 335 q 121 497 110 442 q 178 793 146 628 l 668 793 l 668 590 l 339 590 l 311 422 q 344 440 319 432 q 408 447 368 447 z "},"6":{"ha":844,"x_min":60,"x_max":790,"o":"m 790 332 q 763 197 790 260 q 686 87 735 133 q 571 13 638 40 q 426 -14 504 -14 q 272 18 340 -14 q 157 110 204 50 q 85 256 110 169 q 60 454 60 343 q 87 684 60 583 q 164 853 114 785 q 286 958 214 922 q 449 994 358 994 q 619 957 540 994 q 757 849 697 919 l 632 707 q 549 776 597 751 q 444 801 500 801 q 315 743 363 801 q 264 578 267 685 q 338 636 292 615 q 446 657 385 657 q 583 632 519 657 q 692 563 646 607 q 764 460 738 519 q 790 332 790 401 m 426 174 q 485 186 457 174 q 533 220 513 199 q 567 271 554 242 q 579 332 579 300 q 567 390 579 363 q 533 438 554 418 q 485 470 513 458 q 426 482 457 482 q 367 470 394 482 q 318 438 339 458 q 285 390 297 418 q 274 332 274 363 q 286 271 274 300 q 319 220 299 242 q 368 186 340 199 q 426 174 396 174 z "},"7":{"ha":800,"x_min":40,"x_max":806,"o":"m 456 608 l 40 608 l 40 811 l 806 811 l 319 -175 l 68 -175 l 456 608 z "},"8":{"ha":843,"x_min":57,"x_max":786,"o":"m 786 299 q 757 171 786 228 q 678 73 728 114 q 563 10 629 32 q 421 -12 496 -12 q 281 10 347 -12 q 165 75 215 33 q 86 176 115 117 q 57 307 57 235 q 69 380 57 346 q 101 442 82 414 q 146 490 121 469 q 194 526 171 511 q 117 600 149 551 q 86 703 86 649 q 117 824 86 771 q 197 913 149 878 q 305 967 246 949 q 421 986 364 986 q 538 968 478 986 q 647 915 597 950 q 727 826 696 879 q 758 706 758 774 q 749 651 758 678 q 726 601 740 625 q 690 558 711 576 q 647 526 669 539 q 697 489 672 511 q 742 438 722 467 q 774 375 763 410 q 786 299 786 340 m 561 313 q 549 365 561 342 q 518 403 538 388 q 474 426 499 418 q 421 435 449 435 q 322 401 363 435 q 282 311 282 368 q 294 261 282 283 q 325 223 306 239 q 369 198 344 207 q 422 189 394 189 q 476 198 450 189 q 520 224 501 207 q 550 263 539 240 q 561 313 561 286 m 311 699 q 321 656 311 674 q 347 626 331 638 q 382 608 363 614 q 421 601 401 601 q 460 608 440 601 q 497 626 481 614 q 522 657 513 639 q 532 699 532 675 q 499 765 532 739 q 421 790 467 790 q 343 765 375 790 q 311 699 311 739 z "},"9":{"ha":818,"x_min":42,"x_max":772,"o":"m 42 447 q 69 583 42 519 q 146 692 97 646 q 261 766 194 739 q 406 793 328 793 q 560 761 492 793 q 675 669 628 729 q 747 522 722 610 q 772 325 772 435 q 745 95 772 196 q 668 -74 718 -6 q 546 -179 618 -143 q 383 -215 474 -215 q 213 -178 292 -215 q 75 -69 135 -140 l 200 72 q 283 3 235 28 q 386 -22 332 -22 q 516 36 468 -22 q 567 201 564 94 q 493 143 539 164 q 386 122 447 122 q 249 147 313 122 q 140 216 186 172 q 68 319 94 260 q 42 447 42 378 m 406 606 q 347 593 375 606 q 299 559 319 581 q 265 508 278 538 q 253 447 253 479 q 265 388 253 415 q 297 341 276 361 q 346 309 318 321 q 406 297 374 297 q 464 309 436 297 q 513 341 492 321 q 546 388 533 361 q 558 447 558 415 q 546 508 558 479 q 513 559 533 538 q 464 593 492 581 q 406 606 436 606 z "}," ":{"ha":324,"x_min":0,"x_max":0,"o":""},"!":{"ha":463,"x_min":119,"x_max":342,"o":"m 119 392 l 119 996 l 342 996 l 342 392 l 119 392 m 119 0 l 119 231 l 342 231 l 342 0 l 119 0 z "},"\"":{"ha":599,"x_min":79,"x_max":519,"o":"m 79 692 l 79 1008 l 267 1008 l 267 692 l 79 692 m 332 692 l 332 1008 l 519 1008 l 519 692 l 332 692 z "},"#":{"ha":1025,"x_min":50,"x_max":975,"o":"m 975 572 l 764 572 l 726 414 l 907 414 l 907 249 l 686 249 l 626 0 l 449 0 l 510 249 l 383 249 l 322 0 l 144 0 l 207 249 l 50 249 l 50 414 l 246 414 l 283 572 l 118 572 l 118 725 l 321 725 l 385 986 l 563 986 l 497 725 l 625 725 l 689 986 l 867 986 l 801 725 l 975 725 l 975 572 m 550 414 l 588 572 l 460 572 l 422 414 l 550 414 z "},"$":{"ha":890,"x_min":46,"x_max":836,"o":"m 707 697 q 683 715 703 703 q 631 742 663 728 q 562 770 600 757 q 485 789 524 783 l 485 600 l 529 589 q 657 547 600 569 q 753 490 714 524 q 815 407 793 456 q 836 290 836 358 q 808 156 836 211 q 734 65 781 100 q 627 11 688 29 q 500 -10 567 -7 l 500 -171 l 404 -171 l 404 -8 q 215 31 308 0 q 46 111 121 61 l 146 310 q 176 287 151 303 q 238 253 200 271 q 322 220 275 236 q 419 197 369 204 l 419 382 l 353 401 q 235 447 285 422 q 152 503 185 471 q 103 576 119 535 q 88 674 88 618 q 113 802 88 746 q 180 899 138 858 q 280 962 222 939 q 404 992 338 985 l 404 1132 l 500 1132 l 500 992 q 669 951 590 983 q 807 886 749 919 l 707 697 m 592 268 q 563 324 592 304 q 485 361 533 344 l 485 194 q 592 268 592 199 m 322 710 q 347 655 322 675 q 419 619 371 635 l 419 790 q 322 710 322 782 z "},"S":{"ha":854,"x_min":25,"x_max":815,"o":"m 686 697 q 657 718 682 703 q 594 750 632 733 q 513 779 557 767 q 424 792 468 792 q 301 710 301 792 q 315 668 301 685 q 353 638 328 651 q 418 614 379 625 q 508 589 457 603 q 636 547 579 569 q 733 490 693 524 q 794 407 772 456 q 815 290 815 358 q 784 149 815 207 q 701 56 753 92 q 583 5 650 21 q 446 -11 517 -11 q 335 -3 392 -11 q 224 22 278 6 q 119 60 169 38 q 25 111 68 82 l 125 310 q 161 283 131 303 q 237 244 192 264 q 338 210 282 225 q 450 194 393 194 q 571 268 571 194 q 553 314 571 296 q 503 347 535 332 q 427 374 471 361 q 332 401 383 386 q 214 447 264 422 q 131 503 164 471 q 83 576 99 535 q 67 674 67 618 q 96 811 67 751 q 175 912 125 871 q 291 974 225 953 q 431 994 357 994 q 532 985 482 994 q 628 960 582 975 q 713 925 674 944 q 786 886 753 906 l 686 697 z "},"%":{"ha":1133,"x_min":47,"x_max":1086,"o":"m 285 571 q 192 588 235 571 q 117 633 149 604 q 66 702 85 663 q 47 786 47 742 q 66 869 47 831 q 117 938 85 908 q 192 983 149 967 q 285 1000 235 1000 q 378 983 335 1000 q 453 938 421 967 q 504 869 486 908 q 522 786 522 831 q 504 702 522 742 q 453 633 486 663 q 378 588 421 604 q 285 571 335 571 m 285 679 q 344 710 319 679 q 368 786 368 742 q 344 861 368 831 q 285 892 319 892 q 226 860 250 892 q 201 786 201 829 q 226 710 201 742 q 285 679 250 679 m 849 -14 q 756 3 799 -14 q 681 49 713 19 q 630 117 649 78 q 611 200 611 156 q 630 284 611 244 q 681 353 649 324 q 756 399 713 382 q 849 415 799 415 q 942 399 899 415 q 1017 353 985 382 q 1068 284 1050 324 q 1086 200 1086 244 q 1068 117 1086 156 q 1017 49 1050 78 q 942 3 985 19 q 849 -14 899 -14 m 849 94 q 908 126 883 94 q 933 200 933 157 q 908 276 933 244 q 849 307 883 307 q 790 276 814 307 q 765 200 765 244 q 790 125 765 156 q 849 94 814 94 m 143 78 l 535 528 l 890 999 l 990 910 l 611 471 l 242 -12 l 143 78 z "},"⁄":{"ha":304,"x_min":-272,"x_max":575,"o":"m -272 78 l 119 528 l 475 999 l 575 910 l 196 471 l -174 -12 l -272 78 z "},"&":{"ha":1013,"x_min":53,"x_max":1017,"o":"m 725 0 l 660 69 q 531 7 599 28 q 392 -14 463 -14 q 248 12 311 -14 q 142 80 185 38 q 76 176 99 122 q 53 289 53 231 q 65 372 53 333 q 99 442 78 410 q 149 501 121 474 q 207 553 176 529 q 136 658 157 614 q 115 754 115 701 q 136 856 115 811 q 194 933 157 901 q 283 982 232 965 q 393 999 333 999 q 496 985 446 999 q 584 944 546 972 q 646 873 622 915 q 669 772 669 831 q 628 633 669 693 q 519 522 586 572 l 674 358 q 702 449 692 400 q 713 557 713 499 l 892 557 q 867 372 890 454 q 804 222 844 289 l 1017 0 l 725 0 m 415 160 q 539 197 481 160 l 343 406 q 286 349 307 378 q 265 288 265 321 q 275 242 265 265 q 304 201 285 219 q 351 172 324 183 q 415 160 379 160 m 317 763 q 331 722 317 740 q 381 667 344 703 q 444 717 424 694 q 465 769 465 739 q 445 818 465 800 q 393 836 425 836 q 338 815 358 836 q 317 763 317 794 z "},"'":{"ha":347,"x_min":79,"x_max":267,"o":"m 79 690 l 79 1008 l 267 1008 l 267 690 l 79 690 z "},"(":{"ha":451,"x_min":42,"x_max":422,"o":"m 42 482 q 58 624 42 553 q 103 767 75 694 q 170 913 132 839 q 253 1061 208 986 l 422 992 q 374 905 403 961 q 317 778 344 849 q 269 629 289 707 q 249 478 249 551 q 296 247 249 365 q 417 -3 343 128 l 256 -82 q 174 51 213 -18 q 106 192 135 121 q 59 337 76 264 q 42 482 42 410 z "},")":{"ha":450,"x_min":28,"x_max":408,"o":"m 408 482 q 391 337 408 410 q 344 192 374 264 q 276 51 315 121 q 194 -82 238 -18 l 33 -3 q 154 247 107 128 q 201 478 201 365 q 181 629 201 551 q 133 778 161 707 q 76 905 106 849 q 28 992 47 961 l 197 1061 q 280 913 242 986 q 347 767 318 839 q 392 624 375 694 q 408 482 408 553 z "},"*":{"ha":492,"x_min":65,"x_max":426,"o":"m 99 708 l 164 813 l 65 842 l 94 935 l 196 888 l 188 999 l 303 999 l 294 888 l 397 935 l 426 842 l 328 813 l 393 708 l 311 654 l 246 764 l 181 654 l 99 708 z "},"+":{"ha":589,"x_min":64,"x_max":526,"o":"m 526 582 l 526 404 l 394 404 l 394 260 l 194 260 l 194 404 l 64 404 l 64 582 l 194 582 l 194 726 l 394 726 l 394 582 l 526 582 z "},",":{"ha":338,"x_min":75,"x_max":263,"o":"m 100 -187 l 143 3 l 75 3 l 75 226 l 263 226 l 263 3 l 197 -187 l 100 -187 z "},"-":{"ha":578,"x_min":75,"x_max":503,"o":"m 75 282 l 75 482 l 503 482 l 503 282 l 75 282 z "},".":{"ha":332,"x_min":75,"x_max":257,"o":"m 75 0 l 75 226 l 257 226 l 257 0 l 75 0 z "},"/":{"ha":1021,"x_min":36,"x_max":983,"o":"m 983 986 l 282 0 l 36 0 l 738 986 l 983 986 z "},":":{"ha":381,"x_min":100,"x_max":281,"o":"m 100 494 l 100 721 l 281 721 l 281 494 l 100 494 m 100 0 l 100 226 l 281 226 l 281 0 l 100 0 z "},";":{"ha":389,"x_min":101,"x_max":289,"o":"m 103 494 l 103 721 l 283 721 l 283 494 l 103 494 m 125 -187 l 169 3 l 101 3 l 101 226 l 289 226 l 289 3 l 224 -187 l 125 -187 z "},"<":{"ha":719,"x_min":44,"x_max":631,"o":"m 44 407 l 631 763 l 631 526 l 367 360 l 631 203 l 631 -46 l 44 301 l 44 407 z "},"=":{"ha":604,"x_min":82,"x_max":522,"o":"m 82 172 l 82 314 l 522 314 l 522 172 l 82 172 m 82 453 l 82 594 l 522 594 l 522 453 l 82 453 z "},">":{"ha":719,"x_min":88,"x_max":675,"o":"m 675 301 l 88 -46 l 88 203 l 353 360 l 88 526 l 88 763 l 675 407 l 675 301 z "},"?":{"ha":681,"x_min":47,"x_max":633,"o":"m 151 340 q 156 401 151 372 q 172 458 160 431 q 206 508 183 485 q 264 551 228 532 q 312 577 282 561 q 370 614 342 593 q 419 662 399 635 q 440 722 440 689 q 407 794 440 768 q 331 819 374 819 q 281 809 303 819 q 242 784 260 799 q 213 751 225 769 q 190 719 200 733 l 47 819 q 162 951 83 904 q 339 999 240 999 q 444 983 392 999 q 539 935 497 968 q 607 849 581 901 q 633 721 633 796 q 601 588 633 642 q 504 494 568 535 q 445 460 475 475 q 390 428 415 444 q 350 390 365 411 q 335 340 335 369 l 151 340 m 156 0 l 156 208 l 338 208 l 338 0 l 156 0 z "},"@":{"ha":1178,"x_min":56,"x_max":1113,"o":"m 588 838 q 785 805 690 838 q 952 706 879 772 q 1069 540 1025 640 q 1113 307 1113 440 q 1110 256 1113 288 q 1101 188 1108 224 q 1081 114 1094 151 q 1042 46 1067 76 q 981 -3 1018 15 q 893 -22 944 -22 q 830 -12 856 -22 q 789 14 804 -1 q 766 49 774 29 q 756 86 758 68 q 649 18 711 42 q 519 -6 588 -6 q 360 49 415 -6 q 306 192 306 104 q 328 290 306 250 q 388 355 351 331 q 470 390 424 379 q 565 400 517 400 q 658 390 619 400 q 715 371 696 379 q 708 432 715 404 q 684 479 701 460 q 637 510 667 499 q 561 521 607 521 q 458 505 503 521 q 381 461 413 489 l 342 576 q 583 646 444 646 q 731 617 678 646 q 809 546 783 589 q 840 451 835 503 q 846 353 846 399 l 846 239 q 847 178 846 208 q 856 126 849 149 q 876 88 863 103 q 914 74 890 74 q 971 101 949 74 q 1004 166 993 128 q 1019 245 1015 204 q 1024 313 1024 286 q 992 488 1024 407 q 903 627 961 568 q 763 719 844 686 q 581 753 681 753 q 401 720 482 753 q 264 630 321 688 q 176 492 207 572 q 144 318 144 413 q 174 149 144 228 q 257 10 203 69 q 388 -84 311 -50 q 563 -118 465 -118 q 680 -103 632 -118 q 781 -65 728 -87 l 806 -147 q 685 -189 747 -175 q 560 -203 622 -203 q 364 -165 456 -203 q 203 -60 272 -128 q 95 105 135 8 q 56 321 56 201 q 99 542 56 446 q 217 704 143 639 q 386 803 290 769 q 588 838 482 838 m 650 129 q 697 165 679 143 q 714 215 714 188 l 714 271 q 653 288 694 278 q 567 297 613 297 q 470 273 504 297 q 436 194 436 249 q 461 126 436 150 q 535 103 486 103 q 591 109 558 103 q 650 129 624 115 z "},"A":{"ha":931,"x_min":3,"x_max":928,"o":"m 363 986 l 568 986 l 928 0 l 694 0 l 618 221 l 311 221 l 236 0 l 3 0 l 363 986 m 581 378 l 465 726 l 347 378 l 581 378 z "},"B":{"ha":950,"x_min":94,"x_max":910,"o":"m 910 253 q 883 142 910 189 q 811 63 857 94 q 704 16 765 32 q 575 0 643 0 l 94 0 l 94 986 l 643 986 q 736 964 694 986 q 807 906 778 942 q 852 826 836 871 q 868 733 868 781 q 833 600 868 663 q 726 506 797 538 q 860 417 811 481 q 910 253 910 353 m 678 299 q 651 376 678 344 q 585 408 625 408 l 322 408 l 322 193 l 575 193 q 649 222 619 193 q 678 299 678 251 m 322 792 l 322 588 l 546 588 q 613 613 583 588 q 642 690 642 638 q 616 765 642 739 q 554 792 590 792 l 322 792 z "},"C":{"ha":956,"x_min":38,"x_max":936,"o":"m 38 501 q 71 678 38 590 q 168 836 104 767 q 324 949 232 906 q 532 992 415 992 q 773 932 671 992 q 925 776 875 872 l 750 654 q 708 719 733 693 q 651 760 682 744 q 589 783 621 776 q 526 789 557 789 q 413 763 461 789 q 332 694 364 736 q 285 600 300 653 q 269 493 269 547 q 288 381 269 435 q 340 285 306 326 q 422 219 374 243 q 529 194 469 194 q 592 202 560 194 q 655 226 625 210 q 710 267 685 242 q 750 331 735 293 l 936 221 q 870 124 914 167 q 769 51 826 81 q 649 7 713 22 q 524 -8 585 -8 q 327 35 417 -8 q 173 151 238 79 q 73 315 108 224 q 38 501 38 407 z "},"D":{"ha":994,"x_min":94,"x_max":954,"o":"m 94 0 l 94 986 l 463 986 q 676 947 585 986 q 830 842 768 908 q 923 685 892 775 q 954 494 954 596 q 919 291 954 382 q 820 135 885 200 q 665 35 756 71 q 463 0 574 0 l 94 0 m 722 494 q 705 613 722 560 q 654 706 688 667 q 572 765 621 744 q 463 786 524 786 l 322 786 l 322 200 l 463 200 q 574 222 525 200 q 655 284 622 244 q 705 377 688 324 q 722 494 722 431 z "},"E":{"ha":832,"x_min":94,"x_max":788,"o":"m 788 200 l 788 0 l 94 0 l 94 986 l 775 986 l 775 786 l 322 786 l 322 594 l 711 594 l 711 410 l 322 410 l 322 200 l 788 200 z "},"F":{"ha":790,"x_min":94,"x_max":764,"o":"m 94 0 l 94 986 l 764 986 l 764 786 l 322 786 l 322 574 l 686 574 l 686 389 l 322 389 l 322 0 l 94 0 z "},"G":{"ha":1017,"x_min":39,"x_max":961,"o":"m 772 97 q 513 -7 660 -7 q 329 30 415 -7 q 178 133 243 67 q 76 294 114 200 q 39 500 39 388 q 76 692 39 601 q 180 849 114 782 q 336 954 246 915 q 531 993 426 993 q 771 935 668 993 q 925 778 874 878 l 756 650 q 659 753 722 717 q 522 790 596 790 q 419 767 465 790 q 339 703 372 744 q 288 608 306 663 q 269 492 269 554 q 289 374 269 428 q 343 280 308 319 q 426 218 378 240 q 532 196 474 196 q 772 319 665 196 l 772 350 l 581 350 l 581 515 l 961 515 l 961 0 l 772 0 l 772 97 z "},"H":{"ha":1038,"x_min":94,"x_max":943,"o":"m 943 986 l 943 0 l 715 0 l 715 404 l 322 404 l 322 0 l 94 0 l 94 986 l 322 986 l 322 604 l 715 604 l 715 986 l 943 986 z "},"I":{"ha":417,"x_min":94,"x_max":322,"o":"m 94 0 l 94 986 l 322 986 l 322 0 l 94 0 z "},"J":{"ha":686,"x_min":6,"x_max":603,"o":"m 56 232 q 115 204 69 221 q 219 188 160 188 q 301 205 271 188 q 349 258 332 222 q 370 351 365 294 q 375 485 375 407 l 375 986 l 603 986 l 603 485 q 591 280 603 372 q 540 122 579 188 q 424 21 500 57 q 219 -15 347 -15 q 6 46 94 -15 l 56 232 z "},"K":{"ha":943,"x_min":94,"x_max":964,"o":"m 94 0 l 94 986 l 322 986 l 322 561 l 683 986 l 939 986 l 569 546 l 964 0 l 704 0 l 425 397 l 322 290 l 322 0 l 94 0 z "},"L":{"ha":813,"x_min":94,"x_max":800,"o":"m 94 0 l 94 986 l 322 986 l 322 200 l 800 200 l 800 0 l 94 0 z "},"M":{"ha":1194,"x_min":94,"x_max":1100,"o":"m 872 0 l 872 590 l 658 161 l 536 161 l 322 590 l 322 0 l 94 0 l 94 986 l 342 986 l 597 471 l 854 986 l 1100 986 l 1100 0 l 872 0 z "},"N":{"ha":1054,"x_min":94,"x_max":960,"o":"m 322 564 l 322 0 l 94 0 l 94 986 l 272 986 l 732 407 l 732 986 l 960 986 l 960 0 l 776 0 l 322 564 z "},"O":{"ha":1056,"x_min":38,"x_max":1018,"o":"m 526 -8 q 326 35 417 -8 q 172 148 236 78 q 73 308 108 218 q 38 494 38 399 q 74 682 38 592 q 177 841 111 772 q 333 951 243 910 q 531 992 424 992 q 731 949 640 992 q 885 835 821 906 q 983 674 949 764 q 1018 490 1018 583 q 981 303 1018 393 q 879 144 944 213 q 724 33 814 75 q 526 -8 633 -8 m 269 492 q 286 381 269 435 q 335 286 303 328 q 417 219 368 244 q 528 194 465 194 q 642 221 593 194 q 722 290 690 247 q 770 385 754 332 q 786 494 786 439 q 769 605 786 551 q 719 699 753 658 q 638 765 686 740 q 528 789 590 789 q 415 763 463 789 q 334 696 367 738 q 285 601 301 654 q 269 492 269 547 z "},"P":{"ha":865,"x_min":94,"x_max":838,"o":"m 94 0 l 94 986 l 515 986 q 645 957 586 986 q 747 881 704 928 q 813 774 789 833 q 838 653 838 714 q 815 528 838 588 q 751 421 792 468 q 651 346 710 374 q 522 318 593 318 l 322 318 l 322 0 l 94 0 m 322 517 l 508 517 q 578 551 549 517 q 607 653 607 586 q 598 713 607 688 q 574 754 589 738 q 539 778 558 771 q 500 786 519 786 l 322 786 l 322 517 z "},"Q":{"ha":1054,"x_min":38,"x_max":1032,"o":"m 767 56 q 653 10 714 26 q 526 -7 593 -7 q 326 35 417 -7 q 172 148 236 78 q 73 308 108 218 q 38 494 38 399 q 74 682 38 592 q 177 842 111 772 q 333 952 243 911 q 531 993 424 993 q 731 949 640 993 q 885 835 821 906 q 983 674 949 764 q 1018 490 1018 583 q 985 310 1018 396 q 890 156 951 224 l 1032 0 l 818 0 l 767 56 m 528 196 q 625 214 583 196 l 467 389 l 681 389 l 742 321 q 775 404 764 360 q 786 494 786 449 q 769 605 786 551 q 719 699 753 658 q 638 765 686 740 q 528 790 590 790 q 415 765 463 790 q 334 697 367 739 q 285 601 301 654 q 269 492 269 547 q 286 381 269 435 q 335 287 303 328 q 417 221 368 246 q 528 196 465 196 z "},"R":{"ha":931,"x_min":94,"x_max":917,"o":"m 94 0 l 94 986 l 539 986 q 667 957 608 986 q 769 881 726 928 q 837 774 813 833 q 861 653 861 714 q 850 565 861 607 q 818 485 839 522 q 767 417 797 447 q 700 367 738 388 l 917 0 l 660 0 l 471 318 l 322 318 l 322 0 l 94 0 m 322 517 l 531 517 q 600 555 571 517 q 629 653 629 593 q 596 750 629 714 q 524 786 563 786 l 322 786 l 322 517 z "},"T":{"ha":863,"x_min":17,"x_max":846,"o":"m 846 786 l 546 786 l 546 0 l 318 0 l 318 786 l 17 786 l 17 986 l 846 986 l 846 786 z "},"U":{"ha":1038,"x_min":81,"x_max":956,"o":"m 518 194 q 617 219 576 194 q 682 283 657 243 q 717 376 707 324 q 728 482 728 428 l 728 986 l 956 986 l 956 482 q 930 290 956 379 q 851 135 904 201 q 715 30 797 68 q 518 -8 632 -8 q 317 32 400 -8 q 181 140 233 72 q 105 296 129 207 q 81 482 81 385 l 81 986 l 308 986 l 308 482 q 319 374 308 425 q 356 282 331 322 q 420 218 381 242 q 518 194 460 194 z "},"V":{"ha":936,"x_min":-4,"x_max":939,"o":"m 238 986 l 469 286 l 699 986 l 939 986 l 565 0 l 374 0 l -4 986 l 238 986 z "},"W":{"ha":1465,"x_min":-8,"x_max":1474,"o":"m 422 985 l 632 985 l 732 669 l 832 985 l 1043 985 l 878 526 l 978 261 l 1225 986 l 1474 986 l 1079 0 l 889 0 l 732 386 l 576 0 l 385 0 l -8 986 l 239 986 l 488 261 l 585 526 l 422 985 z "},"X":{"ha":904,"x_min":-10,"x_max":914,"o":"m 238 986 l 453 646 l 668 986 l 914 986 l 572 486 l 903 0 l 657 0 l 453 326 l 249 0 l 1 0 l 332 486 l -10 986 l 238 986 z "},"Y":{"ha":921,"x_min":0,"x_max":924,"o":"m 247 986 l 460 533 l 675 986 l 924 986 l 572 336 l 572 0 l 346 0 l 346 339 l 0 986 l 247 986 z "},"Z":{"ha":868,"x_min":39,"x_max":821,"o":"m 39 171 l 553 786 l 58 786 l 58 986 l 815 986 l 815 815 l 326 200 l 821 200 l 821 0 l 39 0 l 39 171 z "},"[":{"ha":474,"x_min":111,"x_max":410,"o":"m 111 -56 l 111 1028 l 410 1028 l 410 851 l 317 851 l 317 121 l 410 121 l 410 -56 l 111 -56 z "},"\\":{"ha":921,"x_min":36,"x_max":886,"o":"m 282 986 l 886 0 l 642 0 l 36 986 l 282 986 z "},"]":{"ha":474,"x_min":65,"x_max":363,"o":"m 65 -56 l 65 121 l 157 121 l 157 851 l 65 851 l 65 1028 l 363 1028 l 363 -56 l 65 -56 z "},"^":{"ha":839,"x_min":53,"x_max":786,"o":"m 53 421 l 328 986 l 513 986 l 786 421 l 606 421 l 419 803 l 231 421 l 53 421 z "},"_":{"ha":638,"x_min":69,"x_max":569,"o":"m 69 -200 l 69 0 l 569 0 l 569 -200 l 69 -200 z "},"`":{"ha":374,"x_min":64,"x_max":338,"o":"m 64 1014 l 265 1014 l 338 833 l 197 794 l 64 1014 z "},"a":{"ha":814,"x_min":31,"x_max":776,"o":"m 283 -14 q 183 3 229 -14 q 103 52 136 21 q 50 126 69 83 q 31 218 31 168 q 53 317 31 272 q 118 393 76 361 q 217 443 160 425 q 343 461 274 461 q 432 453 389 461 q 507 431 475 446 l 507 464 q 361 590 507 590 q 247 570 301 590 q 133 510 193 550 l 68 649 q 218 719 140 696 q 383 743 296 743 q 639 665 549 743 q 729 438 729 588 l 729 250 q 740 203 729 217 q 776 188 750 190 l 776 0 q 724 -9 747 -7 q 681 -11 700 -11 q 586 13 618 -11 q 546 82 554 38 l 542 115 q 426 19 493 53 q 283 -14 358 -14 m 349 146 q 419 158 385 146 q 475 192 453 171 q 507 244 507 217 l 507 314 q 444 331 478 325 q 381 338 410 338 q 280 310 319 338 q 240 238 240 282 q 271 172 240 197 q 349 146 301 146 z "},"b":{"ha":889,"x_min":76,"x_max":854,"o":"m 514 -14 q 368 22 431 -14 q 269 121 306 57 l 269 0 l 76 0 l 76 1014 l 299 1014 l 299 610 q 395 708 335 672 q 538 743 456 743 q 665 713 607 743 q 765 632 724 683 q 831 510 807 581 q 854 361 854 440 q 828 213 854 282 q 757 94 803 144 q 649 15 711 43 q 514 -14 586 -14 m 451 174 q 522 188 490 174 q 577 228 554 203 q 613 287 600 253 q 626 361 626 321 q 614 435 626 400 q 580 497 601 471 q 528 539 558 524 q 463 554 497 554 q 366 518 410 554 q 299 428 322 482 l 299 275 q 363 201 321 228 q 451 174 406 174 z "},"c":{"ha":792,"x_min":33,"x_max":768,"o":"m 33 365 q 60 509 33 440 q 136 630 86 578 q 259 713 186 682 q 425 743 332 743 q 638 690 551 743 q 767 550 724 636 l 550 485 q 424 554 507 554 q 308 503 354 554 q 261 365 261 451 q 274 287 261 322 q 308 226 286 251 q 360 188 331 201 q 424 174 390 174 q 500 194 465 174 q 551 246 535 214 l 768 179 q 640 40 728 94 q 425 -14 551 -14 q 260 17 333 -14 q 137 101 188 49 q 60 222 86 153 q 33 365 33 290 z "},"d":{"ha":908,"x_min":35,"x_max":860,"o":"m 379 -14 q 241 15 304 -14 q 132 94 178 43 q 60 215 86 146 q 35 365 35 283 q 58 514 35 444 q 125 634 82 583 q 227 714 168 685 q 357 743 286 743 q 495 707 433 743 q 590 610 557 671 l 590 1014 l 813 1014 l 813 250 q 823 203 813 217 q 860 188 833 190 l 860 0 q 807 -9 829 -7 q 765 -11 785 -11 q 671 13 707 -11 q 629 83 635 38 l 625 121 q 520 19 586 53 q 379 -14 454 -14 m 439 174 q 527 201 485 174 q 592 275 569 228 l 592 428 q 524 519 571 483 q 428 554 478 554 q 362 538 392 554 q 310 496 332 522 q 276 435 288 469 q 264 361 264 400 q 277 286 264 321 q 313 226 290 251 q 369 188 336 201 q 439 174 401 174 z "},"e":{"ha":839,"x_min":33,"x_max":814,"o":"m 425 -14 q 260 16 333 -14 q 137 97 188 46 q 60 216 86 149 q 33 357 33 283 q 60 506 33 436 q 136 629 86 576 q 259 713 186 682 q 425 743 332 743 q 590 713 518 743 q 713 630 663 682 q 788 510 763 578 q 814 367 814 442 q 813 328 814 347 q 808 296 811 310 l 269 296 q 323 184 275 222 q 432 146 371 146 q 526 169 481 146 q 586 233 571 193 l 775 181 q 642 40 732 94 q 425 -14 551 -14 m 579 433 q 529 543 572 503 q 422 583 486 583 q 315 542 357 583 q 265 433 272 501 l 579 433 z "},"f":{"ha":535,"x_min":31,"x_max":568,"o":"m 124 0 l 124 501 l 31 501 l 31 669 l 124 669 l 124 729 q 142 853 124 797 q 193 947 160 908 q 274 1007 226 986 q 378 1028 321 1028 q 568 985 467 1028 l 528 818 q 478 834 506 828 q 428 840 451 840 q 346 738 346 840 l 346 669 l 515 669 l 515 501 l 346 501 l 346 0 l 124 0 z "},"g":{"ha":889,"x_min":36,"x_max":813,"o":"m 360 -3 q 228 26 288 -3 q 126 106 168 56 q 60 222 83 156 q 36 365 36 289 q 61 515 36 446 q 131 634 86 583 q 238 714 175 685 q 375 743 300 743 q 520 708 458 743 q 619 610 582 672 l 619 729 l 813 729 l 813 50 q 781 -100 813 -33 q 694 -213 750 -167 q 561 -285 639 -260 q 390 -310 483 -310 q 189 -272 272 -310 q 43 -164 106 -235 l 163 -43 q 263 -116 203 -89 q 390 -143 322 -143 q 467 -132 431 -143 q 531 -98 503 -121 q 574 -38 558 -75 q 590 50 590 -1 l 590 121 q 494 28 557 60 q 360 -3 432 -3 m 436 174 q 528 202 488 174 q 590 275 568 231 l 590 428 q 522 520 568 486 q 425 554 476 554 q 359 538 389 554 q 308 495 329 522 q 274 433 286 468 q 263 360 263 397 q 276 285 263 319 q 313 226 289 251 q 367 188 336 201 q 436 174 399 174 z "},"h":{"ha":850,"x_min":76,"x_max":779,"o":"m 779 0 l 557 0 l 557 410 q 529 514 557 481 q 453 547 501 547 q 410 538 433 547 q 366 512 388 529 q 326 471 344 494 q 299 418 308 447 l 299 0 l 76 0 l 76 1014 l 299 1014 l 299 607 q 405 708 339 672 q 550 743 471 743 q 669 717 624 743 q 738 652 714 692 q 771 563 763 613 q 779 467 779 514 l 779 0 z "},"i":{"ha":375,"x_min":76,"x_max":299,"o":"m 76 0 l 76 729 l 299 729 l 299 0 l 76 0 m 76 813 l 76 1014 l 299 1014 l 299 813 l 76 813 z "},"j":{"ha":381,"x_min":-158,"x_max":306,"o":"m 38 -281 q -68 -263 -18 -281 q -158 -211 -118 -246 l -65 -60 q -31 -82 -50 -75 q 10 -89 -11 -89 q 63 -68 42 -89 q 83 -12 83 -47 l 83 729 l 306 729 l 306 4 q 285 -111 306 -58 q 229 -201 265 -164 q 144 -260 193 -239 q 38 -281 94 -281 m 83 813 l 83 1014 l 306 1014 l 306 813 l 83 813 z "},"k":{"ha":790,"x_min":76,"x_max":803,"o":"m 567 0 l 376 293 l 299 213 l 299 0 l 76 0 l 76 1014 l 299 1014 l 299 426 l 544 729 l 781 729 l 518 415 l 803 0 l 567 0 z "},"l":{"ha":465,"x_min":74,"x_max":469,"o":"m 74 1014 l 296 1014 l 296 260 q 367 176 296 176 q 403 181 383 176 q 440 196 424 186 l 469 29 q 374 -1 428 10 q 272 -12 319 -12 q 125 38 176 -12 q 74 182 74 88 l 74 1014 z "},"m":{"ha":1299,"x_min":76,"x_max":1229,"o":"m 1229 0 l 1007 0 l 1007 410 q 981 515 1007 482 q 913 547 954 547 q 867 538 890 547 q 825 510 844 528 q 790 469 806 493 q 764 418 774 446 l 764 0 l 542 0 l 542 410 q 515 515 542 482 q 447 547 489 547 q 360 512 403 547 q 299 418 318 476 l 299 0 l 76 0 l 76 729 l 276 729 l 276 607 q 385 708 317 674 q 546 743 454 743 q 626 732 592 743 q 685 701 660 721 q 725 656 710 682 q 747 601 740 631 q 857 706 789 669 q 1013 743 925 743 q 1124 717 1082 743 q 1190 651 1167 692 q 1222 561 1214 610 q 1229 467 1229 513 l 1229 0 z "},"n":{"ha":850,"x_min":76,"x_max":779,"o":"m 779 0 l 557 0 l 557 410 q 530 515 557 482 q 458 547 503 547 q 411 538 435 547 q 365 510 388 528 q 326 469 343 493 q 299 418 308 446 l 299 0 l 76 0 l 76 729 l 276 729 l 276 607 q 390 708 317 672 q 560 743 464 743 q 674 717 631 743 q 740 651 717 692 q 772 561 764 610 q 779 467 779 513 l 779 0 z "},"o":{"ha":847,"x_min":33,"x_max":814,"o":"m 424 -14 q 258 17 331 -14 q 135 99 185 47 q 59 220 85 151 q 33 364 33 289 q 59 508 33 439 q 135 628 85 576 q 258 712 185 681 q 424 743 331 743 q 589 712 517 743 q 711 628 661 681 q 788 508 761 576 q 814 364 814 439 q 788 220 814 289 q 713 99 763 151 q 590 17 663 47 q 424 -14 517 -14 m 261 364 q 307 226 261 278 q 424 174 353 174 q 488 188 458 174 q 538 226 517 201 q 572 287 560 251 q 585 364 585 322 q 539 502 585 450 q 424 554 493 554 q 359 540 389 554 q 308 501 329 526 q 274 441 286 476 q 261 364 261 406 z "},"p":{"ha":889,"x_min":76,"x_max":853,"o":"m 538 -14 q 393 21 454 -14 q 299 118 332 56 l 299 -296 l 76 -296 l 76 729 l 269 729 l 269 611 q 370 708 310 674 q 514 743 431 743 q 649 714 588 743 q 756 634 711 685 q 827 515 801 583 q 853 367 853 446 q 829 215 853 285 q 764 95 806 146 q 664 15 722 44 q 538 -14 606 -14 m 463 174 q 528 190 499 174 q 581 232 558 206 q 615 294 603 258 q 626 368 626 329 q 613 442 626 408 q 577 501 600 476 q 522 540 554 526 q 451 554 489 554 q 363 527 406 554 q 299 454 321 500 l 299 304 q 366 211 321 249 q 463 174 411 174 z "},"q":{"ha":889,"x_min":36,"x_max":869,"o":"m 351 -14 q 224 15 282 -14 q 125 96 167 44 q 60 217 83 147 q 36 367 36 286 q 62 515 36 446 q 133 634 88 583 q 240 714 178 685 q 375 743 301 743 q 519 707 458 743 q 619 610 579 671 l 619 729 l 813 729 l 813 -35 q 825 -81 813 -68 q 869 -96 838 -94 l 869 -285 q 807 -293 840 -290 q 747 -296 774 -296 q 687 -285 715 -296 q 637 -256 658 -275 q 603 -211 615 -237 q 590 -153 590 -185 l 590 118 q 351 -14 515 -14 m 436 174 q 524 201 485 174 q 590 272 563 228 l 590 426 q 565 476 582 453 q 526 517 549 500 q 479 544 504 535 q 429 554 454 554 q 363 538 393 554 q 310 496 332 522 q 275 435 288 469 q 263 361 263 400 q 310 226 263 279 q 436 174 358 174 z "},"r":{"ha":556,"x_min":76,"x_max":539,"o":"m 539 539 q 393 513 458 538 q 299 438 328 488 l 299 0 l 76 0 l 76 729 l 281 729 l 281 582 q 377 697 318 656 q 503 740 436 739 q 525 740 518 740 q 539 739 532 740 l 539 539 z "},"s":{"ha":693,"x_min":28,"x_max":663,"o":"m 364 -14 q 181 16 271 -14 q 28 103 90 46 l 107 239 q 237 168 174 193 q 358 143 300 143 q 425 158 401 143 q 449 203 449 174 q 419 249 449 232 q 314 286 389 267 q 190 326 240 307 q 107 369 139 346 q 61 424 75 393 q 47 496 47 454 q 69 597 47 551 q 131 675 92 643 q 223 725 169 707 q 339 743 276 743 q 492 721 421 743 q 631 640 564 699 l 544 507 q 433 569 482 550 q 339 589 385 589 q 278 574 303 589 q 253 528 253 560 q 280 482 253 497 q 381 449 307 467 q 512 407 458 428 q 599 360 565 386 q 647 301 632 335 q 663 222 663 268 q 582 50 663 114 q 364 -14 501 -14 z "},"t":{"ha":558,"x_min":29,"x_max":549,"o":"m 549 39 q 444 3 503 19 q 325 -14 385 -14 q 247 -3 283 -14 q 182 30 210 7 q 138 90 154 53 q 122 181 122 128 l 122 561 l 29 561 l 29 729 l 122 729 l 122 961 l 344 961 l 344 729 l 493 729 l 493 561 l 344 561 l 344 257 q 363 205 344 221 q 408 189 381 189 q 460 197 433 189 q 506 215 486 206 l 549 39 z "},"u":{"ha":871,"x_min":69,"x_max":822,"o":"m 297 -14 q 127 56 185 -14 q 69 263 69 126 l 69 729 l 292 729 l 292 311 q 318 209 292 244 q 393 174 344 174 q 479 197 438 174 q 553 279 521 221 l 553 729 l 775 729 l 775 250 q 785 203 775 217 q 822 188 796 190 l 822 0 q 768 -9 790 -7 q 728 -11 746 -11 q 592 82 608 -11 l 588 126 q 463 20 538 54 q 297 -14 389 -14 z "},"v":{"ha":772,"x_min":7,"x_max":764,"o":"m 265 0 l 7 729 l 236 729 l 396 178 l 557 729 l 764 729 l 507 0 l 265 0 z "},"w":{"ha":1181,"x_min":-6,"x_max":1186,"o":"m 975 729 l 1186 729 l 885 0 l 703 0 l 590 300 l 478 0 l 296 0 l -6 729 l 204 729 l 403 206 l 471 404 l 342 729 l 519 729 l 590 510 l 660 729 l 838 729 l 710 404 l 778 206 l 975 729 z "},"x":{"ha":753,"x_min":-1,"x_max":754,"o":"m 231 729 l 363 524 l 376 497 l 390 524 l 521 729 l 749 729 l 496 364 l 754 0 l 526 0 l 389 204 l 376 231 l 364 204 l 226 0 l -1 0 l 257 364 l 4 729 l 231 729 z "},"y":{"ha":767,"x_min":3,"x_max":756,"o":"m 82 -110 q 134 -124 110 -119 q 178 -128 158 -128 q 240 -100 218 -128 q 281 0 263 -72 l 3 729 l 232 729 l 401 190 l 547 729 l 756 729 l 478 -118 q 374 -265 449 -208 q 196 -321 299 -321 q 140 -316 168 -321 q 82 -300 111 -311 l 82 -110 z "},"z":{"ha":686,"x_min":33,"x_max":647,"o":"m 33 133 l 406 575 l 53 575 l 53 729 l 638 729 l 638 596 l 268 154 l 647 154 l 647 0 l 33 0 l 33 133 z "},"{":{"ha":478,"x_min":54,"x_max":406,"o":"m 329 851 l 329 600 q 314 544 329 568 q 276 500 299 519 q 313 456 297 481 q 329 400 329 432 l 329 133 l 406 133 l 406 -43 l 161 -43 q 141 -35 153 -43 q 129 -1 129 -26 l 129 325 q 106 392 129 365 q 54 425 82 418 l 54 578 q 82 587 68 578 q 106 610 96 596 q 123 641 117 624 q 129 675 129 658 l 129 986 q 142 1019 129 1011 q 161 1028 154 1028 l 406 1028 l 406 851 l 329 851 z "},"|":{"ha":404,"x_min":108,"x_max":296,"o":"m 108 -181 l 108 1076 l 296 1076 l 296 -181 l 108 -181 z "},"}":{"ha":478,"x_min":72,"x_max":424,"o":"m 72 851 l 72 1028 l 315 1028 q 335 1019 324 1028 q 347 986 347 1011 l 347 675 q 353 641 347 658 q 371 610 360 624 q 395 587 382 596 q 424 578 408 578 l 424 425 q 372 392 396 418 q 347 325 347 365 l 347 -1 q 336 -35 347 -26 q 315 -43 325 -43 l 72 -43 l 72 133 l 149 133 l 149 400 q 164 456 149 432 q 200 500 179 481 q 163 544 178 519 q 149 600 149 568 l 149 851 l 72 851 z "},"~":{"ha":815,"x_min":71,"x_max":749,"o":"m 71 308 q 81 356 71 322 q 116 424 92 389 q 181 484 140 458 q 281 510 221 510 q 352 498 319 510 q 415 473 385 486 q 473 448 444 460 q 533 436 501 436 q 583 447 564 436 q 612 469 601 457 q 626 493 622 482 q 629 507 629 504 l 749 507 q 738 466 749 499 q 703 399 728 433 q 636 336 678 364 q 532 308 594 308 q 461 319 493 308 q 399 344 429 331 q 340 368 369 357 q 279 379 311 379 q 231 369 249 379 q 205 345 214 358 q 193 321 196 332 q 190 308 190 310 l 71 308 l 71 308 z "}," ":{"ha":324,"x_min":0,"x_max":0,"o":""},"¡":{"ha":460,"x_min":118,"x_max":340,"o":"m 340 596 l 340 -8 l 118 -8 l 118 596 l 340 596 m 340 988 l 340 757 l 118 757 l 118 988 l 340 988 z "},"¢":{"ha":839,"x_min":53,"x_max":789,"o":"m 383 -167 l 383 -12 q 250 27 311 -7 q 145 113 189 61 q 77 228 101 164 q 53 358 53 292 q 74 492 53 429 q 136 606 94 556 q 240 692 178 657 q 383 740 301 728 l 383 896 l 479 896 l 479 740 q 657 690 575 738 q 788 550 739 643 l 571 485 q 531 528 556 511 q 479 547 506 544 l 479 179 q 535 205 510 188 q 572 246 561 222 l 789 179 q 728 94 767 131 q 647 34 690 58 q 558 -2 603 10 q 479 -14 514 -14 l 479 -167 l 383 -167 m 282 358 q 308 258 282 304 q 383 190 335 211 l 383 538 q 308 472 335 522 q 282 358 282 422 z "},"£":{"ha":783,"x_min":69,"x_max":733,"o":"m 82 533 l 171 533 q 126 635 147 585 q 104 742 104 686 q 127 840 104 794 q 191 920 150 886 q 287 974 232 954 q 404 993 342 993 q 572 955 492 993 q 707 847 651 917 l 592 711 q 503 785 557 756 q 401 814 450 814 q 329 788 357 814 q 301 718 301 761 q 325 631 301 675 q 369 533 349 586 l 629 533 l 629 368 l 397 368 q 367 270 392 317 q 292 171 342 224 q 349 186 324 182 q 397 190 374 190 q 491 179 446 190 q 582 168 536 168 q 629 173 607 168 q 679 188 651 178 l 733 24 q 656 -8 701 4 q 571 -21 611 -21 q 506 -14 539 -21 q 440 1 474 -7 q 372 15 406 8 q 304 22 338 22 q 215 13 265 22 q 115 -12 164 3 l 69 146 q 165 248 129 189 q 207 368 201 307 l 82 368 l 82 533 z "},"¤":{"ha":778,"x_min":61,"x_max":715,"o":"m 244 696 q 311 722 275 713 q 390 732 347 732 q 467 722 432 732 q 533 697 503 713 l 629 794 l 715 708 l 624 617 q 667 469 667 551 q 622 319 667 385 l 715 228 l 636 149 l 536 242 q 390 207 474 207 q 309 217 346 207 q 242 243 272 226 l 142 149 l 61 228 l 156 322 q 125 392 136 354 q 114 469 114 429 q 154 614 114 550 l 61 708 l 149 794 l 244 696 m 274 468 q 307 376 274 411 q 390 342 340 342 q 474 376 440 342 q 507 469 507 411 q 474 562 507 528 q 390 596 440 596 q 307 561 340 596 q 274 468 274 526 z "},"¥":{"ha":1008,"x_min":42,"x_max":965,"o":"m 740 578 l 836 578 l 836 435 l 667 435 l 614 336 l 614 293 l 838 293 l 838 150 l 614 150 l 614 0 l 388 0 l 388 150 l 165 150 l 165 293 l 388 293 l 388 339 l 336 435 l 167 435 l 167 578 l 264 578 l 42 986 l 288 986 l 500 533 l 717 986 l 965 986 l 740 578 z "},"¦":{"ha":408,"x_min":110,"x_max":299,"o":"m 299 361 l 299 -181 l 110 -181 l 110 361 l 299 361 m 299 1076 l 299 535 l 110 535 l 110 1076 l 299 1076 z "},"§":{"ha":751,"x_min":57,"x_max":696,"o":"m 654 310 q 684 256 672 290 q 696 169 696 222 q 665 33 696 89 q 585 -57 633 -22 q 481 -107 538 -92 q 376 -122 425 -122 q 269 -106 319 -122 q 180 -65 219 -89 q 112 -16 140 -42 q 67 29 83 10 l 208 165 q 287 106 249 124 q 365 89 325 89 q 435 107 406 89 q 465 161 465 125 q 458 190 465 179 q 438 207 450 201 q 410 215 425 213 q 381 218 394 217 q 160 299 233 229 q 86 474 86 368 q 94 537 86 514 q 107 571 103 560 q 74 627 92 588 q 57 719 57 667 q 80 823 57 774 q 143 910 103 872 q 238 970 183 947 q 358 993 293 993 q 472 974 422 993 q 559 926 521 954 q 624 865 597 897 q 668 807 650 832 l 499 726 q 449 776 481 757 q 372 796 417 796 q 305 776 329 796 q 281 724 281 756 q 288 690 281 703 q 307 671 294 678 q 336 661 319 664 q 371 658 353 658 q 478 644 424 657 q 576 604 532 632 q 649 531 621 576 q 678 418 678 485 q 669 349 678 378 q 654 310 661 321 m 301 443 q 318 399 301 413 q 358 378 335 385 q 406 371 381 372 q 449 364 432 369 q 463 385 458 371 q 468 411 468 399 q 460 444 468 431 q 438 465 451 457 q 410 477 425 474 q 381 481 394 481 q 343 484 361 481 q 319 490 325 488 q 301 443 301 475 z "},"¨":{"ha":706,"x_min":115,"x_max":590,"o":"m 115 824 l 115 1003 l 299 1003 l 299 824 l 115 824 m 407 824 l 407 1003 l 590 1003 l 590 824 l 407 824 z "},"©":{"ha":1172,"x_min":57,"x_max":1117,"o":"m 581 -10 q 372 28 468 -10 q 206 134 275 67 q 97 293 136 201 q 57 493 57 385 q 97 692 57 600 q 206 850 136 783 q 372 955 275 917 q 581 993 468 993 q 794 955 696 993 q 965 850 893 917 q 1076 692 1036 783 q 1117 493 1117 600 q 1076 293 1117 385 q 965 134 1036 201 q 794 28 893 67 q 581 -10 696 -10 m 581 68 q 758 99 675 68 q 901 186 840 131 q 996 319 961 242 q 1031 492 1031 397 q 997 658 1031 581 q 902 792 963 735 q 760 883 842 850 q 581 915 678 915 q 406 883 486 915 q 267 793 326 850 q 175 659 208 736 q 142 493 142 582 q 175 326 142 404 q 267 192 208 249 q 406 101 325 135 q 581 68 486 68 m 594 158 q 442 185 510 158 q 328 256 375 211 q 257 362 282 301 q 232 492 232 422 q 255 617 232 557 q 324 724 278 678 q 437 799 369 771 q 592 826 504 826 q 794 775 711 826 q 917 639 876 724 l 700 572 q 651 624 681 608 q 590 639 622 639 q 496 597 532 639 q 460 492 460 556 q 471 430 460 457 q 501 384 482 403 q 543 356 519 365 q 592 346 567 346 q 656 363 626 346 q 703 413 685 381 l 918 347 q 870 274 900 308 q 799 213 840 239 q 707 173 758 188 q 594 158 656 158 z "},"ª":{"ha":621,"x_min":51,"x_max":560,"o":"m 219 467 q 153 479 183 467 q 99 513 122 492 q 64 564 76 535 q 51 628 51 593 q 67 697 51 665 q 110 750 82 728 q 176 785 138 772 q 260 797 214 797 q 365 776 324 797 l 365 797 q 272 883 365 883 q 197 869 232 883 q 121 828 161 856 l 74 926 q 288 992 169 992 q 460 938 400 992 q 521 779 521 883 l 521 656 q 560 611 521 613 l 560 476 q 488 468 518 468 q 393 535 406 468 l 390 557 q 313 490 357 513 q 219 467 269 467 m 265 582 q 309 590 288 582 q 344 611 331 599 q 365 647 365 628 l 365 693 q 326 706 347 701 q 286 710 306 710 q 223 691 247 710 q 199 642 199 672 q 218 599 199 617 q 265 582 238 582 z "},"«":{"ha":943,"x_min":46,"x_max":864,"o":"m 46 407 l 421 675 l 421 496 l 221 360 l 421 233 l 421 54 l 46 301 l 46 407 m 489 407 l 864 675 l 864 496 l 664 360 l 864 233 l 864 54 l 489 301 l 489 407 z "},"¬":{"ha":865,"x_min":75,"x_max":779,"o":"m 779 576 l 779 136 l 592 136 l 592 376 l 75 376 l 75 576 l 779 576 z "},"­":{"ha":854,"x_min":75,"x_max":779,"o":"m 75 282 l 75 482 l 779 482 l 779 282 l 75 282 z "},"®":{"ha":1172,"x_min":57,"x_max":1117,"o":"m 583 -10 q 372 28 468 -10 q 206 134 275 67 q 97 293 136 201 q 57 493 57 385 q 97 692 57 600 q 206 850 136 783 q 372 955 275 917 q 583 993 468 993 q 795 955 697 993 q 965 850 893 917 q 1076 692 1036 783 q 1117 493 1117 600 q 1076 293 1117 385 q 965 134 1036 201 q 795 28 893 67 q 583 -10 697 -10 m 585 67 q 758 99 678 67 q 899 187 839 131 q 992 321 958 243 q 1026 490 1026 399 q 993 657 1026 579 q 901 792 960 735 q 761 882 842 849 q 585 915 681 915 q 408 882 489 915 q 269 792 328 849 q 178 658 211 735 q 146 492 146 581 q 178 326 146 403 q 269 191 211 249 q 408 100 328 133 q 585 67 489 67 m 353 797 l 626 797 q 706 779 669 797 q 769 732 743 761 q 810 666 796 703 q 825 592 825 629 q 797 490 825 538 q 725 418 769 442 l 863 194 l 689 194 l 568 389 l 510 389 l 510 194 l 353 194 l 353 797 m 611 522 q 654 539 638 522 q 671 592 671 556 q 651 646 671 631 q 608 661 632 661 l 510 661 l 510 522 l 611 522 z "},"¯":{"ha":594,"x_min":86,"x_max":508,"o":"m 86 863 l 86 997 l 508 997 l 508 863 l 86 863 z "},"°":{"ha":406,"x_min":50,"x_max":356,"o":"m 50 858 q 93 963 50 921 q 203 1006 136 1006 q 313 963 269 1006 q 356 858 356 921 q 313 743 356 786 q 203 700 269 700 q 93 744 136 700 q 50 858 50 788 m 168 886 q 154 853 154 872 q 168 819 154 831 q 203 804 181 804 q 236 819 225 804 q 247 835 243 825 q 250 853 250 844 q 236 886 250 874 q 222 897 231 893 q 203 900 213 900 q 168 886 181 900 z "},"±":{"ha":661,"x_min":75,"x_max":585,"o":"m 75 22 l 75 199 l 583 199 l 583 22 l 75 22 m 585 618 l 585 442 l 431 442 l 431 274 l 231 274 l 231 442 l 76 442 l 76 618 l 231 618 l 231 786 l 431 786 l 431 618 l 585 618 z "},"²":{"ha":594,"x_min":39,"x_max":550,"o":"m 39 532 q 48 633 39 590 q 78 710 57 676 q 134 768 99 743 q 222 815 169 793 q 288 842 256 829 q 347 869 321 854 q 388 902 372 883 q 404 946 404 921 q 375 994 404 979 q 293 1010 346 1010 q 192 990 235 1010 q 125 946 150 969 l 43 1040 q 138 1105 68 1074 q 313 1136 208 1136 q 490 1086 429 1136 q 550 944 550 1036 q 532 865 550 899 q 488 810 514 832 q 430 774 461 788 q 372 753 399 761 q 253 658 253 718 l 531 658 l 531 532 l 39 532 z "},"³":{"ha":575,"x_min":35,"x_max":531,"o":"m 268 522 q 120 549 181 522 q 36 628 60 575 l 104 725 q 124 703 111 715 q 157 679 138 690 q 203 660 176 668 q 265 653 231 653 q 360 667 319 653 q 400 714 400 682 q 345 766 400 750 q 193 782 290 782 l 160 782 l 160 900 l 193 900 q 327 915 275 900 q 379 965 379 929 q 369 989 379 979 q 342 1005 358 999 q 308 1014 326 1011 q 272 1017 289 1017 q 182 999 218 1017 q 118 951 146 981 l 35 1056 q 77 1090 51 1075 q 134 1116 103 1106 q 201 1131 165 1126 q 271 1136 236 1136 q 369 1124 324 1136 q 447 1089 414 1111 q 498 1037 479 1067 q 517 972 517 1007 q 481 892 517 924 q 383 849 446 860 q 492 796 453 839 q 531 694 531 753 q 508 616 531 649 q 449 563 486 583 q 365 532 413 542 q 268 522 318 522 z "},"´":{"ha":374,"x_min":64,"x_max":338,"o":"m 206 794 l 64 833 l 136 1014 l 338 1014 l 206 794 z "},"µ":{"ha":950,"x_min":106,"x_max":868,"o":"m 106 729 l 328 729 l 328 311 q 354 209 328 244 q 435 174 381 174 q 516 197 474 174 q 590 279 558 221 l 590 729 l 813 729 l 813 250 q 824 203 813 217 q 868 188 836 190 l 868 0 q 809 -9 835 -7 q 764 -11 783 -11 q 670 15 706 -11 q 628 85 635 40 l 624 126 q 594 81 615 106 q 547 36 574 57 q 487 1 519 15 q 421 -14 454 -14 q 377 -6 396 -14 q 344 12 358 1 q 323 34 331 22 q 314 53 315 46 l 328 -296 l 106 -296 l 106 729 z "},"¶":{"ha":943,"x_min":47,"x_max":879,"o":"m 47 626 q 150 892 47 799 q 439 986 253 986 l 879 986 l 879 821 l 782 821 l 782 -111 l 593 -111 l 593 276 l 536 276 l 536 -111 l 347 -111 l 347 276 q 225 301 281 276 q 130 372 169 326 q 69 483 90 418 q 47 626 47 547 m 232 632 q 265 498 232 549 q 347 440 299 447 l 347 821 q 263 765 294 817 q 232 632 232 713 m 593 821 l 536 821 l 536 440 l 593 440 l 593 821 z "},"·":{"ha":332,"x_min":75,"x_max":257,"o":"m 75 333 l 75 564 l 257 564 l 257 333 l 75 333 z "},"¸":{"ha":476,"x_min":29,"x_max":375,"o":"m 71 -176 q 122 -195 86 -186 q 196 -204 158 -204 q 251 -194 229 -204 q 274 -160 274 -185 q 253 -126 274 -136 q 199 -115 232 -115 q 137 -121 169 -115 q 89 -131 104 -126 l 175 44 l 258 19 l 208 -53 q 250 -49 226 -49 q 338 -73 300 -49 q 375 -151 375 -97 q 328 -245 375 -207 q 181 -283 281 -283 q 94 -274 132 -283 q 29 -254 57 -265 l 71 -176 z "},"¹":{"ha":429,"x_min":43,"x_max":400,"o":"m 400 661 l 400 533 l 67 533 l 67 661 l 174 661 l 174 999 q 151 976 167 989 q 117 953 136 964 q 79 934 99 942 q 43 926 60 926 l 43 1056 q 87 1068 64 1056 q 129 1095 110 1081 q 161 1122 149 1110 q 174 1136 174 1135 l 304 1136 l 304 661 l 400 661 z "},"º":{"ha":613,"x_min":44,"x_max":568,"o":"m 306 467 q 194 488 243 467 q 113 546 146 510 q 62 629 79 582 q 44 729 44 676 q 62 829 44 782 q 113 913 79 876 q 194 970 146 949 q 306 992 243 992 q 417 970 368 992 q 500 913 467 949 q 551 829 533 876 q 568 729 568 782 q 551 629 568 676 q 500 546 533 582 q 418 488 467 510 q 306 467 369 467 m 204 729 q 233 636 204 671 q 306 601 263 601 q 379 636 350 601 q 408 729 408 671 q 379 822 408 788 q 306 857 350 857 q 233 822 263 857 q 204 729 204 788 z "},"»":{"ha":943,"x_min":79,"x_max":897,"o":"m 897 301 l 522 54 l 522 233 l 722 360 l 522 496 l 522 675 l 897 407 l 897 301 m 454 301 l 79 54 l 79 233 l 279 360 l 79 496 l 79 675 l 454 407 l 454 301 z "},"¼":{"ha":1350,"x_min":57,"x_max":1303,"o":"m 1088 1 l 1088 124 l 785 124 l 785 250 l 1128 599 l 1217 599 l 1217 250 l 1303 250 l 1303 124 l 1217 124 l 1217 1 l 1088 1 m 907 250 l 1093 250 l 1093 442 l 907 250 m 269 78 l 661 528 l 1017 999 l 1117 910 l 738 471 l 368 -12 l 269 78 m 414 540 l 414 413 l 81 413 l 81 540 l 188 540 l 188 878 q 165 856 181 868 q 131 832 150 843 q 93 813 113 821 q 57 806 74 806 l 57 935 q 101 947 78 935 q 143 974 124 960 q 175 1001 163 989 q 188 1015 188 1014 l 318 1015 l 318 540 l 414 540 z "},"½":{"ha":1378,"x_min":54,"x_max":1324,"o":"m 817 0 q 826 101 817 58 q 856 177 835 144 q 911 235 876 210 q 999 283 946 261 q 1064 310 1032 297 q 1121 337 1096 322 q 1162 369 1146 351 q 1178 413 1178 388 q 1149 463 1178 447 q 1068 478 1119 478 q 968 457 1010 478 q 901 413 926 436 l 821 508 q 915 573 846 542 q 1089 604 985 604 q 1262 554 1201 604 q 1322 411 1322 504 q 1305 333 1322 365 q 1261 278 1288 300 q 1203 242 1235 256 q 1146 221 1172 229 q 1028 126 1028 186 l 1324 126 l 1324 0 l 817 0 m 213 78 l 604 528 l 960 999 l 1060 910 l 681 471 l 311 -12 l 213 78 m 411 540 l 411 413 l 78 413 l 78 540 l 185 540 l 185 878 q 163 856 178 868 q 128 832 147 843 q 90 813 110 821 q 54 806 71 806 l 54 935 q 98 947 75 935 q 140 974 121 960 q 172 1001 160 989 q 185 1015 185 1014 l 315 1015 l 315 540 l 411 540 z "},"¾":{"ha":1361,"x_min":51,"x_max":1313,"o":"m 285 401 q 137 428 197 401 q 53 507 76 454 l 121 604 q 181 555 142 578 q 282 532 219 532 q 376 547 336 532 q 417 593 417 561 q 362 645 417 629 q 210 661 307 661 l 176 661 l 176 779 l 210 779 q 344 794 292 779 q 396 844 396 808 q 385 868 396 858 q 359 884 375 878 q 324 893 343 890 q 289 896 306 896 q 199 878 235 896 q 135 831 163 860 l 51 935 q 94 969 68 954 q 151 995 119 985 q 217 1010 182 1006 q 288 1015 253 1015 q 385 1003 340 1015 q 463 968 431 990 q 515 916 496 946 q 533 851 533 886 q 498 771 533 803 q 400 728 463 739 q 508 675 469 718 q 547 574 547 632 q 525 495 547 528 q 466 442 503 463 q 382 411 429 421 q 285 401 335 401 m 1097 1 l 1097 124 l 794 124 l 794 250 l 1138 599 l 1226 599 l 1226 250 l 1313 250 l 1313 124 l 1226 124 l 1226 1 l 1097 1 m 917 250 l 1103 250 l 1103 442 l 917 250 m 311 78 l 703 528 l 1058 999 l 1158 910 l 779 471 l 410 -12 l 311 78 z "},"¿":{"ha":671,"x_min":42,"x_max":628,"o":"m 524 363 q 519 301 524 331 q 503 245 515 272 q 469 194 492 218 q 411 151 447 171 q 363 125 393 140 q 305 89 333 110 q 256 41 276 68 q 235 -19 235 14 q 268 -91 235 -65 q 344 -117 301 -117 q 394 -106 372 -117 q 433 -81 415 -96 q 463 -49 450 -67 q 485 -17 475 -32 l 628 -117 q 513 -249 592 -201 q 336 -296 435 -296 q 231 -281 283 -296 q 136 -232 178 -265 q 68 -146 94 -199 q 42 -18 42 -93 q 74 115 42 61 q 171 208 107 168 q 230 242 200 226 q 285 275 260 258 q 325 313 310 292 q 340 363 340 333 l 524 363 m 519 703 l 519 494 l 338 494 l 338 703 l 519 703 z "},"À":{"ha":931,"x_min":3,"x_max":928,"o":"m 363 986 l 568 986 l 928 0 l 694 0 l 618 221 l 311 221 l 236 0 l 3 0 l 363 986 m 581 378 l 465 726 l 347 378 l 581 378 m 269 1272 l 471 1272 l 543 1092 l 403 1053 l 269 1272 z "},"Á":{"ha":931,"x_min":3,"x_max":928,"o":"m 363 986 l 568 986 l 928 0 l 694 0 l 618 221 l 311 221 l 236 0 l 3 0 l 363 986 m 581 378 l 465 726 l 347 378 l 581 378 m 529 1051 l 388 1090 l 460 1271 l 661 1271 l 529 1051 z "},"Â":{"ha":931,"x_min":3,"x_max":928,"o":"m 363 986 l 568 986 l 928 0 l 694 0 l 618 221 l 311 221 l 236 0 l 3 0 l 363 986 m 581 378 l 465 726 l 347 378 l 581 378 m 233 1121 l 386 1271 l 546 1271 l 697 1121 l 583 1071 l 465 1158 l 347 1071 l 233 1121 z "},"ˆ":{"ha":533,"x_min":35,"x_max":499,"o":"m 35 864 l 188 1014 l 347 1014 l 499 864 l 385 814 l 267 901 l 149 814 l 35 864 z "},"Ã":{"ha":931,"x_min":3,"x_max":928,"o":"m 363 986 l 568 986 l 928 0 l 694 0 l 618 221 l 311 221 l 236 0 l 3 0 l 363 986 m 581 378 l 465 726 l 347 378 l 581 378 m 554 1074 q 498 1083 522 1074 q 453 1106 474 1093 q 413 1128 432 1118 q 369 1138 393 1138 q 333 1128 346 1138 q 314 1106 321 1118 q 306 1083 307 1093 q 304 1071 304 1072 l 185 1071 q 194 1119 185 1086 q 224 1185 203 1151 q 278 1243 244 1218 q 361 1268 313 1268 q 418 1258 394 1268 q 462 1235 442 1247 q 501 1212 482 1222 q 546 1201 521 1201 q 584 1212 569 1201 q 606 1235 599 1222 q 616 1258 614 1247 q 618 1271 618 1269 l 738 1271 q 728 1228 738 1260 q 697 1161 718 1196 q 640 1100 675 1126 q 554 1074 606 1074 z "},"˜":{"ha":625,"x_min":36,"x_max":589,"o":"m 406 817 q 349 826 374 817 q 304 849 325 836 q 264 871 283 861 q 221 881 244 881 q 185 871 197 881 q 165 849 172 861 q 157 826 158 836 q 156 814 156 815 l 36 814 q 45 862 36 829 q 75 928 54 894 q 130 986 96 961 q 213 1011 164 1011 q 269 1001 246 1011 q 313 978 293 990 q 353 955 333 965 q 397 944 372 944 q 435 955 421 944 q 458 978 450 965 q 467 1001 465 990 q 469 1014 469 1013 l 589 1014 q 579 971 589 1003 q 548 904 569 939 q 492 843 526 869 q 406 817 457 817 z "},"Ä":{"ha":931,"x_min":3,"x_max":928,"o":"m 363 986 l 568 986 l 928 0 l 694 0 l 618 221 l 311 221 l 236 0 l 3 0 l 363 986 m 581 378 l 465 726 l 347 378 l 581 378 m 229 1082 l 229 1261 l 413 1261 l 413 1082 l 229 1082 m 521 1082 l 521 1261 l 704 1261 l 704 1082 l 521 1082 z "},"Å":{"ha":931,"x_min":3,"x_max":928,"o":"m 363 986 l 568 986 l 928 0 l 694 0 l 618 221 l 311 221 l 236 0 l 3 0 l 363 986 m 581 378 l 465 726 l 347 378 l 581 378 m 317 1157 q 358 1242 317 1214 q 465 1271 399 1271 q 572 1242 532 1271 q 613 1157 613 1214 q 572 1073 613 1101 q 465 1044 532 1044 q 358 1073 399 1044 q 317 1157 317 1101 m 465 1206 q 426 1192 442 1206 q 410 1158 410 1179 q 426 1124 410 1138 q 465 1110 442 1110 q 504 1123 488 1110 q 521 1158 521 1136 q 505 1192 521 1179 q 465 1206 489 1206 z "},"˚":{"ha":372,"x_min":38,"x_max":333,"o":"m 38 900 q 78 985 38 957 q 186 1014 119 1014 q 293 985 253 1014 q 333 900 333 957 q 293 816 333 844 q 186 788 253 788 q 78 816 119 788 q 38 900 38 844 m 186 949 q 147 935 163 949 q 131 901 131 922 q 147 867 131 881 q 186 853 163 853 q 225 866 208 853 q 242 901 242 879 q 226 935 242 922 q 186 949 210 949 z "},"Æ":{"ha":1344,"x_min":-36,"x_max":1300,"o":"m 572 986 l 1288 986 l 1288 786 l 858 786 l 858 601 l 1213 601 l 1213 403 l 858 403 l 858 200 l 1300 200 l 1300 0 l 632 0 l 632 221 l 333 221 l 207 0 l -36 0 l 572 986 m 614 421 l 614 732 l 429 421 l 614 421 z "},"Ç":{"ha":954,"x_min":36,"x_max":935,"o":"m 390 -176 q 442 -195 406 -186 q 515 -204 478 -204 q 571 -194 549 -204 q 593 -160 593 -185 q 572 -126 593 -136 q 518 -115 551 -115 q 456 -121 489 -115 q 408 -131 424 -126 l 469 -6 q 292 51 372 4 q 156 169 213 99 q 67 326 99 239 q 36 501 36 413 q 69 678 36 590 q 167 836 103 767 q 322 949 231 906 q 531 992 414 992 q 772 932 669 992 q 924 776 874 872 l 749 654 q 706 719 732 693 q 650 760 681 744 q 588 783 619 776 q 525 789 556 789 q 411 763 460 789 q 331 694 363 736 q 283 600 299 653 q 268 493 268 547 q 286 381 268 435 q 338 285 304 326 q 420 219 372 243 q 528 194 468 194 q 591 202 558 194 q 653 226 624 210 q 708 267 683 242 q 749 331 733 293 l 935 221 q 875 131 914 171 q 785 61 836 90 q 676 15 733 32 q 560 -7 618 -3 l 528 -53 q 569 -49 546 -49 q 657 -73 619 -49 q 694 -151 694 -97 q 647 -245 694 -207 q 500 -283 600 -283 q 414 -274 451 -283 q 349 -254 376 -265 l 390 -176 z "},"È":{"ha":832,"x_min":94,"x_max":788,"o":"m 788 200 l 788 0 l 94 0 l 94 986 l 775 986 l 775 786 l 322 786 l 322 594 l 711 594 l 711 410 l 322 410 l 322 200 l 788 200 m 250 1272 l 451 1272 l 524 1092 l 383 1053 l 250 1272 z "},"É":{"ha":832,"x_min":94,"x_max":788,"o":"m 510 1051 l 368 1090 l 440 1271 l 642 1271 l 510 1051 m 788 200 l 788 0 l 94 0 l 94 986 l 775 986 l 775 786 l 322 786 l 322 594 l 711 594 l 711 410 l 322 410 l 322 200 l 788 200 z "},"Ê":{"ha":832,"x_min":94,"x_max":788,"o":"m 214 1121 l 367 1271 l 526 1271 l 678 1121 l 564 1071 l 446 1158 l 328 1071 l 214 1121 m 788 200 l 788 0 l 94 0 l 94 986 l 775 986 l 775 786 l 322 786 l 322 594 l 711 594 l 711 410 l 322 410 l 322 200 l 788 200 z "},"Ë":{"ha":832,"x_min":94,"x_max":788,"o":"m 208 1082 l 208 1261 l 392 1261 l 392 1082 l 208 1082 m 500 1082 l 500 1261 l 683 1261 l 683 1082 l 500 1082 m 788 200 l 788 0 l 94 0 l 94 986 l 775 986 l 775 786 l 322 786 l 322 594 l 711 594 l 711 410 l 322 410 l 322 200 l 788 200 z "},"Ì":{"ha":417,"x_min":11,"x_max":322,"o":"m 94 0 l 94 986 l 322 986 l 322 0 l 94 0 m 11 1272 l 213 1272 l 285 1092 l 144 1053 l 11 1272 z "},"Í":{"ha":417,"x_min":94,"x_max":403,"o":"m 94 0 l 94 986 l 322 986 l 322 0 l 94 0 m 271 1051 l 129 1090 l 201 1271 l 403 1271 l 271 1051 z "},"Î":{"ha":417,"x_min":-24,"x_max":440,"o":"m 94 0 l 94 986 l 322 986 l 322 0 l 94 0 m -24 1121 l 129 1271 l 289 1271 l 440 1121 l 326 1071 l 208 1158 l 90 1071 l -24 1121 z "},"Ï":{"ha":417,"x_min":-29,"x_max":446,"o":"m 94 0 l 94 986 l 322 986 l 322 0 l 94 0 m -29 1082 l -29 1261 l 154 1261 l 154 1082 l -29 1082 m 263 1082 l 263 1261 l 446 1261 l 446 1082 l 263 1082 z "},"Ð":{"ha":1001,"x_min":42,"x_max":961,"o":"m 101 0 l 101 414 l 42 414 l 42 578 l 101 578 l 101 986 l 469 986 q 683 947 592 986 q 837 842 775 908 q 930 685 899 775 q 961 494 961 596 q 926 291 961 382 q 827 135 892 200 q 672 35 763 71 q 469 0 581 0 l 101 0 m 729 494 q 712 613 729 560 q 661 706 694 667 q 579 765 628 744 q 469 786 531 786 l 329 786 l 329 578 l 507 578 l 507 414 l 329 414 l 329 200 l 469 200 q 581 222 532 200 q 662 284 629 244 q 712 377 694 324 q 729 494 729 431 z "},"Ñ":{"ha":1054,"x_min":94,"x_max":960,"o":"m 322 564 l 322 0 l 94 0 l 94 986 l 272 986 l 732 407 l 732 986 l 960 986 l 960 0 l 776 0 l 322 564 m 613 1072 q 556 1082 581 1072 q 511 1104 532 1092 q 471 1126 490 1117 q 428 1136 451 1136 q 392 1126 404 1136 q 372 1104 379 1117 q 364 1081 365 1092 q 363 1069 363 1071 l 243 1069 q 252 1117 243 1085 q 282 1183 261 1150 q 337 1242 303 1217 q 419 1267 371 1267 q 476 1256 453 1267 q 520 1233 500 1246 q 560 1210 540 1221 q 604 1200 579 1200 q 642 1210 628 1200 q 665 1233 657 1221 q 674 1257 672 1246 q 676 1269 676 1268 l 796 1269 q 786 1226 796 1258 q 755 1160 776 1194 q 699 1099 733 1125 q 613 1072 664 1072 z "},"Ò":{"ha":1056,"x_min":38,"x_max":1018,"o":"m 526 -8 q 326 35 417 -8 q 172 148 236 78 q 73 308 108 218 q 38 494 38 399 q 74 682 38 592 q 177 841 111 772 q 333 951 243 910 q 531 992 424 992 q 731 949 640 992 q 885 835 821 906 q 983 674 949 764 q 1018 490 1018 583 q 981 303 1018 393 q 879 144 944 213 q 724 33 814 75 q 526 -8 633 -8 m 269 492 q 286 381 269 435 q 335 286 303 328 q 417 219 368 244 q 528 194 465 194 q 642 221 593 194 q 722 290 690 247 q 770 385 754 332 q 786 494 786 439 q 769 605 786 551 q 719 699 753 658 q 638 765 686 740 q 528 789 590 789 q 415 763 463 789 q 334 696 367 738 q 285 601 301 654 q 269 492 269 547 m 339 1272 l 540 1272 l 613 1092 l 472 1053 l 339 1272 z "},"Ó":{"ha":1056,"x_min":38,"x_max":1018,"o":"m 601 1051 l 460 1090 l 532 1271 l 733 1271 l 601 1051 m 526 -8 q 326 35 417 -8 q 172 148 236 78 q 73 308 108 218 q 38 494 38 399 q 74 682 38 592 q 177 841 111 772 q 333 951 243 910 q 531 992 424 992 q 731 949 640 992 q 885 835 821 906 q 983 674 949 764 q 1018 490 1018 583 q 981 303 1018 393 q 879 144 944 213 q 724 33 814 75 q 526 -8 633 -8 m 269 492 q 286 381 269 435 q 335 286 303 328 q 417 219 368 244 q 528 194 465 194 q 642 221 593 194 q 722 290 690 247 q 770 385 754 332 q 786 494 786 439 q 769 605 786 551 q 719 699 753 658 q 638 765 686 740 q 528 789 590 789 q 415 763 463 789 q 334 696 367 738 q 285 601 301 654 q 269 492 269 547 z "},"Ô":{"ha":1056,"x_min":38,"x_max":1018,"o":"m 297 1121 l 450 1271 l 610 1271 l 761 1121 l 647 1071 l 529 1158 l 411 1071 l 297 1121 m 526 -8 q 326 35 417 -8 q 172 148 236 78 q 73 308 108 218 q 38 494 38 399 q 74 682 38 592 q 177 841 111 772 q 333 951 243 910 q 531 992 424 992 q 731 949 640 992 q 885 835 821 906 q 983 674 949 764 q 1018 490 1018 583 q 981 303 1018 393 q 879 144 944 213 q 724 33 814 75 q 526 -8 633 -8 m 269 492 q 286 381 269 435 q 335 286 303 328 q 417 219 368 244 q 528 194 465 194 q 642 221 593 194 q 722 290 690 247 q 770 385 754 332 q 786 494 786 439 q 769 605 786 551 q 719 699 753 658 q 638 765 686 740 q 528 789 590 789 q 415 763 463 789 q 334 696 367 738 q 285 601 301 654 q 269 492 269 547 z "},"Õ":{"ha":1056,"x_min":38,"x_max":1018,"o":"m 526 -8 q 326 35 417 -8 q 172 148 236 78 q 73 308 108 218 q 38 494 38 399 q 74 682 38 592 q 177 841 111 772 q 333 951 243 910 q 531 992 424 992 q 731 949 640 992 q 885 835 821 906 q 983 674 949 764 q 1018 490 1018 583 q 981 303 1018 393 q 879 144 944 213 q 724 33 814 75 q 526 -8 633 -8 m 269 492 q 286 381 269 435 q 335 286 303 328 q 417 219 368 244 q 528 194 465 194 q 642 221 593 194 q 722 290 690 247 q 770 385 754 332 q 786 494 786 439 q 769 605 786 551 q 719 699 753 658 q 638 765 686 740 q 528 789 590 789 q 415 763 463 789 q 334 696 367 738 q 285 601 301 654 q 269 492 269 547 m 622 1074 q 566 1083 590 1074 q 521 1106 542 1093 q 481 1128 500 1118 q 438 1138 461 1138 q 401 1128 414 1138 q 382 1106 389 1118 q 374 1083 375 1093 q 372 1071 372 1072 l 253 1071 q 262 1119 253 1086 q 292 1185 271 1151 q 347 1243 313 1218 q 429 1268 381 1268 q 486 1258 463 1268 q 530 1235 510 1247 q 569 1212 550 1222 q 614 1201 589 1201 q 652 1212 638 1201 q 674 1235 667 1222 q 684 1258 682 1247 q 686 1271 686 1269 l 806 1271 q 796 1228 806 1260 q 765 1161 786 1196 q 708 1100 743 1126 q 622 1074 674 1074 z "},"Ö":{"ha":1056,"x_min":38,"x_max":1018,"o":"m 292 1082 l 292 1261 l 475 1261 l 475 1082 l 292 1082 m 583 1082 l 583 1261 l 767 1261 l 767 1082 l 583 1082 m 526 -8 q 326 35 417 -8 q 172 148 236 78 q 73 308 108 218 q 38 494 38 399 q 74 682 38 592 q 177 841 111 772 q 333 951 243 910 q 531 992 424 992 q 731 949 640 992 q 885 835 821 906 q 983 674 949 764 q 1018 490 1018 583 q 981 303 1018 393 q 879 144 944 213 q 724 33 814 75 q 526 -8 633 -8 m 269 492 q 286 381 269 435 q 335 286 303 328 q 417 219 368 244 q 528 194 465 194 q 642 221 593 194 q 722 290 690 247 q 770 385 754 332 q 786 494 786 439 q 769 605 786 551 q 719 699 753 658 q 638 765 686 740 q 528 789 590 789 q 415 763 463 789 q 334 696 367 738 q 285 601 301 654 q 269 492 269 547 z "},"×":{"ha":672,"x_min":65,"x_max":607,"o":"m 607 251 l 468 114 l 335 246 l 203 114 l 65 251 l 196 383 l 72 510 l 211 647 l 336 522 l 461 647 l 599 510 l 474 385 l 607 251 z "},"Ø":{"ha":1054,"x_min":36,"x_max":1017,"o":"m 1001 986 l 889 828 q 983 669 950 757 q 1017 490 1017 582 q 980 303 1017 393 q 878 144 943 213 q 722 33 813 75 q 525 -8 632 -8 q 325 35 418 -8 l 300 0 l 54 0 l 164 154 q 69 313 101 225 q 36 494 36 401 q 73 682 36 592 q 176 841 110 772 q 332 951 242 910 q 529 992 422 992 q 729 949 636 992 l 756 986 l 1001 986 m 268 492 q 276 415 268 453 q 299 344 283 378 l 606 776 q 568 785 588 782 q 526 789 549 789 q 413 763 461 789 q 333 696 365 738 q 284 601 300 654 q 268 492 268 547 m 785 494 q 777 569 785 532 q 754 639 769 606 l 447 206 q 526 194 485 194 q 640 221 592 194 q 721 290 689 247 q 769 385 753 332 q 785 494 785 439 z "},"Ù":{"ha":1038,"x_min":81,"x_max":956,"o":"m 518 194 q 617 219 576 194 q 682 283 657 243 q 717 376 707 324 q 728 482 728 428 l 728 986 l 956 986 l 956 482 q 930 290 956 379 q 851 135 904 201 q 715 30 797 68 q 518 -8 632 -8 q 317 32 400 -8 q 181 140 233 72 q 105 296 129 207 q 81 482 81 385 l 81 986 l 308 986 l 308 482 q 319 374 308 425 q 356 282 331 322 q 420 218 381 242 q 518 194 460 194 m 322 1272 l 524 1272 l 596 1092 l 456 1053 l 322 1272 z "},"Ú":{"ha":1038,"x_min":81,"x_max":956,"o":"m 582 1051 l 440 1090 l 513 1271 l 714 1271 l 582 1051 m 518 194 q 617 219 576 194 q 682 283 657 243 q 717 376 707 324 q 728 482 728 428 l 728 986 l 956 986 l 956 482 q 930 290 956 379 q 851 135 904 201 q 715 30 797 68 q 518 -8 632 -8 q 317 32 400 -8 q 181 140 233 72 q 105 296 129 207 q 81 482 81 385 l 81 986 l 308 986 l 308 482 q 319 374 308 425 q 356 282 331 322 q 420 218 381 242 q 518 194 460 194 z "},"Û":{"ha":1038,"x_min":81,"x_max":956,"o":"m 286 1121 l 439 1271 l 599 1271 l 750 1121 l 636 1071 l 518 1158 l 400 1071 l 286 1121 m 518 194 q 617 219 576 194 q 682 283 657 243 q 717 376 707 324 q 728 482 728 428 l 728 986 l 956 986 l 956 482 q 930 290 956 379 q 851 135 904 201 q 715 30 797 68 q 518 -8 632 -8 q 317 32 400 -8 q 181 140 233 72 q 105 296 129 207 q 81 482 81 385 l 81 986 l 308 986 l 308 482 q 319 374 308 425 q 356 282 331 322 q 420 218 381 242 q 518 194 460 194 z "},"Ü":{"ha":1038,"x_min":81,"x_max":956,"o":"m 281 1082 l 281 1261 l 464 1261 l 464 1082 l 281 1082 m 572 1082 l 572 1261 l 756 1261 l 756 1082 l 572 1082 m 518 194 q 617 219 576 194 q 682 283 657 243 q 717 376 707 324 q 728 482 728 428 l 728 986 l 956 986 l 956 482 q 930 290 956 379 q 851 135 904 201 q 715 30 797 68 q 518 -8 632 -8 q 317 32 400 -8 q 181 140 233 72 q 105 296 129 207 q 81 482 81 385 l 81 986 l 308 986 l 308 482 q 319 374 308 425 q 356 282 331 322 q 420 218 381 242 q 518 194 460 194 z "},"Ý":{"ha":921,"x_min":0,"x_max":924,"o":"m 247 986 l 460 533 l 675 986 l 924 986 l 572 336 l 572 0 l 346 0 l 346 339 l 0 986 l 247 986 m 522 1051 l 381 1090 l 453 1271 l 654 1271 l 522 1051 z "},"Þ":{"ha":840,"x_min":94,"x_max":815,"o":"m 493 814 q 623 785 564 814 q 724 709 682 756 q 791 603 767 663 q 815 482 815 543 q 792 356 815 417 q 728 249 769 296 q 630 175 688 203 q 501 147 572 147 l 322 147 l 322 0 l 94 0 l 94 986 l 322 986 l 322 814 l 493 814 m 489 347 q 559 385 531 347 q 588 482 588 424 q 555 579 588 543 q 482 615 522 615 l 322 615 l 322 347 l 489 347 z "},"ß":{"ha":778,"x_min":76,"x_max":744,"o":"m 347 196 q 465 226 418 196 q 511 321 511 257 q 499 374 511 351 q 469 413 488 397 q 427 435 450 428 q 382 443 404 443 l 351 443 l 351 642 l 381 642 q 442 664 421 642 q 463 722 463 686 q 453 765 463 749 q 429 790 443 781 q 401 801 415 799 q 376 804 386 804 q 331 792 349 804 q 304 763 314 781 q 291 726 294 746 q 288 690 288 706 l 288 0 l 76 0 l 76 729 q 101 834 76 786 q 168 917 125 882 q 269 972 211 953 q 396 992 328 992 q 506 976 456 992 q 594 931 557 960 q 653 858 632 901 q 674 761 674 815 q 665 693 674 725 q 640 635 656 661 q 605 589 625 608 q 563 560 585 569 q 696 463 647 532 q 744 294 744 394 q 710 152 744 210 q 620 59 676 94 q 493 8 564 24 q 347 -8 422 -8 l 347 196 z "},"à":{"ha":814,"x_min":31,"x_max":776,"o":"m 283 -14 q 183 3 229 -14 q 103 52 136 21 q 50 126 69 83 q 31 218 31 168 q 53 317 31 272 q 118 393 76 361 q 217 443 160 425 q 343 461 274 461 q 432 453 389 461 q 507 431 475 446 l 507 464 q 361 590 507 590 q 247 570 301 590 q 133 510 193 550 l 68 649 q 218 719 140 696 q 383 743 296 743 q 639 665 549 743 q 729 438 729 588 l 729 250 q 740 203 729 217 q 776 188 750 190 l 776 0 q 724 -9 747 -7 q 681 -11 700 -11 q 586 13 618 -11 q 546 82 554 38 l 542 115 q 426 19 493 53 q 283 -14 358 -14 m 349 146 q 419 158 385 146 q 475 192 453 171 q 507 244 507 217 l 507 314 q 444 331 478 325 q 381 338 410 338 q 280 310 319 338 q 240 238 240 282 q 271 172 240 197 q 349 146 301 146 m 188 1015 l 389 1015 l 461 835 l 321 796 l 188 1015 z "},"á":{"ha":814,"x_min":31,"x_max":776,"o":"m 283 -14 q 183 3 229 -14 q 103 52 136 21 q 50 126 69 83 q 31 218 31 168 q 53 317 31 272 q 118 393 76 361 q 217 443 160 425 q 343 461 274 461 q 432 453 389 461 q 507 431 475 446 l 507 464 q 361 590 507 590 q 247 570 301 590 q 133 510 193 550 l 68 649 q 218 719 140 696 q 383 743 296 743 q 639 665 549 743 q 729 438 729 588 l 729 250 q 740 203 729 217 q 776 188 750 190 l 776 0 q 724 -9 747 -7 q 681 -11 700 -11 q 586 13 618 -11 q 546 82 554 38 l 542 115 q 426 19 493 53 q 283 -14 358 -14 m 349 146 q 419 158 385 146 q 475 192 453 171 q 507 244 507 217 l 507 314 q 444 331 478 325 q 381 338 410 338 q 280 310 319 338 q 240 238 240 282 q 271 172 240 197 q 349 146 301 146 m 447 794 l 306 833 l 378 1014 l 579 1014 l 447 794 z "},"â":{"ha":814,"x_min":31,"x_max":776,"o":"m 283 -14 q 183 3 229 -14 q 103 52 136 21 q 50 126 69 83 q 31 218 31 168 q 53 317 31 272 q 118 393 76 361 q 217 443 160 425 q 343 461 274 461 q 432 453 389 461 q 507 431 475 446 l 507 464 q 361 590 507 590 q 247 570 301 590 q 133 510 193 550 l 68 649 q 218 719 140 696 q 383 743 296 743 q 639 665 549 743 q 729 438 729 588 l 729 250 q 740 203 729 217 q 776 188 750 190 l 776 0 q 724 -9 747 -7 q 681 -11 700 -11 q 586 13 618 -11 q 546 82 554 38 l 542 115 q 426 19 493 53 q 283 -14 358 -14 m 349 146 q 419 158 385 146 q 475 192 453 171 q 507 244 507 217 l 507 314 q 444 331 478 325 q 381 338 410 338 q 280 310 319 338 q 240 238 240 282 q 271 172 240 197 q 349 146 301 146 m 151 864 l 304 1014 l 464 1014 l 615 864 l 501 814 l 383 901 l 265 814 l 151 864 z "},"ã":{"ha":814,"x_min":31,"x_max":776,"o":"m 283 -14 q 183 3 229 -14 q 103 52 136 21 q 50 126 69 83 q 31 218 31 168 q 53 317 31 272 q 118 393 76 361 q 217 443 160 425 q 343 461 274 461 q 432 453 389 461 q 507 431 475 446 l 507 464 q 361 590 507 590 q 247 570 301 590 q 133 510 193 550 l 68 649 q 218 719 140 696 q 383 743 296 743 q 639 665 549 743 q 729 438 729 588 l 729 250 q 740 203 729 217 q 776 188 750 190 l 776 0 q 724 -9 747 -7 q 681 -11 700 -11 q 586 13 618 -11 q 546 82 554 38 l 542 115 q 426 19 493 53 q 283 -14 358 -14 m 349 146 q 419 158 385 146 q 475 192 453 171 q 507 244 507 217 l 507 314 q 444 331 478 325 q 381 338 410 338 q 280 310 319 338 q 240 238 240 282 q 271 172 240 197 q 349 146 301 146 m 471 817 q 415 826 439 817 q 369 849 390 836 q 329 871 349 861 q 286 881 310 881 q 250 871 263 881 q 231 849 238 861 q 222 826 224 836 q 221 814 221 815 l 101 814 q 110 862 101 829 q 140 928 119 894 q 195 986 161 961 q 278 1011 229 1011 q 335 1001 311 1011 q 378 978 358 990 q 418 955 399 965 q 463 944 438 944 q 501 955 486 944 q 523 978 515 965 q 533 1001 531 990 q 535 1014 535 1013 l 654 1014 q 644 971 654 1003 q 613 904 635 939 q 557 843 592 869 q 471 817 522 817 z "},"ä":{"ha":814,"x_min":31,"x_max":776,"o":"m 283 -14 q 183 3 229 -14 q 103 52 136 21 q 50 126 69 83 q 31 218 31 168 q 53 317 31 272 q 118 393 76 361 q 217 443 160 425 q 343 461 274 461 q 432 453 389 461 q 507 431 475 446 l 507 464 q 361 590 507 590 q 247 570 301 590 q 133 510 193 550 l 68 649 q 218 719 140 696 q 383 743 296 743 q 639 665 549 743 q 729 438 729 588 l 729 250 q 740 203 729 217 q 776 188 750 190 l 776 0 q 724 -9 747 -7 q 681 -11 700 -11 q 586 13 618 -11 q 546 82 554 38 l 542 115 q 426 19 493 53 q 283 -14 358 -14 m 349 146 q 419 158 385 146 q 475 192 453 171 q 507 244 507 217 l 507 314 q 444 331 478 325 q 381 338 410 338 q 280 310 319 338 q 240 238 240 282 q 271 172 240 197 q 349 146 301 146 m 146 825 l 146 1004 l 329 1004 l 329 825 l 146 825 m 438 825 l 438 1004 l 621 1004 l 621 825 l 438 825 z "},"å":{"ha":814,"x_min":31,"x_max":776,"o":"m 283 -14 q 183 3 229 -14 q 103 52 136 21 q 50 126 69 83 q 31 218 31 168 q 53 317 31 272 q 118 393 76 361 q 217 443 160 425 q 343 461 274 461 q 432 453 389 461 q 507 431 475 446 l 507 464 q 361 590 507 590 q 247 570 301 590 q 133 510 193 550 l 68 649 q 218 719 140 696 q 383 743 296 743 q 639 665 549 743 q 729 438 729 588 l 729 250 q 740 203 729 217 q 776 188 750 190 l 776 0 q 724 -9 747 -7 q 681 -11 700 -11 q 586 13 618 -11 q 546 82 554 38 l 542 115 q 426 19 493 53 q 283 -14 358 -14 m 349 146 q 419 158 385 146 q 475 192 453 171 q 507 244 507 217 l 507 314 q 444 331 478 325 q 381 338 410 338 q 280 310 319 338 q 240 238 240 282 q 271 172 240 197 q 349 146 301 146 m 235 900 q 276 985 235 957 q 383 1014 317 1014 q 490 985 450 1014 q 531 900 531 957 q 490 816 531 844 q 383 788 450 788 q 276 816 317 788 q 235 900 235 844 m 383 949 q 344 935 360 949 q 328 901 328 922 q 344 867 328 881 q 383 853 360 853 q 422 866 406 853 q 439 901 439 879 q 423 935 439 922 q 383 949 407 949 z "},"æ":{"ha":1304,"x_min":31,"x_max":1281,"o":"m 282 -14 q 182 3 228 -14 q 103 52 136 21 q 50 126 69 83 q 31 218 31 168 q 53 317 31 272 q 118 393 76 361 q 217 443 160 425 q 343 461 274 461 q 428 453 388 461 q 500 433 468 446 q 501 455 500 440 q 506 475 503 469 q 467 562 501 533 q 361 590 432 590 q 247 570 301 590 q 133 510 193 550 l 68 649 q 218 719 140 696 q 383 743 296 743 q 531 720 467 743 q 638 654 594 697 q 747 719 685 694 q 889 743 810 743 q 1055 713 982 743 q 1178 630 1128 682 q 1254 509 1228 578 q 1281 364 1281 440 q 1278 328 1281 347 q 1274 296 1276 310 l 732 296 q 749 231 735 260 q 787 184 764 203 q 838 156 810 165 q 897 146 867 146 q 992 169 947 146 q 1051 233 1036 193 l 1240 181 q 1108 40 1199 94 q 890 -14 1017 -14 q 703 26 783 -14 q 574 132 622 65 q 513 65 547 93 q 439 20 478 38 q 360 -6 400 3 q 282 -14 319 -14 m 347 146 q 417 158 383 146 q 475 192 451 171 q 507 243 507 217 q 504 256 506 246 q 502 279 503 267 q 501 302 501 292 q 500 317 500 313 q 440 332 472 326 q 381 338 408 338 q 280 310 319 338 q 240 238 240 282 q 271 172 240 197 q 347 146 301 146 m 1046 431 q 996 542 1039 500 q 886 583 953 583 q 777 542 819 583 q 728 431 735 500 l 1046 431 z "},"ç":{"ha":792,"x_min":33,"x_max":768,"o":"m 313 -176 q 364 -195 328 -186 q 438 -204 400 -204 q 493 -194 471 -204 q 515 -160 515 -185 q 494 -126 515 -136 q 440 -115 474 -115 q 378 -121 411 -115 q 331 -131 346 -126 l 389 -12 q 240 26 306 -7 q 128 111 174 60 q 58 228 82 163 q 33 365 33 293 q 60 509 33 440 q 136 630 86 578 q 259 713 186 682 q 425 743 332 743 q 638 690 551 743 q 767 550 724 636 l 550 485 q 424 554 507 554 q 308 503 354 554 q 261 365 261 451 q 274 287 261 322 q 308 226 286 251 q 360 188 331 201 q 424 174 390 174 q 500 194 465 174 q 551 246 535 214 l 768 179 q 658 52 732 104 q 478 -11 583 0 l 450 -53 q 492 -49 468 -49 q 579 -73 542 -49 q 617 -151 617 -97 q 569 -245 617 -207 q 422 -283 522 -283 q 336 -274 374 -283 q 271 -254 299 -265 l 313 -176 z "},"è":{"ha":839,"x_min":33,"x_max":814,"o":"m 425 -14 q 260 16 333 -14 q 137 97 188 46 q 60 216 86 149 q 33 357 33 283 q 60 506 33 436 q 136 629 86 576 q 259 713 186 682 q 425 743 332 743 q 590 713 518 743 q 713 630 663 682 q 788 510 763 578 q 814 367 814 442 q 813 328 814 347 q 808 296 811 310 l 269 296 q 323 184 275 222 q 432 146 371 146 q 526 169 481 146 q 586 233 571 193 l 775 181 q 642 40 732 94 q 425 -14 551 -14 m 579 433 q 529 543 572 503 q 422 583 486 583 q 315 542 357 583 q 265 433 272 501 l 579 433 m 226 1015 l 428 1015 l 500 835 l 360 796 l 226 1015 z "},"é":{"ha":839,"x_min":33,"x_max":814,"o":"m 486 794 l 344 833 l 417 1014 l 618 1014 l 486 794 m 425 -14 q 260 16 333 -14 q 137 97 188 46 q 60 216 86 149 q 33 357 33 283 q 60 506 33 436 q 136 629 86 576 q 259 713 186 682 q 425 743 332 743 q 590 713 518 743 q 713 630 663 682 q 788 510 763 578 q 814 367 814 442 q 813 328 814 347 q 808 296 811 310 l 269 296 q 323 184 275 222 q 432 146 371 146 q 526 169 481 146 q 586 233 571 193 l 775 181 q 642 40 732 94 q 425 -14 551 -14 m 579 433 q 529 543 572 503 q 422 583 486 583 q 315 542 357 583 q 265 433 272 501 l 579 433 z "},"ê":{"ha":839,"x_min":33,"x_max":814,"o":"m 190 864 l 343 1014 l 503 1014 l 654 864 l 540 814 l 422 901 l 304 814 l 190 864 m 425 -14 q 260 16 333 -14 q 137 97 188 46 q 60 216 86 149 q 33 357 33 283 q 60 506 33 436 q 136 629 86 576 q 259 713 186 682 q 425 743 332 743 q 590 713 518 743 q 713 630 663 682 q 788 510 763 578 q 814 367 814 442 q 813 328 814 347 q 808 296 811 310 l 269 296 q 323 184 275 222 q 432 146 371 146 q 526 169 481 146 q 586 233 571 193 l 775 181 q 642 40 732 94 q 425 -14 551 -14 m 579 433 q 529 543 572 503 q 422 583 486 583 q 315 542 357 583 q 265 433 272 501 l 579 433 z "},"ë":{"ha":839,"x_min":33,"x_max":814,"o":"m 186 825 l 186 1004 l 369 1004 l 369 825 l 186 825 m 478 825 l 478 1004 l 661 1004 l 661 825 l 478 825 m 425 -14 q 260 16 333 -14 q 137 97 188 46 q 60 216 86 149 q 33 357 33 283 q 60 506 33 436 q 136 629 86 576 q 259 713 186 682 q 425 743 332 743 q 590 713 518 743 q 713 630 663 682 q 788 510 763 578 q 814 367 814 442 q 813 328 814 347 q 808 296 811 310 l 269 296 q 323 184 275 222 q 432 146 371 146 q 526 169 481 146 q 586 233 571 193 l 775 181 q 642 40 732 94 q 425 -14 551 -14 m 579 433 q 529 543 572 503 q 422 583 486 583 q 315 542 357 583 q 265 433 272 501 l 579 433 z "},"ì":{"ha":375,"x_min":-10,"x_max":299,"o":"m 76 0 l 76 729 l 299 729 l 299 0 l 76 0 m -10 1015 l 192 1015 l 264 835 l 124 796 l -10 1015 z "},"ı":{"ha":375,"x_min":76,"x_max":299,"o":"m 76 0 l 76 729 l 299 729 l 299 0 l 76 0 z "},"í":{"ha":375,"x_min":76,"x_max":382,"o":"m 250 794 l 108 833 l 181 1014 l 382 1014 l 250 794 m 76 0 l 76 729 l 299 729 l 299 0 l 76 0 z "},"î":{"ha":375,"x_min":-44,"x_max":419,"o":"m -44 864 l 108 1014 l 268 1014 l 419 864 l 306 814 l 188 901 l 69 814 l -44 864 m 76 0 l 76 729 l 299 729 l 299 0 l 76 0 z "},"ï":{"ha":375,"x_min":-50,"x_max":425,"o":"m -50 825 l -50 1004 l 133 1004 l 133 825 l -50 825 m 242 825 l 242 1004 l 425 1004 l 425 825 l 242 825 m 76 0 l 76 729 l 299 729 l 299 0 l 76 0 z "},"ð":{"ha":857,"x_min":38,"x_max":818,"o":"m 746 904 l 654 856 q 776 641 733 760 q 818 404 818 522 q 790 228 818 306 q 710 97 761 151 q 585 15 658 43 q 425 -14 513 -14 q 270 12 342 -14 q 147 83 199 38 q 67 190 96 128 q 38 325 38 251 q 63 453 38 393 q 134 559 89 514 q 240 630 179 604 q 371 656 300 656 q 493 631 436 656 q 589 567 550 607 q 485 781 561 683 l 367 717 l 304 801 l 411 858 q 178 1014 318 940 l 454 1014 q 579 932 521 982 l 685 989 l 746 904 m 265 325 q 310 216 265 258 q 426 174 356 174 q 544 217 499 174 q 589 328 589 261 q 544 436 589 394 q 428 478 499 478 q 311 435 357 478 q 265 325 265 392 z "},"ñ":{"ha":850,"x_min":76,"x_max":779,"o":"m 779 0 l 557 0 l 557 410 q 530 515 557 482 q 458 547 503 547 q 411 538 435 547 q 365 510 388 528 q 326 469 343 493 q 299 418 308 446 l 299 0 l 76 0 l 76 729 l 276 729 l 276 607 q 390 708 317 672 q 560 743 464 743 q 674 717 631 743 q 740 651 717 692 q 772 561 764 610 q 779 467 779 513 l 779 0 m 539 817 q 483 826 507 817 q 438 849 458 836 q 397 871 417 861 q 354 881 378 881 q 318 871 331 881 q 299 849 306 861 q 290 826 292 836 q 289 814 289 815 l 169 814 q 178 862 169 829 q 208 928 188 894 q 263 986 229 961 q 346 1011 297 1011 q 403 1001 379 1011 q 447 978 426 990 q 486 955 467 965 q 531 944 506 944 q 569 955 554 944 q 591 978 583 965 q 601 1001 599 990 q 603 1014 603 1013 l 722 1014 q 713 971 722 1003 q 681 904 703 939 q 625 843 660 869 q 539 817 590 817 z "},"ò":{"ha":847,"x_min":33,"x_max":814,"o":"m 424 -14 q 258 17 331 -14 q 135 99 185 47 q 59 220 85 151 q 33 364 33 289 q 59 508 33 439 q 135 628 85 576 q 258 712 185 681 q 424 743 331 743 q 589 712 517 743 q 711 628 661 681 q 788 508 761 576 q 814 364 814 439 q 788 220 814 289 q 713 99 763 151 q 590 17 663 47 q 424 -14 517 -14 m 261 364 q 307 226 261 278 q 424 174 353 174 q 488 188 458 174 q 538 226 517 201 q 572 287 560 251 q 585 364 585 322 q 539 502 585 450 q 424 554 493 554 q 359 540 389 554 q 308 501 329 526 q 274 441 286 476 q 261 364 261 406 m 228 1015 l 429 1015 l 501 835 l 361 796 l 228 1015 z "},"ó":{"ha":847,"x_min":33,"x_max":814,"o":"m 486 794 l 344 833 l 417 1014 l 618 1014 l 486 794 m 424 -14 q 258 17 331 -14 q 135 99 185 47 q 59 220 85 151 q 33 364 33 289 q 59 508 33 439 q 135 628 85 576 q 258 712 185 681 q 424 743 331 743 q 589 712 517 743 q 711 628 661 681 q 788 508 761 576 q 814 364 814 439 q 788 220 814 289 q 713 99 763 151 q 590 17 663 47 q 424 -14 517 -14 m 261 364 q 307 226 261 278 q 424 174 353 174 q 488 188 458 174 q 538 226 517 201 q 572 287 560 251 q 585 364 585 322 q 539 502 585 450 q 424 554 493 554 q 359 540 389 554 q 308 501 329 526 q 274 441 286 476 q 261 364 261 406 z "},"ô":{"ha":847,"x_min":33,"x_max":814,"o":"m 190 864 l 343 1014 l 503 1014 l 654 864 l 540 814 l 422 901 l 304 814 l 190 864 m 424 -14 q 258 17 331 -14 q 135 99 185 47 q 59 220 85 151 q 33 364 33 289 q 59 508 33 439 q 135 628 85 576 q 258 712 185 681 q 424 743 331 743 q 589 712 517 743 q 711 628 661 681 q 788 508 761 576 q 814 364 814 439 q 788 220 814 289 q 713 99 763 151 q 590 17 663 47 q 424 -14 517 -14 m 261 364 q 307 226 261 278 q 424 174 353 174 q 488 188 458 174 q 538 226 517 201 q 572 287 560 251 q 585 364 585 322 q 539 502 585 450 q 424 554 493 554 q 359 540 389 554 q 308 501 329 526 q 274 441 286 476 q 261 364 261 406 z "},"õ":{"ha":847,"x_min":33,"x_max":814,"o":"m 424 -14 q 258 17 331 -14 q 135 99 185 47 q 59 220 85 151 q 33 364 33 289 q 59 508 33 439 q 135 628 85 576 q 258 712 185 681 q 424 743 331 743 q 589 712 517 743 q 711 628 661 681 q 788 508 761 576 q 814 364 814 439 q 788 220 814 289 q 713 99 763 151 q 590 17 663 47 q 424 -14 517 -14 m 261 364 q 307 226 261 278 q 424 174 353 174 q 488 188 458 174 q 538 226 517 201 q 572 287 560 251 q 585 364 585 322 q 539 502 585 450 q 424 554 493 554 q 359 540 389 554 q 308 501 329 526 q 274 441 286 476 q 261 364 261 406 m 511 817 q 455 826 479 817 q 410 849 431 836 q 369 871 389 861 q 326 881 350 881 q 290 871 303 881 q 271 849 278 861 q 263 826 264 836 q 261 814 261 815 l 142 814 q 151 862 142 829 q 181 928 160 894 q 235 986 201 961 q 318 1011 269 1011 q 375 1001 351 1011 q 419 978 399 990 q 458 955 439 965 q 503 944 478 944 q 541 955 526 944 q 563 978 556 965 q 573 1001 571 990 q 575 1014 575 1013 l 694 1014 q 685 971 694 1003 q 653 904 675 939 q 597 843 632 869 q 511 817 563 817 z "},"ö":{"ha":847,"x_min":33,"x_max":814,"o":"m 186 825 l 186 1004 l 369 1004 l 369 825 l 186 825 m 478 825 l 478 1004 l 661 1004 l 661 825 l 478 825 m 424 -14 q 258 17 331 -14 q 135 99 185 47 q 59 220 85 151 q 33 364 33 289 q 59 508 33 439 q 135 628 85 576 q 258 712 185 681 q 424 743 331 743 q 589 712 517 743 q 711 628 661 681 q 788 508 761 576 q 814 364 814 439 q 788 220 814 289 q 713 99 763 151 q 590 17 663 47 q 424 -14 517 -14 m 261 364 q 307 226 261 278 q 424 174 353 174 q 488 188 458 174 q 538 226 517 201 q 572 287 560 251 q 585 364 585 322 q 539 502 585 450 q 424 554 493 554 q 359 540 389 554 q 308 501 329 526 q 274 441 286 476 q 261 364 261 406 z "},"÷":{"ha":693,"x_min":67,"x_max":628,"o":"m 254 592 l 254 790 l 440 790 l 440 592 l 254 592 m 254 53 l 254 251 l 440 251 l 440 53 l 254 53 m 67 333 l 67 510 l 628 510 l 628 333 l 67 333 z "},"ø":{"ha":847,"x_min":33,"x_max":814,"o":"m 46 -7 l 136 97 q 60 219 86 150 q 33 364 33 288 q 59 508 33 439 q 135 628 85 576 q 258 712 185 681 q 424 743 331 743 q 536 729 485 743 q 631 692 588 715 l 668 736 l 790 736 l 704 636 q 785 513 757 583 q 814 364 814 443 q 788 220 814 289 q 713 99 763 151 q 590 17 663 47 q 424 -14 517 -14 q 208 42 299 -14 l 167 -7 l 46 -7 m 424 174 q 488 188 458 174 q 538 226 517 201 q 572 287 560 251 q 585 364 585 322 q 558 471 585 425 l 338 199 q 424 174 372 174 m 261 364 q 283 261 261 304 l 503 532 q 424 554 465 554 q 359 540 389 554 q 308 501 329 526 q 274 441 286 476 q 261 364 261 406 z "},"ù":{"ha":871,"x_min":69,"x_max":822,"o":"m 297 -14 q 127 56 185 -14 q 69 263 69 126 l 69 729 l 292 729 l 292 311 q 318 209 292 244 q 393 174 344 174 q 479 197 438 174 q 553 279 521 221 l 553 729 l 775 729 l 775 250 q 785 203 775 217 q 822 188 796 190 l 822 0 q 768 -9 790 -7 q 728 -11 746 -11 q 592 82 608 -11 l 588 126 q 463 20 538 54 q 297 -14 389 -14 m 226 1015 l 428 1015 l 500 835 l 360 796 l 226 1015 z "},"ú":{"ha":871,"x_min":69,"x_max":822,"o":"m 486 794 l 344 833 l 417 1014 l 618 1014 l 486 794 m 297 -14 q 127 56 185 -14 q 69 263 69 126 l 69 729 l 292 729 l 292 311 q 318 209 292 244 q 393 174 344 174 q 479 197 438 174 q 553 279 521 221 l 553 729 l 775 729 l 775 250 q 785 203 775 217 q 822 188 796 190 l 822 0 q 768 -9 790 -7 q 728 -11 746 -11 q 592 82 608 -11 l 588 126 q 463 20 538 54 q 297 -14 389 -14 z "},"û":{"ha":871,"x_min":69,"x_max":822,"o":"m 190 864 l 343 1014 l 503 1014 l 654 864 l 540 814 l 422 901 l 304 814 l 190 864 m 297 -14 q 127 56 185 -14 q 69 263 69 126 l 69 729 l 292 729 l 292 311 q 318 209 292 244 q 393 174 344 174 q 479 197 438 174 q 553 279 521 221 l 553 729 l 775 729 l 775 250 q 785 203 775 217 q 822 188 796 190 l 822 0 q 768 -9 790 -7 q 728 -11 746 -11 q 592 82 608 -11 l 588 126 q 463 20 538 54 q 297 -14 389 -14 z "},"ü":{"ha":871,"x_min":69,"x_max":822,"o":"m 185 825 l 185 1004 l 368 1004 l 368 825 l 185 825 m 476 825 l 476 1004 l 660 1004 l 660 825 l 476 825 m 297 -14 q 127 56 185 -14 q 69 263 69 126 l 69 729 l 292 729 l 292 311 q 318 209 292 244 q 393 174 344 174 q 479 197 438 174 q 553 279 521 221 l 553 729 l 775 729 l 775 250 q 785 203 775 217 q 822 188 796 190 l 822 0 q 768 -9 790 -7 q 728 -11 746 -11 q 592 82 608 -11 l 588 126 q 463 20 538 54 q 297 -14 389 -14 z "},"ý":{"ha":767,"x_min":3,"x_max":756,"o":"m 82 -110 q 134 -124 110 -119 q 178 -128 158 -128 q 240 -100 218 -128 q 281 0 263 -72 l 3 729 l 232 729 l 401 190 l 547 729 l 756 729 l 478 -118 q 374 -265 449 -208 q 196 -321 299 -321 q 140 -316 168 -321 q 82 -300 111 -311 l 82 -110 m 465 794 l 324 833 l 396 1014 l 597 1014 l 465 794 z "},"þ":{"ha":833,"x_min":76,"x_max":801,"o":"m 801 356 q 772 206 801 278 q 692 81 743 135 q 574 -6 642 26 q 432 -37 507 -37 q 342 -20 374 -37 q 304 11 311 -3 l 304 -296 l 76 -296 l 76 986 l 304 986 l 304 699 q 346 732 314 713 q 443 751 378 751 q 592 716 525 751 q 705 624 658 681 q 776 497 751 568 q 801 356 801 426 m 574 360 q 564 434 574 399 q 535 496 554 469 q 490 538 517 522 q 429 553 464 553 q 355 527 385 553 q 304 461 325 501 l 304 246 q 315 218 304 233 q 342 190 325 203 q 381 169 360 178 q 425 161 403 161 q 484 176 457 161 q 531 218 511 192 q 563 281 551 244 q 574 360 574 318 z "},"ÿ":{"ha":767,"x_min":3,"x_max":756,"o":"m 82 -110 q 134 -124 110 -119 q 178 -128 158 -128 q 240 -100 218 -128 q 281 0 263 -72 l 3 729 l 232 729 l 401 190 l 547 729 l 756 729 l 478 -118 q 374 -265 449 -208 q 196 -321 299 -321 q 140 -316 168 -321 q 82 -300 111 -311 l 82 -110 m 165 825 l 165 1004 l 349 1004 l 349 825 l 165 825 m 457 825 l 457 1004 l 640 1004 l 640 825 l 457 825 z "},"Ā":{"ha":931,"x_min":3,"x_max":928,"o":"m 363 986 l 568 986 l 928 0 l 694 0 l 618 221 l 311 221 l 236 0 l 3 0 l 363 986 m 581 378 l 465 726 l 347 378 l 581 378 m 256 1119 l 256 1254 l 678 1254 l 678 1119 l 256 1119 z "},"ā":{"ha":814,"x_min":31,"x_max":776,"o":"m 283 -14 q 183 3 229 -14 q 103 52 136 21 q 50 126 69 83 q 31 218 31 168 q 53 317 31 272 q 118 393 76 361 q 217 443 160 425 q 343 461 274 461 q 432 453 389 461 q 507 431 475 446 l 507 464 q 361 590 507 590 q 247 570 301 590 q 133 510 193 550 l 68 649 q 218 719 140 696 q 383 743 296 743 q 639 665 549 743 q 729 438 729 588 l 729 250 q 740 203 729 217 q 776 188 750 190 l 776 0 q 724 -9 747 -7 q 681 -11 700 -11 q 586 13 618 -11 q 546 82 554 38 l 542 115 q 426 19 493 53 q 283 -14 358 -14 m 349 146 q 419 158 385 146 q 475 192 453 171 q 507 244 507 217 l 507 314 q 444 331 478 325 q 381 338 410 338 q 280 310 319 338 q 240 238 240 282 q 271 172 240 197 q 349 146 301 146 m 174 863 l 174 997 l 596 997 l 596 863 l 174 863 z "},"Ă":{"ha":931,"x_min":3,"x_max":928,"o":"m 363 986 l 568 986 l 928 0 l 694 0 l 618 221 l 311 221 l 236 0 l 3 0 l 363 986 m 581 378 l 465 726 l 347 378 l 581 378 m 465 1164 q 522 1194 497 1164 q 550 1271 546 1224 l 665 1271 q 651 1189 665 1226 q 610 1124 636 1151 q 547 1082 583 1097 q 465 1067 510 1067 q 385 1082 421 1067 q 322 1124 349 1097 q 280 1189 294 1151 q 265 1271 265 1226 l 383 1271 q 408 1195 383 1226 q 465 1164 432 1164 z "},"˘":{"ha":482,"x_min":40,"x_max":440,"o":"m 240 907 q 297 937 272 907 q 325 1014 321 967 l 440 1014 q 426 932 440 969 q 385 867 411 894 q 322 825 358 840 q 240 810 285 810 q 160 825 196 810 q 97 867 124 840 q 55 932 69 894 q 40 1014 40 969 l 158 1014 q 183 938 158 969 q 240 907 207 907 z "},"ă":{"ha":814,"x_min":31,"x_max":776,"o":"m 283 -14 q 183 3 229 -14 q 103 52 136 21 q 50 126 69 83 q 31 218 31 168 q 53 317 31 272 q 118 393 76 361 q 217 443 160 425 q 343 461 274 461 q 432 453 389 461 q 507 431 475 446 l 507 464 q 361 590 507 590 q 247 570 301 590 q 133 510 193 550 l 68 649 q 218 719 140 696 q 383 743 296 743 q 639 665 549 743 q 729 438 729 588 l 729 250 q 740 203 729 217 q 776 188 750 190 l 776 0 q 724 -9 747 -7 q 681 -11 700 -11 q 586 13 618 -11 q 546 82 554 38 l 542 115 q 426 19 493 53 q 283 -14 358 -14 m 349 146 q 419 158 385 146 q 475 192 453 171 q 507 244 507 217 l 507 314 q 444 331 478 325 q 381 338 410 338 q 280 310 319 338 q 240 238 240 282 q 271 172 240 197 q 349 146 301 146 m 382 907 q 438 937 414 907 q 467 1014 463 967 l 582 1014 q 567 932 582 969 q 526 867 553 894 q 463 825 500 840 q 382 810 426 810 q 301 825 338 810 q 238 867 265 840 q 197 932 211 894 q 182 1014 182 969 l 300 1014 q 324 938 300 969 q 382 907 349 907 z "},"Ą":{"ha":943,"x_min":3,"x_max":928,"o":"m 871 -285 q 733 -237 778 -274 q 688 -156 688 -201 q 717 -76 688 -115 q 804 0 746 -36 l 694 0 l 618 221 l 311 221 l 236 0 l 3 0 l 363 986 l 568 986 l 928 0 q 824 -114 824 -62 q 846 -152 824 -137 q 914 -168 868 -167 l 871 -285 m 581 378 l 465 726 l 347 378 l 581 378 z "},"˛":{"ha":429,"x_min":96,"x_max":336,"o":"m 279 -283 q 141 -236 186 -272 q 96 -154 96 -200 q 140 -57 96 -106 q 271 32 183 -8 l 336 1 q 232 -112 232 -61 q 254 -151 232 -136 q 322 -167 276 -165 l 279 -283 l 279 -283 z "},"ą":{"ha":814,"x_min":31,"x_max":776,"o":"m 719 -285 q 581 -237 626 -274 q 536 -156 536 -201 q 640 -8 536 -78 q 546 82 558 6 l 542 115 q 426 19 493 53 q 283 -14 358 -14 q 183 3 229 -14 q 103 52 136 21 q 50 126 69 83 q 31 218 31 168 q 53 317 31 272 q 118 393 76 361 q 217 443 160 425 q 343 461 274 461 q 432 453 389 461 q 507 431 475 446 l 507 464 q 361 590 507 590 q 247 570 301 590 q 133 510 193 550 l 68 649 q 218 719 140 696 q 383 743 296 743 q 639 665 549 743 q 729 438 729 588 l 729 250 q 740 203 729 217 q 776 188 750 190 l 776 0 q 672 -114 672 -62 q 694 -152 672 -137 q 763 -168 717 -167 l 719 -285 m 349 146 q 419 158 385 146 q 475 192 453 171 q 507 244 507 217 l 507 314 q 444 331 478 325 q 381 338 410 338 q 280 310 319 338 q 240 238 240 282 q 271 172 240 197 q 349 146 301 146 z "},"Ć":{"ha":956,"x_min":38,"x_max":936,"o":"m 600 1051 l 458 1090 l 531 1271 l 732 1271 l 600 1051 m 38 501 q 71 678 38 590 q 168 836 104 767 q 324 949 232 906 q 532 992 415 992 q 773 932 671 992 q 925 776 875 872 l 750 654 q 708 719 733 693 q 651 760 682 744 q 589 783 621 776 q 526 789 557 789 q 413 763 461 789 q 332 694 364 736 q 285 600 300 653 q 269 493 269 547 q 288 381 269 435 q 340 285 306 326 q 422 219 374 243 q 529 194 469 194 q 592 202 560 194 q 655 226 625 210 q 710 267 685 242 q 750 331 735 293 l 936 221 q 870 124 914 167 q 769 51 826 81 q 649 7 713 22 q 524 -8 585 -8 q 327 35 417 -8 q 173 151 238 79 q 73 315 108 224 q 38 501 38 407 z "},"ć":{"ha":792,"x_min":33,"x_max":768,"o":"m 488 794 l 346 833 l 418 1014 l 619 1014 l 488 794 m 33 365 q 60 509 33 440 q 136 630 86 578 q 259 713 186 682 q 425 743 332 743 q 638 690 551 743 q 767 550 724 636 l 550 485 q 424 554 507 554 q 308 503 354 554 q 261 365 261 451 q 274 287 261 322 q 308 226 286 251 q 360 188 331 201 q 424 174 390 174 q 500 194 465 174 q 551 246 535 214 l 768 179 q 640 40 728 94 q 425 -14 551 -14 q 260 17 333 -14 q 137 101 188 49 q 60 222 86 153 q 33 365 33 290 z "},"Ĉ":{"ha":956,"x_min":38,"x_max":936,"o":"m 296 1121 l 449 1271 l 608 1271 l 760 1121 l 646 1071 l 528 1158 l 410 1071 l 296 1121 m 38 501 q 71 678 38 590 q 168 836 104 767 q 324 949 232 906 q 532 992 415 992 q 773 932 671 992 q 925 776 875 872 l 750 654 q 708 719 733 693 q 651 760 682 744 q 589 783 621 776 q 526 789 557 789 q 413 763 461 789 q 332 694 364 736 q 285 600 300 653 q 269 493 269 547 q 288 381 269 435 q 340 285 306 326 q 422 219 374 243 q 529 194 469 194 q 592 202 560 194 q 655 226 625 210 q 710 267 685 242 q 750 331 735 293 l 936 221 q 870 124 914 167 q 769 51 826 81 q 649 7 713 22 q 524 -8 585 -8 q 327 35 417 -8 q 173 151 238 79 q 73 315 108 224 q 38 501 38 407 z "},"ĉ":{"ha":792,"x_min":33,"x_max":768,"o":"m 192 864 l 344 1014 l 504 1014 l 656 864 l 542 814 l 424 901 l 306 814 l 192 864 m 33 365 q 60 509 33 440 q 136 630 86 578 q 259 713 186 682 q 425 743 332 743 q 638 690 551 743 q 767 550 724 636 l 550 485 q 424 554 507 554 q 308 503 354 554 q 261 365 261 451 q 274 287 261 322 q 308 226 286 251 q 360 188 331 201 q 424 174 390 174 q 500 194 465 174 q 551 246 535 214 l 768 179 q 640 40 728 94 q 425 -14 551 -14 q 260 17 333 -14 q 137 101 188 49 q 60 222 86 153 q 33 365 33 290 z "},"Ċ":{"ha":956,"x_min":38,"x_max":936,"o":"m 38 501 q 71 678 38 590 q 168 836 104 767 q 324 949 232 906 q 532 992 415 992 q 773 932 671 992 q 925 776 875 872 l 750 654 q 708 719 733 693 q 651 760 682 744 q 589 783 621 776 q 526 789 557 789 q 413 763 461 789 q 332 694 364 736 q 285 600 300 653 q 269 493 269 547 q 288 381 269 435 q 340 285 306 326 q 422 219 374 243 q 529 194 469 194 q 592 202 560 194 q 655 226 625 210 q 710 267 685 242 q 750 331 735 293 l 936 221 q 870 124 914 167 q 769 51 826 81 q 649 7 713 22 q 524 -8 585 -8 q 327 35 417 -8 q 173 151 238 79 q 73 315 108 224 q 38 501 38 407 m 436 1081 l 436 1271 l 636 1271 l 636 1081 l 436 1081 z "},"˙":{"ha":339,"x_min":69,"x_max":269,"o":"m 69 824 l 69 1014 l 269 1014 l 269 824 l 69 824 z "},"ċ":{"ha":792,"x_min":33,"x_max":768,"o":"m 33 365 q 60 509 33 440 q 136 630 86 578 q 259 713 186 682 q 425 743 332 743 q 638 690 551 743 q 767 550 724 636 l 550 485 q 424 554 507 554 q 308 503 354 554 q 261 365 261 451 q 274 287 261 322 q 308 226 286 251 q 360 188 331 201 q 424 174 390 174 q 500 194 465 174 q 551 246 535 214 l 768 179 q 640 40 728 94 q 425 -14 551 -14 q 260 17 333 -14 q 137 101 188 49 q 60 222 86 153 q 33 365 33 290 m 325 824 l 325 1014 l 525 1014 l 525 824 l 325 824 z "},"Č":{"ha":956,"x_min":38,"x_max":936,"o":"m 422 1271 l 540 1183 l 658 1271 l 772 1219 l 621 1071 l 461 1071 l 308 1219 l 422 1271 m 38 501 q 71 678 38 590 q 168 836 104 767 q 324 949 232 906 q 532 992 415 992 q 773 932 671 992 q 925 776 875 872 l 750 654 q 708 719 733 693 q 651 760 682 744 q 589 783 621 776 q 526 789 557 789 q 413 763 461 789 q 332 694 364 736 q 285 600 300 653 q 269 493 269 547 q 288 381 269 435 q 340 285 306 326 q 422 219 374 243 q 529 194 469 194 q 592 202 560 194 q 655 226 625 210 q 710 267 685 242 q 750 331 735 293 l 936 221 q 870 124 914 167 q 769 51 826 81 q 649 7 713 22 q 524 -8 585 -8 q 327 35 417 -8 q 173 151 238 79 q 73 315 108 224 q 38 501 38 407 z "},"ˇ":{"ha":533,"x_min":35,"x_max":499,"o":"m 149 1014 l 267 926 l 385 1014 l 499 963 l 347 814 l 188 814 l 35 963 l 149 1014 z "},"č":{"ha":792,"x_min":33,"x_max":768,"o":"m 306 1014 l 424 926 l 542 1014 l 656 963 l 504 814 l 344 814 l 192 963 l 306 1014 m 33 365 q 60 509 33 440 q 136 630 86 578 q 259 713 186 682 q 425 743 332 743 q 638 690 551 743 q 767 550 724 636 l 550 485 q 424 554 507 554 q 308 503 354 554 q 261 365 261 451 q 274 287 261 322 q 308 226 286 251 q 360 188 331 201 q 424 174 390 174 q 500 194 465 174 q 551 246 535 214 l 768 179 q 640 40 728 94 q 425 -14 551 -14 q 260 17 333 -14 q 137 101 188 49 q 60 222 86 153 q 33 365 33 290 z "},"Ď":{"ha":994,"x_min":94,"x_max":954,"o":"m 332 1271 l 450 1183 l 568 1271 l 682 1219 l 531 1071 l 371 1071 l 218 1219 l 332 1271 m 94 0 l 94 986 l 463 986 q 676 947 585 986 q 830 842 768 908 q 923 685 892 775 q 954 494 954 596 q 919 291 954 382 q 820 135 885 200 q 665 35 756 71 q 463 0 574 0 l 94 0 m 722 494 q 705 613 722 560 q 654 706 688 667 q 572 765 621 744 q 463 786 524 786 l 322 786 l 322 200 l 463 200 q 574 222 525 200 q 655 284 622 244 q 705 377 688 324 q 722 494 722 431 z "},"ď":{"ha":908,"x_min":35,"x_max":1119,"o":"m 988 794 l 846 833 l 918 1014 l 1119 1014 l 988 794 m 379 -14 q 241 15 304 -14 q 132 94 178 43 q 60 215 86 146 q 35 365 35 283 q 58 514 35 444 q 125 634 82 583 q 227 714 168 685 q 357 743 286 743 q 495 707 433 743 q 590 610 557 671 l 590 1014 l 813 1014 l 813 250 q 823 203 813 217 q 860 188 833 190 l 860 0 q 807 -9 829 -7 q 765 -11 785 -11 q 671 13 707 -11 q 629 83 635 38 l 625 121 q 520 19 586 53 q 379 -14 454 -14 m 439 174 q 527 201 485 174 q 592 275 569 228 l 592 428 q 524 519 571 483 q 428 554 478 554 q 362 538 392 554 q 310 496 332 522 q 276 435 288 469 q 264 361 264 400 q 277 286 264 321 q 313 226 290 251 q 369 188 336 201 q 439 174 401 174 z "},"Đ":{"ha":1001,"x_min":42,"x_max":961,"o":"m 101 0 l 101 414 l 42 414 l 42 578 l 101 578 l 101 986 l 469 986 q 683 947 592 986 q 837 842 775 908 q 930 685 899 775 q 961 494 961 596 q 926 291 961 382 q 827 135 892 200 q 672 35 763 71 q 469 0 581 0 l 101 0 m 729 494 q 712 613 729 560 q 661 706 694 667 q 579 765 628 744 q 469 786 531 786 l 329 786 l 329 578 l 507 578 l 507 414 l 329 414 l 329 200 l 469 200 q 581 222 532 200 q 662 284 629 244 q 712 377 694 324 q 729 494 729 431 z "},"đ":{"ha":908,"x_min":35,"x_max":897,"o":"m 379 -14 q 241 15 304 -14 q 132 94 178 43 q 60 215 86 146 q 35 365 35 283 q 58 514 35 444 q 125 634 82 583 q 227 714 168 685 q 357 743 286 743 q 495 707 433 743 q 590 610 557 671 l 590 817 l 461 817 l 461 947 l 590 947 l 590 1014 l 813 1014 l 813 947 l 897 947 l 897 817 l 813 817 l 813 250 q 823 203 813 217 q 860 188 833 190 l 860 0 q 807 -9 829 -7 q 765 -11 785 -11 q 671 13 707 -11 q 629 83 635 38 l 625 121 q 520 19 586 53 q 379 -14 454 -14 m 439 174 q 527 201 485 174 q 592 275 569 228 l 592 428 q 524 519 571 483 q 428 554 478 554 q 362 538 392 554 q 310 496 332 522 q 276 435 288 469 q 264 361 264 400 q 277 286 264 321 q 313 226 290 251 q 369 188 336 201 q 439 174 401 174 z "},"Ē":{"ha":832,"x_min":94,"x_max":788,"o":"m 788 200 l 788 0 l 94 0 l 94 986 l 775 986 l 775 786 l 322 786 l 322 594 l 711 594 l 711 410 l 322 410 l 322 200 l 788 200 m 236 1119 l 236 1254 l 658 1254 l 658 1119 l 236 1119 z "},"ē":{"ha":839,"x_min":33,"x_max":814,"o":"m 425 -14 q 260 16 333 -14 q 137 97 188 46 q 60 216 86 149 q 33 357 33 283 q 60 506 33 436 q 136 629 86 576 q 259 713 186 682 q 425 743 332 743 q 590 713 518 743 q 713 630 663 682 q 788 510 763 578 q 814 367 814 442 q 813 328 814 347 q 808 296 811 310 l 269 296 q 323 184 275 222 q 432 146 371 146 q 526 169 481 146 q 586 233 571 193 l 775 181 q 642 40 732 94 q 425 -14 551 -14 m 579 433 q 529 543 572 503 q 422 583 486 583 q 315 542 357 583 q 265 433 272 501 l 579 433 m 213 863 l 213 997 l 635 997 l 635 863 l 213 863 z "},"Ĕ":{"ha":832,"x_min":94,"x_max":788,"o":"m 788 200 l 788 0 l 94 0 l 94 986 l 775 986 l 775 786 l 322 786 l 322 594 l 711 594 l 711 410 l 322 410 l 322 200 l 788 200 m 446 1164 q 502 1194 478 1164 q 531 1271 526 1224 l 646 1271 q 631 1189 646 1226 q 590 1124 617 1151 q 527 1082 564 1097 q 446 1067 490 1067 q 365 1082 401 1067 q 302 1124 329 1097 q 260 1189 275 1151 q 246 1271 246 1226 l 364 1271 q 388 1195 364 1226 q 446 1164 413 1164 z "},"ĕ":{"ha":839,"x_min":33,"x_max":814,"o":"m 425 -14 q 260 16 333 -14 q 137 97 188 46 q 60 216 86 149 q 33 357 33 283 q 60 506 33 436 q 136 629 86 576 q 259 713 186 682 q 425 743 332 743 q 590 713 518 743 q 713 630 663 682 q 788 510 763 578 q 814 367 814 442 q 813 328 814 347 q 808 296 811 310 l 269 296 q 323 184 275 222 q 432 146 371 146 q 526 169 481 146 q 586 233 571 193 l 775 181 q 642 40 732 94 q 425 -14 551 -14 m 579 433 q 529 543 572 503 q 422 583 486 583 q 315 542 357 583 q 265 433 272 501 l 579 433 m 422 907 q 478 937 454 907 q 507 1014 503 967 l 622 1014 q 608 932 622 969 q 567 867 593 894 q 503 825 540 840 q 422 810 467 810 q 342 825 378 810 q 278 867 306 840 q 237 932 251 894 q 222 1014 222 969 l 340 1014 q 365 938 340 969 q 422 907 389 907 z "},"Ė":{"ha":832,"x_min":94,"x_max":788,"o":"m 788 200 l 788 0 l 94 0 l 94 986 l 775 986 l 775 786 l 322 786 l 322 594 l 711 594 l 711 410 l 322 410 l 322 200 l 788 200 m 347 1081 l 347 1271 l 547 1271 l 547 1081 l 347 1081 z "},"ė":{"ha":839,"x_min":33,"x_max":814,"o":"m 425 -14 q 260 16 333 -14 q 137 97 188 46 q 60 216 86 149 q 33 357 33 283 q 60 506 33 436 q 136 629 86 576 q 259 713 186 682 q 425 743 332 743 q 590 713 518 743 q 713 630 663 682 q 788 510 763 578 q 814 367 814 442 q 813 328 814 347 q 808 296 811 310 l 269 296 q 323 184 275 222 q 432 146 371 146 q 526 169 481 146 q 586 233 571 193 l 775 181 q 642 40 732 94 q 425 -14 551 -14 m 579 433 q 529 543 572 503 q 422 583 486 583 q 315 542 357 583 q 265 433 272 501 l 579 433 m 324 824 l 324 1014 l 524 1014 l 524 824 l 324 824 z "},"Ę":{"ha":833,"x_min":94,"x_max":788,"o":"m 788 200 l 788 0 q 683 -114 683 -62 q 706 -152 683 -137 q 774 -168 728 -167 l 731 -285 q 592 -237 638 -274 q 547 -156 547 -201 q 576 -76 547 -115 q 664 0 606 -36 l 94 0 l 94 986 l 775 986 l 775 786 l 322 786 l 322 594 l 711 594 l 711 410 l 322 410 l 322 200 l 788 200 z "},"ę":{"ha":839,"x_min":33,"x_max":814,"o":"m 482 -285 q 344 -237 389 -274 q 299 -156 299 -201 q 396 -12 299 -79 q 243 24 310 -8 q 129 106 176 56 q 58 221 82 156 q 33 357 33 286 q 60 506 33 436 q 136 629 86 576 q 259 713 186 682 q 425 743 332 743 q 590 713 518 743 q 713 630 663 682 q 788 510 763 578 q 814 367 814 442 q 813 328 814 347 q 808 296 811 310 l 269 296 q 323 184 275 222 q 432 146 371 146 q 526 169 481 146 q 586 233 571 193 l 775 181 q 682 67 743 114 q 538 0 621 19 q 435 -114 435 -62 q 457 -152 435 -137 q 525 -168 479 -167 l 482 -285 m 579 433 q 529 543 572 503 q 422 583 486 583 q 315 542 357 583 q 265 433 272 501 l 579 433 z "},"Ě":{"ha":832,"x_min":94,"x_max":788,"o":"m 328 1271 l 446 1183 l 564 1271 l 678 1219 l 526 1071 l 367 1071 l 214 1219 l 328 1271 m 788 200 l 788 0 l 94 0 l 94 986 l 775 986 l 775 786 l 322 786 l 322 594 l 711 594 l 711 410 l 322 410 l 322 200 l 788 200 z "},"ě":{"ha":839,"x_min":33,"x_max":814,"o":"m 304 1014 l 422 926 l 540 1014 l 654 963 l 503 814 l 343 814 l 190 963 l 304 1014 m 425 -14 q 260 16 333 -14 q 137 97 188 46 q 60 216 86 149 q 33 357 33 283 q 60 506 33 436 q 136 629 86 576 q 259 713 186 682 q 425 743 332 743 q 590 713 518 743 q 713 630 663 682 q 788 510 763 578 q 814 367 814 442 q 813 328 814 347 q 808 296 811 310 l 269 296 q 323 184 275 222 q 432 146 371 146 q 526 169 481 146 q 586 233 571 193 l 775 181 q 642 40 732 94 q 425 -14 551 -14 m 579 433 q 529 543 572 503 q 422 583 486 583 q 315 542 357 583 q 265 433 272 501 l 579 433 z "},"Ĝ":{"ha":1017,"x_min":39,"x_max":961,"o":"m 300 1121 l 453 1271 l 613 1271 l 764 1121 l 650 1071 l 532 1158 l 414 1071 l 300 1121 m 772 97 q 513 -7 660 -7 q 329 30 415 -7 q 178 133 243 67 q 76 294 114 200 q 39 500 39 388 q 76 692 39 601 q 180 849 114 782 q 336 954 246 915 q 531 993 426 993 q 771 935 668 993 q 925 778 874 878 l 756 650 q 659 753 722 717 q 522 790 596 790 q 419 767 465 790 q 339 703 372 744 q 288 608 306 663 q 269 492 269 554 q 289 374 269 428 q 343 280 308 319 q 426 218 378 240 q 532 196 474 196 q 772 319 665 196 l 772 350 l 581 350 l 581 515 l 961 515 l 961 0 l 772 0 l 772 97 z "},"ĝ":{"ha":889,"x_min":36,"x_max":813,"o":"m 249 864 l 401 1014 l 561 1014 l 713 864 l 599 814 l 481 901 l 363 814 l 249 864 m 360 -3 q 228 26 288 -3 q 126 106 168 56 q 60 222 83 156 q 36 365 36 289 q 61 515 36 446 q 131 634 86 583 q 238 714 175 685 q 375 743 300 743 q 520 708 458 743 q 619 610 582 672 l 619 729 l 813 729 l 813 50 q 781 -100 813 -33 q 694 -213 750 -167 q 561 -285 639 -260 q 390 -310 483 -310 q 189 -272 272 -310 q 43 -164 106 -235 l 163 -43 q 263 -116 203 -89 q 390 -143 322 -143 q 467 -132 431 -143 q 531 -98 503 -121 q 574 -38 558 -75 q 590 50 590 -1 l 590 121 q 494 28 557 60 q 360 -3 432 -3 m 436 174 q 528 202 488 174 q 590 275 568 231 l 590 428 q 522 520 568 486 q 425 554 476 554 q 359 538 389 554 q 308 495 329 522 q 274 433 286 468 q 263 360 263 397 q 276 285 263 319 q 313 226 289 251 q 367 188 336 201 q 436 174 399 174 z "},"Ğ":{"ha":1017,"x_min":39,"x_max":961,"o":"m 772 97 q 513 -7 660 -7 q 329 30 415 -7 q 178 133 243 67 q 76 294 114 200 q 39 500 39 388 q 76 692 39 601 q 180 849 114 782 q 336 954 246 915 q 531 993 426 993 q 771 935 668 993 q 925 778 874 878 l 756 650 q 659 753 722 717 q 522 790 596 790 q 419 767 465 790 q 339 703 372 744 q 288 608 306 663 q 269 492 269 554 q 289 374 269 428 q 343 280 308 319 q 426 218 378 240 q 532 196 474 196 q 772 319 665 196 l 772 350 l 581 350 l 581 515 l 961 515 l 961 0 l 772 0 l 772 97 m 532 1164 q 588 1194 564 1164 q 617 1271 613 1224 l 732 1271 q 717 1189 732 1226 q 676 1124 703 1151 q 613 1082 650 1097 q 532 1067 576 1067 q 451 1082 488 1067 q 388 1124 415 1097 q 347 1189 361 1151 q 332 1271 332 1226 l 450 1271 q 474 1195 450 1226 q 532 1164 499 1164 z "},"ğ":{"ha":889,"x_min":36,"x_max":813,"o":"m 360 -3 q 228 26 288 -3 q 126 106 168 56 q 60 222 83 156 q 36 365 36 289 q 61 515 36 446 q 131 634 86 583 q 238 714 175 685 q 375 743 300 743 q 520 708 458 743 q 619 610 582 672 l 619 729 l 813 729 l 813 50 q 781 -100 813 -33 q 694 -213 750 -167 q 561 -285 639 -260 q 390 -310 483 -310 q 189 -272 272 -310 q 43 -164 106 -235 l 163 -43 q 263 -116 203 -89 q 390 -143 322 -143 q 467 -132 431 -143 q 531 -98 503 -121 q 574 -38 558 -75 q 590 50 590 -1 l 590 121 q 494 28 557 60 q 360 -3 432 -3 m 436 174 q 528 202 488 174 q 590 275 568 231 l 590 428 q 522 520 568 486 q 425 554 476 554 q 359 538 389 554 q 308 495 329 522 q 274 433 286 468 q 263 360 263 397 q 276 285 263 319 q 313 226 289 251 q 367 188 336 201 q 436 174 399 174 m 481 907 q 537 937 513 907 q 565 1014 561 967 l 681 1014 q 666 932 681 969 q 625 867 651 894 q 562 825 599 840 q 481 810 525 810 q 400 825 436 810 q 337 867 364 840 q 295 932 310 894 q 281 1014 281 969 l 399 1014 q 423 938 399 969 q 481 907 447 907 z "},"Ġ":{"ha":1017,"x_min":39,"x_max":961,"o":"m 772 97 q 513 -7 660 -7 q 329 30 415 -7 q 178 133 243 67 q 76 294 114 200 q 39 500 39 388 q 76 692 39 601 q 180 849 114 782 q 336 954 246 915 q 531 993 426 993 q 771 935 668 993 q 925 778 874 878 l 756 650 q 659 753 722 717 q 522 790 596 790 q 419 767 465 790 q 339 703 372 744 q 288 608 306 663 q 269 492 269 554 q 289 374 269 428 q 343 280 308 319 q 426 218 378 240 q 532 196 474 196 q 772 319 665 196 l 772 350 l 581 350 l 581 515 l 961 515 l 961 0 l 772 0 l 772 97 m 435 1081 l 435 1271 l 635 1271 l 635 1081 l 435 1081 z "},"ġ":{"ha":889,"x_min":36,"x_max":813,"o":"m 360 -3 q 228 26 288 -3 q 126 106 168 56 q 60 222 83 156 q 36 365 36 289 q 61 515 36 446 q 131 634 86 583 q 238 714 175 685 q 375 743 300 743 q 520 708 458 743 q 619 610 582 672 l 619 729 l 813 729 l 813 50 q 781 -100 813 -33 q 694 -213 750 -167 q 561 -285 639 -260 q 390 -310 483 -310 q 189 -272 272 -310 q 43 -164 106 -235 l 163 -43 q 263 -116 203 -89 q 390 -143 322 -143 q 467 -132 431 -143 q 531 -98 503 -121 q 574 -38 558 -75 q 590 50 590 -1 l 590 121 q 494 28 557 60 q 360 -3 432 -3 m 436 174 q 528 202 488 174 q 590 275 568 231 l 590 428 q 522 520 568 486 q 425 554 476 554 q 359 538 389 554 q 308 495 329 522 q 274 433 286 468 q 263 360 263 397 q 276 285 263 319 q 313 226 289 251 q 367 188 336 201 q 436 174 399 174 m 381 824 l 381 1014 l 581 1014 l 581 824 l 381 824 z "},"Ģ":{"ha":1017,"x_min":39,"x_max":961,"o":"m 446 -296 l 489 -203 l 422 -203 l 422 -65 l 608 -65 l 608 -203 l 543 -296 l 446 -296 m 772 97 q 513 -7 660 -7 q 329 30 415 -7 q 178 133 243 67 q 76 294 114 200 q 39 500 39 388 q 76 692 39 601 q 180 849 114 782 q 336 954 246 915 q 531 993 426 993 q 771 935 668 993 q 925 778 874 878 l 756 650 q 659 753 722 717 q 522 790 596 790 q 419 767 465 790 q 339 703 372 744 q 288 608 306 663 q 269 492 269 554 q 289 374 269 428 q 343 280 308 319 q 426 218 378 240 q 532 196 474 196 q 772 319 665 196 l 772 350 l 581 350 l 581 515 l 961 515 l 961 0 l 772 0 l 772 97 z "},"":{"ha":306,"x_min":86,"x_max":272,"o":"m 110 -296 l 153 -203 l 86 -203 l 86 -65 l 272 -65 l 272 -203 l 207 -296 l 110 -296 z "},"ģ":{"ha":889,"x_min":36,"x_max":813,"o":"m 529 1040 l 486 947 l 553 947 l 553 810 l 367 810 l 367 947 l 432 1040 l 529 1040 m 360 -3 q 228 26 288 -3 q 126 106 168 56 q 60 222 83 156 q 36 365 36 289 q 61 515 36 446 q 131 634 86 583 q 238 714 175 685 q 375 743 300 743 q 520 708 458 743 q 619 610 582 672 l 619 729 l 813 729 l 813 50 q 781 -100 813 -33 q 694 -213 750 -167 q 561 -285 639 -260 q 390 -310 483 -310 q 189 -272 272 -310 q 43 -164 106 -235 l 163 -43 q 263 -116 203 -89 q 390 -143 322 -143 q 467 -132 431 -143 q 531 -98 503 -121 q 574 -38 558 -75 q 590 50 590 -1 l 590 121 q 494 28 557 60 q 360 -3 432 -3 m 436 174 q 528 202 488 174 q 590 275 568 231 l 590 428 q 522 520 568 486 q 425 554 476 554 q 359 538 389 554 q 308 495 329 522 q 274 433 286 468 q 263 360 263 397 q 276 285 263 319 q 313 226 289 251 q 367 188 336 201 q 436 174 399 174 z "},"Ĥ":{"ha":1038,"x_min":94,"x_max":943,"o":"m 290 1119 l 443 1269 l 603 1269 l 754 1119 l 640 1069 l 522 1157 l 404 1069 l 290 1119 m 943 986 l 943 0 l 715 0 l 715 404 l 322 404 l 322 0 l 94 0 l 94 986 l 322 986 l 322 604 l 715 604 l 715 986 l 943 986 z "},"ĥ":{"ha":850,"x_min":76,"x_max":779,"o":"m 353 867 l 483 1013 l 618 1013 l 747 867 l 650 818 l 550 903 l 450 818 l 353 867 m 779 0 l 557 0 l 557 410 q 529 514 557 481 q 453 547 501 547 q 410 538 433 547 q 366 512 388 529 q 326 471 344 494 q 299 418 308 447 l 299 0 l 76 0 l 76 1014 l 299 1014 l 299 607 q 405 708 339 672 q 550 743 471 743 q 669 717 624 743 q 738 652 714 692 q 771 563 763 613 q 779 467 779 514 l 779 0 z "},"Ħ":{"ha":1049,"x_min":31,"x_max":1018,"o":"m 949 986 l 949 857 l 1018 857 l 1018 751 l 949 751 l 949 0 l 721 0 l 721 404 l 328 404 l 328 0 l 100 0 l 100 751 l 31 751 l 31 857 l 100 857 l 100 986 l 328 986 l 328 857 l 721 857 l 721 986 l 949 986 m 721 604 l 721 751 l 328 751 l 328 604 l 721 604 z "},"ħ":{"ha":850,"x_min":24,"x_max":779,"o":"m 779 0 l 557 0 l 557 410 q 529 514 557 481 q 453 547 501 547 q 410 538 433 547 q 366 512 388 529 q 326 471 344 494 q 299 418 308 447 l 299 0 l 76 0 l 76 817 l 24 817 l 24 947 l 76 947 l 76 1014 l 299 1014 l 299 947 l 461 947 l 461 817 l 299 817 l 299 607 q 405 708 339 672 q 550 743 471 743 q 669 717 624 743 q 738 652 714 692 q 771 563 763 613 q 779 467 779 514 l 779 0 z "},"Ĩ":{"ha":417,"x_min":-74,"x_max":479,"o":"m 94 0 l 94 986 l 322 986 l 322 0 l 94 0 m 296 1074 q 240 1083 264 1074 q 194 1106 215 1093 q 154 1128 174 1118 q 111 1138 135 1138 q 75 1128 88 1138 q 56 1106 63 1118 q 47 1083 49 1093 q 46 1071 46 1072 l -74 1071 q -65 1119 -74 1086 q -35 1185 -56 1151 q 20 1243 -14 1218 q 103 1268 54 1268 q 160 1258 136 1268 q 203 1235 183 1247 q 243 1212 224 1222 q 288 1201 263 1201 q 326 1212 311 1201 q 348 1235 340 1222 q 358 1258 356 1247 q 360 1271 360 1269 l 479 1271 q 469 1228 479 1260 q 438 1161 460 1196 q 382 1100 417 1126 q 296 1074 347 1074 z "},"ĩ":{"ha":375,"x_min":-94,"x_max":458,"o":"m 76 0 l 76 729 l 299 729 l 299 0 l 76 0 m 275 817 q 219 826 243 817 q 174 849 194 836 q 133 871 153 861 q 90 881 114 881 q 54 871 67 881 q 35 849 42 861 q 26 826 28 836 q 25 814 25 815 l -94 814 q -85 862 -94 829 q -56 928 -76 894 q -1 986 -35 961 q 82 1011 33 1011 q 139 1001 115 1011 q 183 978 163 990 q 222 955 203 965 q 267 944 242 944 q 305 955 290 944 q 327 978 319 965 q 337 1001 335 990 q 339 1014 339 1013 l 458 1014 q 449 971 458 1003 q 417 904 439 939 q 361 843 396 869 q 275 817 326 817 z "},"Ī":{"ha":417,"x_min":-1,"x_max":421,"o":"m 94 0 l 94 986 l 322 986 l 322 0 l 94 0 m -1 1119 l -1 1254 l 421 1254 l 421 1119 l -1 1119 z "},"ī":{"ha":375,"x_min":-22,"x_max":400,"o":"m 76 0 l 76 729 l 299 729 l 299 0 l 76 0 m -22 863 l -22 997 l 400 997 l 400 863 l -22 863 z "},"Ĭ":{"ha":417,"x_min":7,"x_max":407,"o":"m 94 0 l 94 986 l 322 986 l 322 0 l 94 0 m 207 1164 q 263 1194 239 1164 q 292 1271 288 1224 l 407 1271 q 392 1189 407 1226 q 351 1124 378 1151 q 288 1082 325 1097 q 207 1067 251 1067 q 126 1082 163 1067 q 63 1124 90 1097 q 22 1189 36 1151 q 7 1271 7 1226 l 125 1271 q 149 1195 125 1226 q 207 1164 174 1164 z "},"ĭ":{"ha":375,"x_min":-14,"x_max":386,"o":"m 76 0 l 76 729 l 299 729 l 299 0 l 76 0 m 186 907 q 242 937 218 907 q 271 1014 267 967 l 386 1014 q 372 932 386 969 q 331 867 357 894 q 267 825 304 840 q 186 810 231 810 q 106 825 142 810 q 42 867 69 840 q 1 932 15 894 q -14 1014 -14 969 l 104 1014 q 128 938 104 969 q 186 907 153 907 z "},"Į":{"ha":418,"x_min":82,"x_max":322,"o":"m 265 -285 q 127 -237 172 -274 q 82 -156 82 -201 q 111 -76 82 -115 q 199 0 140 -36 l 94 0 l 94 986 l 322 986 l 322 0 q 218 -114 218 -62 q 240 -152 218 -137 q 308 -168 263 -167 l 265 -285 l 265 -285 z "},"į":{"ha":375,"x_min":58,"x_max":299,"o":"m 242 -285 q 103 -237 149 -274 q 58 -156 58 -201 q 88 -76 58 -115 q 175 0 117 -36 l 76 0 l 76 729 l 299 729 l 299 0 q 194 -114 194 -62 q 217 -152 194 -137 q 285 -168 239 -167 l 242 -285 m 76 813 l 76 1014 l 299 1014 l 299 813 l 76 813 z "},"İ":{"ha":417,"x_min":94,"x_max":322,"o":"m 94 0 l 94 986 l 322 986 l 322 0 l 94 0 m 108 1081 l 108 1271 l 308 1271 l 308 1081 l 108 1081 z "},"Ĳ":{"ha":1103,"x_min":94,"x_max":1019,"o":"m 94 0 l 94 986 l 322 986 l 322 0 l 94 0 m 472 232 q 531 204 486 221 q 636 188 576 188 q 718 205 688 188 q 765 258 749 222 q 787 351 782 294 q 792 485 792 407 l 792 986 l 1019 986 l 1019 485 q 1008 280 1019 372 q 956 122 996 188 q 840 21 917 57 q 636 -15 764 -15 q 422 46 511 -15 l 472 232 z "},"ĳ":{"ha":756,"x_min":76,"x_max":681,"o":"m 76 0 l 76 729 l 299 729 l 299 0 l 76 0 m 76 813 l 76 1014 l 299 1014 l 299 813 l 76 813 m 413 -281 q 307 -263 357 -281 q 217 -211 257 -246 l 310 -60 q 344 -82 325 -75 q 385 -89 364 -89 q 438 -68 417 -89 q 458 -12 458 -47 l 458 729 l 681 729 l 681 4 q 660 -111 681 -58 q 604 -201 640 -164 q 519 -260 568 -239 q 413 -281 469 -281 m 458 813 l 458 1014 l 681 1014 l 681 813 l 458 813 z "},"Ĵ":{"ha":686,"x_min":6,"x_max":724,"o":"m 260 1121 l 413 1271 l 572 1271 l 724 1121 l 610 1071 l 492 1158 l 374 1071 l 260 1121 m 56 232 q 115 204 69 221 q 219 188 160 188 q 301 205 271 188 q 349 258 332 222 q 370 351 365 294 q 375 485 375 407 l 375 986 l 603 986 l 603 485 q 591 280 603 372 q 540 122 579 188 q 424 21 500 57 q 219 -15 347 -15 q 6 46 94 -15 l 56 232 z "},"ĵ":{"ha":375,"x_min":-165,"x_max":419,"o":"m 31 -281 q -165 -211 -83 -281 l -72 -60 q -37 -82 -57 -75 q 3 -89 -18 -89 q 56 -68 35 -89 q 76 -12 76 -47 l 76 729 l 299 729 l 299 4 q 278 -111 299 -58 q 222 -201 258 -164 q 137 -260 186 -239 q 31 -281 88 -281 m -44 864 l 108 1014 l 268 1014 l 419 864 l 306 814 l 188 901 l 69 814 l -44 864 z "},"ȷ":{"ha":375,"x_min":-165,"x_max":299,"o":"m 31 -281 q -165 -211 -83 -281 l -72 -60 q -37 -82 -57 -75 q 3 -89 -18 -89 q 56 -68 35 -89 q 76 -12 76 -47 l 76 729 l 299 729 l 299 4 q 278 -111 299 -58 q 222 -201 258 -164 q 137 -260 186 -239 q 31 -281 88 -281 z "},"Ķ":{"ha":943,"x_min":94,"x_max":964,"o":"m 426 -296 l 469 -203 l 403 -203 l 403 -65 l 589 -65 l 589 -203 l 524 -296 l 426 -296 m 94 0 l 94 986 l 322 986 l 322 561 l 683 986 l 939 986 l 569 546 l 964 0 l 704 0 l 425 397 l 322 290 l 322 0 l 94 0 z "},"ķ":{"ha":790,"x_min":76,"x_max":803,"o":"m 335 -296 l 378 -203 l 311 -203 l 311 -65 l 497 -65 l 497 -203 l 432 -296 l 335 -296 m 567 0 l 376 293 l 299 213 l 299 0 l 76 0 l 76 1014 l 299 1014 l 299 426 l 544 729 l 781 729 l 518 415 l 803 0 l 567 0 z "},"ĸ":{"ha":790,"x_min":76,"x_max":803,"o":"m 567 0 l 376 293 l 299 213 l 299 0 l 76 0 l 76 729 l 299 729 l 299 426 l 544 729 l 781 729 l 518 415 l 803 0 l 567 0 z "},"Ĺ":{"ha":813,"x_min":94,"x_max":800,"o":"m 569 1051 l 428 1090 l 500 1271 l 701 1271 l 569 1051 m 94 0 l 94 986 l 322 986 l 322 200 l 800 200 l 800 0 l 94 0 z "},"ĺ":{"ha":465,"x_min":74,"x_max":469,"o":"m 244 1058 l 103 1097 l 175 1278 l 376 1278 l 244 1058 m 74 1014 l 296 1014 l 296 260 q 367 176 296 176 q 403 181 383 176 q 440 196 424 186 l 469 29 q 374 -1 428 10 q 272 -12 319 -12 q 125 38 176 -12 q 74 182 74 88 l 74 1014 z "},"Ļ":{"ha":813,"x_min":94,"x_max":800,"o":"m 393 -296 l 436 -203 l 369 -203 l 369 -65 l 556 -65 l 556 -203 l 490 -296 l 393 -296 m 94 0 l 94 986 l 322 986 l 322 200 l 800 200 l 800 0 l 94 0 z "},"ļ":{"ha":465,"x_min":74,"x_max":469,"o":"m 197 -296 l 240 -203 l 174 -203 l 174 -65 l 360 -65 l 360 -203 l 294 -296 l 197 -296 m 74 1014 l 296 1014 l 296 260 q 367 176 296 176 q 403 181 383 176 q 440 196 424 186 l 469 29 q 374 -1 428 10 q 272 -12 319 -12 q 125 38 176 -12 q 74 182 74 88 l 74 1014 z "},"Ľ":{"ha":813,"x_min":94,"x_max":800,"o":"m 590 793 l 449 832 l 521 1013 l 722 1013 l 590 793 m 94 0 l 94 986 l 322 986 l 322 200 l 800 200 l 800 0 l 94 0 z "},"ľ":{"ha":465,"x_min":74,"x_max":621,"o":"m 489 793 l 347 832 l 419 1013 l 621 1013 l 489 793 m 74 1014 l 296 1014 l 296 260 q 367 176 296 176 q 403 181 383 176 q 440 196 424 186 l 469 29 q 374 -1 428 10 q 272 -12 319 -12 q 125 38 176 -12 q 74 182 74 88 l 74 1014 z "},"Ŀ":{"ha":813,"x_min":94,"x_max":800,"o":"m 94 0 l 94 986 l 322 986 l 322 200 l 800 200 l 800 0 l 94 0 m 506 451 l 506 682 l 688 682 l 688 451 l 506 451 z "},"ŀ":{"ha":596,"x_min":74,"x_max":572,"o":"m 74 1014 l 296 1014 l 296 260 q 367 176 296 176 q 403 181 383 176 q 440 196 424 186 l 469 29 q 374 -1 428 10 q 272 -12 319 -12 q 125 38 176 -12 q 74 182 74 88 l 74 1014 m 390 403 l 390 633 l 572 633 l 572 403 l 390 403 z "},"Ł":{"ha":826,"x_min":-12,"x_max":815,"o":"m 110 0 l 110 381 l 40 342 l -12 461 l 110 529 l 110 986 l 338 986 l 338 658 l 465 731 l 517 611 l 338 510 l 338 200 l 815 200 l 815 0 l 110 0 z "},"ł":{"ha":506,"x_min":-7,"x_max":506,"o":"m 110 397 l 46 363 l -7 482 l 110 546 l 110 1014 l 332 1014 l 332 667 l 449 731 l 501 611 l 332 518 l 332 260 q 403 176 332 176 q 440 181 419 176 q 476 196 460 186 l 506 29 q 410 -1 464 10 q 308 -12 356 -12 q 161 38 213 -12 q 110 182 110 88 l 110 397 z "},"Ń":{"ha":1054,"x_min":94,"x_max":960,"o":"m 589 1050 l 447 1089 l 519 1269 l 721 1269 l 589 1050 m 322 564 l 322 0 l 94 0 l 94 986 l 272 986 l 732 407 l 732 986 l 960 986 l 960 0 l 776 0 l 322 564 z "},"ń":{"ha":850,"x_min":76,"x_max":779,"o":"m 514 794 l 372 833 l 444 1014 l 646 1014 l 514 794 m 779 0 l 557 0 l 557 410 q 530 515 557 482 q 458 547 503 547 q 411 538 435 547 q 365 510 388 528 q 326 469 343 493 q 299 418 308 446 l 299 0 l 76 0 l 76 729 l 276 729 l 276 607 q 390 708 317 672 q 560 743 464 743 q 674 717 631 743 q 740 651 717 692 q 772 561 764 610 q 779 467 779 513 l 779 0 z "},"Ņ":{"ha":1054,"x_min":94,"x_max":960,"o":"m 450 -296 l 493 -203 l 426 -203 l 426 -65 l 613 -65 l 613 -203 l 547 -296 l 450 -296 m 322 564 l 322 0 l 94 0 l 94 986 l 272 986 l 732 407 l 732 986 l 960 986 l 960 0 l 776 0 l 322 564 z "},"ņ":{"ha":850,"x_min":76,"x_max":779,"o":"m 350 -296 l 393 -203 l 326 -203 l 326 -65 l 513 -65 l 513 -203 l 447 -296 l 350 -296 m 779 0 l 557 0 l 557 410 q 530 515 557 482 q 458 547 503 547 q 411 538 435 547 q 365 510 388 528 q 326 469 343 493 q 299 418 308 446 l 299 0 l 76 0 l 76 729 l 276 729 l 276 607 q 390 708 317 672 q 560 743 464 743 q 674 717 631 743 q 740 651 717 692 q 772 561 764 610 q 779 467 779 513 l 779 0 z "},"Ň":{"ha":1054,"x_min":94,"x_max":960,"o":"m 407 1269 l 525 1182 l 643 1269 l 757 1218 l 606 1069 l 446 1069 l 293 1218 l 407 1269 m 322 564 l 322 0 l 94 0 l 94 986 l 272 986 l 732 407 l 732 986 l 960 986 l 960 0 l 776 0 l 322 564 z "},"ň":{"ha":850,"x_min":76,"x_max":779,"o":"m 332 1014 l 450 926 l 568 1014 l 682 963 l 531 814 l 371 814 l 218 963 l 332 1014 m 779 0 l 557 0 l 557 410 q 530 515 557 482 q 458 547 503 547 q 411 538 435 547 q 365 510 388 528 q 326 469 343 493 q 299 418 308 446 l 299 0 l 76 0 l 76 729 l 276 729 l 276 607 q 390 708 317 672 q 560 743 464 743 q 674 717 631 743 q 740 651 717 692 q 772 561 764 610 q 779 467 779 513 l 779 0 z "},"ŉ":{"ha":850,"x_min":-44,"x_max":779,"o":"m 97 794 l -44 833 l 1 944 l -11 1014 l 231 1014 l 97 794 m 779 0 l 557 0 l 557 410 q 530 515 557 482 q 458 547 503 547 q 411 538 435 547 q 365 510 388 528 q 326 469 343 493 q 299 418 308 446 l 299 0 l 76 0 l 76 729 l 276 729 l 276 607 q 390 708 317 672 q 560 743 464 743 q 674 717 631 743 q 740 651 717 692 q 772 561 764 610 q 779 467 779 513 l 779 0 z "},"ʼ":{"ha":729,"x_min":242,"x_max":517,"o":"m 383 794 l 242 833 l 288 944 l 275 1014 l 517 1014 l 383 794 z "},"Ŋ":{"ha":1032,"x_min":94,"x_max":936,"o":"m 322 557 l 322 0 l 94 0 l 94 986 l 269 986 l 708 418 l 708 985 l 936 985 l 936 -3 q 915 -117 936 -65 q 858 -205 894 -168 q 772 -261 821 -242 q 668 -281 724 -281 q 564 -263 614 -281 q 474 -211 514 -246 l 567 -60 q 600 -82 581 -75 q 640 -89 619 -89 q 693 -68 672 -89 q 714 -12 714 -47 l 714 49 l 322 557 z "},"ŋ":{"ha":849,"x_min":76,"x_max":779,"o":"m 511 -281 q 315 -211 397 -281 l 408 -60 q 443 -82 424 -75 q 483 -89 463 -89 q 536 -68 515 -89 q 557 -12 557 -47 l 557 410 q 530 515 557 482 q 458 547 503 547 q 411 538 435 547 q 365 510 388 528 q 326 469 343 493 q 299 418 308 446 l 299 0 l 76 0 l 76 729 l 276 729 l 276 607 q 390 708 317 672 q 560 743 464 743 q 674 717 631 743 q 741 651 718 692 q 772 561 764 610 q 779 467 779 513 l 779 4 q 758 -111 779 -58 q 701 -201 738 -164 q 617 -260 665 -239 q 511 -281 568 -281 z "},"Ō":{"ha":1056,"x_min":38,"x_max":1018,"o":"m 322 1119 l 322 1254 l 744 1254 l 744 1119 l 322 1119 m 526 -8 q 326 35 417 -8 q 172 148 236 78 q 73 308 108 218 q 38 494 38 399 q 74 682 38 592 q 177 841 111 772 q 333 951 243 910 q 531 992 424 992 q 731 949 640 992 q 885 835 821 906 q 983 674 949 764 q 1018 490 1018 583 q 981 303 1018 393 q 879 144 944 213 q 724 33 814 75 q 526 -8 633 -8 m 269 492 q 286 381 269 435 q 335 286 303 328 q 417 219 368 244 q 528 194 465 194 q 642 221 593 194 q 722 290 690 247 q 770 385 754 332 q 786 494 786 439 q 769 605 786 551 q 719 699 753 658 q 638 765 686 740 q 528 789 590 789 q 415 763 463 789 q 334 696 367 738 q 285 601 301 654 q 269 492 269 547 z "},"ō":{"ha":847,"x_min":33,"x_max":814,"o":"m 214 863 l 214 997 l 636 997 l 636 863 l 214 863 m 424 -14 q 258 17 331 -14 q 135 99 185 47 q 59 220 85 151 q 33 364 33 289 q 59 508 33 439 q 135 628 85 576 q 258 712 185 681 q 424 743 331 743 q 589 712 517 743 q 711 628 661 681 q 788 508 761 576 q 814 364 814 439 q 788 220 814 289 q 713 99 763 151 q 590 17 663 47 q 424 -14 517 -14 m 261 364 q 307 226 261 278 q 424 174 353 174 q 488 188 458 174 q 538 226 517 201 q 572 287 560 251 q 585 364 585 322 q 539 502 585 450 q 424 554 493 554 q 359 540 389 554 q 308 501 329 526 q 274 441 286 476 q 261 364 261 406 z "},"Ŏ":{"ha":1056,"x_min":38,"x_max":1018,"o":"m 526 -8 q 326 35 417 -8 q 172 148 236 78 q 73 308 108 218 q 38 494 38 399 q 74 682 38 592 q 177 841 111 772 q 333 951 243 910 q 531 992 424 992 q 731 949 640 992 q 885 835 821 906 q 983 674 949 764 q 1018 490 1018 583 q 981 303 1018 393 q 879 144 944 213 q 724 33 814 75 q 526 -8 633 -8 m 269 492 q 286 381 269 435 q 335 286 303 328 q 417 219 368 244 q 528 194 465 194 q 642 221 593 194 q 722 290 690 247 q 770 385 754 332 q 786 494 786 439 q 769 605 786 551 q 719 699 753 658 q 638 765 686 740 q 528 789 590 789 q 415 763 463 789 q 334 696 367 738 q 285 601 301 654 q 269 492 269 547 m 533 1164 q 590 1194 565 1164 q 618 1271 614 1224 l 733 1271 q 719 1189 733 1226 q 678 1124 704 1151 q 615 1082 651 1097 q 533 1067 578 1067 q 453 1082 489 1067 q 390 1124 417 1097 q 348 1189 363 1151 q 333 1271 333 1226 l 451 1271 q 476 1195 451 1226 q 533 1164 500 1164 z "},"ŏ":{"ha":847,"x_min":33,"x_max":814,"o":"m 424 -14 q 258 17 331 -14 q 135 99 185 47 q 59 220 85 151 q 33 364 33 289 q 59 508 33 439 q 135 628 85 576 q 258 712 185 681 q 424 743 331 743 q 589 712 517 743 q 711 628 661 681 q 788 508 761 576 q 814 364 814 439 q 788 220 814 289 q 713 99 763 151 q 590 17 663 47 q 424 -14 517 -14 m 261 364 q 307 226 261 278 q 424 174 353 174 q 488 188 458 174 q 538 226 517 201 q 572 287 560 251 q 585 364 585 322 q 539 502 585 450 q 424 554 493 554 q 359 540 389 554 q 308 501 329 526 q 274 441 286 476 q 261 364 261 406 m 422 907 q 478 937 454 907 q 507 1014 503 967 l 622 1014 q 608 932 622 969 q 567 867 593 894 q 503 825 540 840 q 422 810 467 810 q 342 825 378 810 q 278 867 306 840 q 237 932 251 894 q 222 1014 222 969 l 340 1014 q 365 938 340 969 q 422 907 389 907 z "},"Ő":{"ha":1056,"x_min":38,"x_max":1018,"o":"m 446 1053 l 339 1092 l 401 1272 l 568 1272 l 446 1053 m 689 1053 l 582 1092 l 643 1272 l 810 1272 l 689 1053 m 526 -8 q 326 35 417 -8 q 172 148 236 78 q 73 308 108 218 q 38 494 38 399 q 74 682 38 592 q 177 841 111 772 q 333 951 243 910 q 531 992 424 992 q 731 949 640 992 q 885 835 821 906 q 983 674 949 764 q 1018 490 1018 583 q 981 303 1018 393 q 879 144 944 213 q 724 33 814 75 q 526 -8 633 -8 m 269 492 q 286 381 269 435 q 335 286 303 328 q 417 219 368 244 q 528 194 465 194 q 642 221 593 194 q 722 290 690 247 q 770 385 754 332 q 786 494 786 439 q 769 605 786 551 q 719 699 753 658 q 638 765 686 740 q 528 789 590 789 q 415 763 463 789 q 334 696 367 738 q 285 601 301 654 q 269 492 269 547 z "},"˝":{"ha":529,"x_min":40,"x_max":511,"o":"m 147 794 l 40 833 l 103 1014 l 269 1014 l 147 794 m 390 794 l 283 833 l 344 1014 l 511 1014 l 390 794 z "},"ő":{"ha":847,"x_min":33,"x_max":814,"o":"m 335 796 l 228 835 l 290 1015 l 457 1015 l 335 796 m 578 796 l 471 835 l 532 1015 l 699 1015 l 578 796 m 424 -14 q 258 17 331 -14 q 135 99 185 47 q 59 220 85 151 q 33 364 33 289 q 59 508 33 439 q 135 628 85 576 q 258 712 185 681 q 424 743 331 743 q 589 712 517 743 q 711 628 661 681 q 788 508 761 576 q 814 364 814 439 q 788 220 814 289 q 713 99 763 151 q 590 17 663 47 q 424 -14 517 -14 m 261 364 q 307 226 261 278 q 424 174 353 174 q 488 188 458 174 q 538 226 517 201 q 572 287 560 251 q 585 364 585 322 q 539 502 585 450 q 424 554 493 554 q 359 540 389 554 q 308 501 329 526 q 274 441 286 476 q 261 364 261 406 z "},"Œ":{"ha":1472,"x_min":38,"x_max":1428,"o":"m 1428 200 l 1428 0 l 757 0 l 757 104 q 646 24 710 56 q 507 -7 582 -7 q 315 35 401 -7 q 167 148 229 78 q 72 308 106 218 q 38 494 38 399 q 73 682 38 592 q 172 842 108 772 q 322 952 235 911 q 511 993 408 993 q 649 963 586 993 q 757 883 711 932 l 757 986 l 1415 986 l 1415 786 l 985 786 l 985 601 l 1340 601 l 1340 403 l 985 403 l 985 200 l 1428 200 m 508 196 q 613 222 568 196 q 688 290 658 247 q 733 385 718 332 q 747 494 747 439 q 731 605 747 551 q 685 699 715 658 q 610 765 654 740 q 508 790 565 790 q 404 765 449 790 q 330 697 360 739 q 285 601 300 654 q 269 492 269 547 q 285 381 269 435 q 331 287 301 328 q 406 221 361 246 q 508 196 450 196 z "},"œ":{"ha":1392,"x_min":33,"x_max":1367,"o":"m 421 -14 q 265 15 336 -14 q 143 93 194 43 q 63 213 92 143 q 33 364 33 282 q 63 515 33 446 q 143 635 92 585 q 265 715 194 686 q 419 743 336 743 q 577 706 508 743 q 699 596 646 668 q 825 707 757 671 q 981 743 893 743 q 1134 715 1064 743 q 1256 637 1204 688 q 1336 517 1307 586 q 1367 364 1365 447 q 1365 328 1367 347 q 1361 296 1364 310 l 822 296 q 839 235 825 263 q 875 186 853 207 q 927 153 897 165 q 990 142 957 142 q 1088 167 1043 142 q 1147 233 1132 193 l 1329 181 q 1272 100 1307 136 q 1191 39 1236 64 q 1093 0 1146 14 q 983 -14 1040 -14 q 835 20 901 -14 q 699 125 769 54 q 565 19 629 51 q 421 -14 501 -14 m 424 174 q 540 227 494 174 q 585 364 585 281 q 540 501 585 447 q 424 554 494 554 q 358 540 388 554 q 307 501 329 526 q 273 440 285 475 q 261 364 261 406 q 307 226 261 279 q 424 174 353 174 m 1136 431 q 1084 542 1129 500 q 974 583 1039 583 q 865 541 907 583 q 815 431 822 499 l 1136 431 z "},"Ŕ":{"ha":931,"x_min":94,"x_max":917,"o":"m 507 1050 l 365 1089 l 438 1269 l 639 1269 l 507 1050 m 94 0 l 94 986 l 539 986 q 667 957 608 986 q 769 881 726 928 q 837 774 813 833 q 861 653 861 714 q 850 565 861 607 q 818 485 839 522 q 767 417 797 447 q 700 367 738 388 l 917 0 l 660 0 l 471 318 l 322 318 l 322 0 l 94 0 m 322 517 l 531 517 q 600 555 571 517 q 629 653 629 593 q 596 750 629 714 q 524 786 563 786 l 322 786 l 322 517 z "},"ŕ":{"ha":556,"x_min":76,"x_max":539,"o":"m 404 794 l 263 833 l 335 1014 l 536 1014 l 404 794 m 539 539 q 393 513 458 538 q 299 438 328 488 l 299 0 l 76 0 l 76 729 l 281 729 l 281 582 q 377 697 318 656 q 503 740 436 739 q 525 740 518 740 q 539 739 532 740 l 539 539 z "},"Ŗ":{"ha":931,"x_min":94,"x_max":917,"o":"m 408 -296 l 451 -203 l 385 -203 l 385 -65 l 571 -65 l 571 -203 l 506 -296 l 408 -296 m 94 0 l 94 986 l 539 986 q 667 957 608 986 q 769 881 726 928 q 837 774 813 833 q 861 653 861 714 q 850 565 861 607 q 818 485 839 522 q 767 417 797 447 q 700 367 738 388 l 917 0 l 660 0 l 471 318 l 322 318 l 322 0 l 94 0 m 322 517 l 531 517 q 600 555 571 517 q 629 653 629 593 q 596 750 629 714 q 524 786 563 786 l 322 786 l 322 517 z "},"ŗ":{"ha":556,"x_min":76,"x_max":539,"o":"m 104 -296 l 147 -203 l 81 -203 l 81 -65 l 267 -65 l 267 -203 l 201 -296 l 104 -296 m 539 539 q 393 513 458 538 q 299 438 328 488 l 299 0 l 76 0 l 76 729 l 281 729 l 281 582 q 377 697 318 656 q 503 740 436 739 q 525 740 518 740 q 539 739 532 740 l 539 539 z "},"Ř":{"ha":931,"x_min":94,"x_max":917,"o":"m 325 1269 l 443 1182 l 561 1269 l 675 1218 l 524 1069 l 364 1069 l 211 1218 l 325 1269 m 94 0 l 94 986 l 539 986 q 667 957 608 986 q 769 881 726 928 q 837 774 813 833 q 861 653 861 714 q 850 565 861 607 q 818 485 839 522 q 767 417 797 447 q 700 367 738 388 l 917 0 l 660 0 l 471 318 l 322 318 l 322 0 l 94 0 m 322 517 l 531 517 q 600 555 571 517 q 629 653 629 593 q 596 750 629 714 q 524 786 563 786 l 322 786 l 322 517 z "},"ř":{"ha":556,"x_min":76,"x_max":572,"o":"m 222 1014 l 340 926 l 458 1014 l 572 963 l 421 814 l 261 814 l 108 963 l 222 1014 m 539 539 q 393 513 458 538 q 299 438 328 488 l 299 0 l 76 0 l 76 729 l 281 729 l 281 582 q 377 697 318 656 q 503 740 436 739 q 525 740 518 740 q 539 739 532 740 l 539 539 z "},"Ś":{"ha":854,"x_min":25,"x_max":815,"o":"m 513 1057 l 371 1096 l 443 1276 l 644 1276 l 513 1057 m 686 697 q 657 718 682 703 q 594 750 632 733 q 513 779 557 767 q 424 792 468 792 q 301 710 301 792 q 315 668 301 685 q 353 638 328 651 q 418 614 379 625 q 508 589 457 603 q 636 547 579 569 q 733 490 693 524 q 794 407 772 456 q 815 290 815 358 q 784 149 815 207 q 701 56 753 92 q 583 5 650 21 q 446 -11 517 -11 q 335 -3 392 -11 q 224 22 278 6 q 119 60 169 38 q 25 111 68 82 l 125 310 q 161 283 131 303 q 237 244 192 264 q 338 210 282 225 q 450 194 393 194 q 571 268 571 194 q 553 314 571 296 q 503 347 535 332 q 427 374 471 361 q 332 401 383 386 q 214 447 264 422 q 131 503 164 471 q 83 576 99 535 q 67 674 67 618 q 96 811 67 751 q 175 912 125 871 q 291 974 225 953 q 431 994 357 994 q 532 985 482 994 q 628 960 582 975 q 713 925 674 944 q 786 886 753 906 l 686 697 z "},"ś":{"ha":693,"x_min":28,"x_max":663,"o":"m 401 794 l 260 833 l 332 1014 l 533 1014 l 401 794 m 364 -14 q 181 16 271 -14 q 28 103 90 46 l 107 239 q 237 168 174 193 q 358 143 300 143 q 425 158 401 143 q 449 203 449 174 q 419 249 449 232 q 314 286 389 267 q 190 326 240 307 q 107 369 139 346 q 61 424 75 393 q 47 496 47 454 q 69 597 47 551 q 131 675 92 643 q 223 725 169 707 q 339 743 276 743 q 492 721 421 743 q 631 640 564 699 l 544 507 q 433 569 482 550 q 339 589 385 589 q 278 574 303 589 q 253 528 253 560 q 280 482 253 497 q 381 449 307 467 q 512 407 458 428 q 599 360 565 386 q 647 301 632 335 q 663 222 663 268 q 582 50 663 114 q 364 -14 501 -14 z "},"Ŝ":{"ha":854,"x_min":25,"x_max":815,"o":"m 218 1126 l 371 1276 l 531 1276 l 682 1126 l 568 1076 l 450 1164 l 332 1076 l 218 1126 m 686 697 q 657 718 682 703 q 594 750 632 733 q 513 779 557 767 q 424 792 468 792 q 301 710 301 792 q 315 668 301 685 q 353 638 328 651 q 418 614 379 625 q 508 589 457 603 q 636 547 579 569 q 733 490 693 524 q 794 407 772 456 q 815 290 815 358 q 784 149 815 207 q 701 56 753 92 q 583 5 650 21 q 446 -11 517 -11 q 335 -3 392 -11 q 224 22 278 6 q 119 60 169 38 q 25 111 68 82 l 125 310 q 161 283 131 303 q 237 244 192 264 q 338 210 282 225 q 450 194 393 194 q 571 268 571 194 q 553 314 571 296 q 503 347 535 332 q 427 374 471 361 q 332 401 383 386 q 214 447 264 422 q 131 503 164 471 q 83 576 99 535 q 67 674 67 618 q 96 811 67 751 q 175 912 125 871 q 291 974 225 953 q 431 994 357 994 q 532 985 482 994 q 628 960 582 975 q 713 925 674 944 q 786 886 753 906 l 686 697 z "},"ŝ":{"ha":693,"x_min":28,"x_max":663,"o":"m 107 864 l 260 1014 l 419 1014 l 571 864 l 457 814 l 339 901 l 221 814 l 107 864 m 364 -14 q 181 16 271 -14 q 28 103 90 46 l 107 239 q 237 168 174 193 q 358 143 300 143 q 425 158 401 143 q 449 203 449 174 q 419 249 449 232 q 314 286 389 267 q 190 326 240 307 q 107 369 139 346 q 61 424 75 393 q 47 496 47 454 q 69 597 47 551 q 131 675 92 643 q 223 725 169 707 q 339 743 276 743 q 492 721 421 743 q 631 640 564 699 l 544 507 q 433 569 482 550 q 339 589 385 589 q 278 574 303 589 q 253 528 253 560 q 280 482 253 497 q 381 449 307 467 q 512 407 458 428 q 599 360 565 386 q 647 301 632 335 q 663 222 663 268 q 582 50 663 114 q 364 -14 501 -14 z "},"Ş":{"ha":854,"x_min":25,"x_max":815,"o":"m 328 -176 q 379 -195 343 -186 q 453 -204 415 -204 q 508 -194 486 -204 q 531 -160 531 -185 q 510 -126 531 -136 q 456 -115 489 -115 q 394 -121 426 -115 q 346 -131 361 -126 l 404 -10 q 204 28 304 -3 q 25 111 104 58 l 125 310 q 161 283 131 303 q 237 244 192 264 q 338 210 282 225 q 450 194 393 194 q 571 268 571 194 q 553 314 571 296 q 503 347 535 332 q 427 374 471 361 q 332 401 383 386 q 214 447 264 422 q 131 503 164 471 q 83 576 99 535 q 67 674 67 618 q 96 811 67 751 q 175 912 125 871 q 291 974 225 953 q 431 994 357 994 q 532 985 482 994 q 628 960 582 975 q 713 925 674 944 q 786 886 753 906 l 686 697 q 657 718 682 703 q 594 750 632 733 q 513 779 557 767 q 424 792 468 792 q 301 710 301 792 q 315 668 301 685 q 353 638 328 651 q 418 614 379 625 q 508 589 457 603 q 636 547 579 569 q 733 490 693 524 q 794 407 772 456 q 815 290 815 358 q 789 159 815 214 q 719 69 763 104 q 617 15 675 33 q 494 -8 558 -4 l 465 -53 q 507 -49 483 -49 q 594 -73 557 -49 q 632 -151 632 -97 q 585 -245 632 -207 q 438 -283 538 -283 q 351 -274 389 -283 q 286 -254 314 -265 l 328 -176 z "},"ş":{"ha":693,"x_min":28,"x_max":663,"o":"m 251 -176 q 303 -195 267 -186 q 376 -204 339 -204 q 432 -194 410 -204 q 454 -160 454 -185 q 433 -126 454 -136 q 379 -115 413 -115 q 317 -121 350 -115 q 269 -131 285 -126 l 328 -12 q 164 22 243 -7 q 28 103 85 51 l 107 239 q 237 168 174 193 q 358 143 300 143 q 425 158 401 143 q 449 203 449 174 q 419 249 449 232 q 314 286 389 267 q 190 326 240 307 q 107 369 139 346 q 61 424 75 393 q 47 496 47 454 q 69 597 47 551 q 131 675 92 643 q 223 725 169 707 q 339 743 276 743 q 492 721 421 743 q 631 640 564 699 l 544 507 q 433 569 482 550 q 339 589 385 589 q 278 574 303 589 q 253 528 253 560 q 280 482 253 497 q 381 449 307 467 q 512 407 458 428 q 599 360 565 386 q 647 301 632 335 q 663 222 663 268 q 597 63 663 124 q 418 -11 532 1 l 389 -53 q 431 -49 407 -49 q 518 -73 481 -49 q 556 -151 556 -97 q 508 -245 556 -207 q 361 -283 461 -283 q 275 -274 313 -283 q 210 -254 238 -265 l 251 -176 z "},"Š":{"ha":854,"x_min":25,"x_max":815,"o":"m 332 1276 l 450 1189 l 568 1276 l 682 1225 l 531 1076 l 371 1076 l 218 1225 l 332 1276 m 686 697 q 657 718 682 703 q 594 750 632 733 q 513 779 557 767 q 424 792 468 792 q 301 710 301 792 q 315 668 301 685 q 353 638 328 651 q 418 614 379 625 q 508 589 457 603 q 636 547 579 569 q 733 490 693 524 q 794 407 772 456 q 815 290 815 358 q 784 149 815 207 q 701 56 753 92 q 583 5 650 21 q 446 -11 517 -11 q 335 -3 392 -11 q 224 22 278 6 q 119 60 169 38 q 25 111 68 82 l 125 310 q 161 283 131 303 q 237 244 192 264 q 338 210 282 225 q 450 194 393 194 q 571 268 571 194 q 553 314 571 296 q 503 347 535 332 q 427 374 471 361 q 332 401 383 386 q 214 447 264 422 q 131 503 164 471 q 83 576 99 535 q 67 674 67 618 q 96 811 67 751 q 175 912 125 871 q 291 974 225 953 q 431 994 357 994 q 532 985 482 994 q 628 960 582 975 q 713 925 674 944 q 786 886 753 906 l 686 697 z "},"š":{"ha":693,"x_min":28,"x_max":663,"o":"m 221 1014 l 339 926 l 457 1014 l 571 963 l 419 814 l 260 814 l 107 963 l 221 1014 m 364 -14 q 181 16 271 -14 q 28 103 90 46 l 107 239 q 237 168 174 193 q 358 143 300 143 q 425 158 401 143 q 449 203 449 174 q 419 249 449 232 q 314 286 389 267 q 190 326 240 307 q 107 369 139 346 q 61 424 75 393 q 47 496 47 454 q 69 597 47 551 q 131 675 92 643 q 223 725 169 707 q 339 743 276 743 q 492 721 421 743 q 631 640 564 699 l 544 507 q 433 569 482 550 q 339 589 385 589 q 278 574 303 589 q 253 528 253 560 q 280 482 253 497 q 381 449 307 467 q 512 407 458 428 q 599 360 565 386 q 647 301 632 335 q 663 222 663 268 q 582 50 663 114 q 364 -14 501 -14 z "},"Ţ":{"ha":863,"x_min":17,"x_max":846,"o":"m 306 -176 q 357 -195 321 -186 q 431 -204 393 -204 q 486 -194 464 -204 q 508 -160 508 -185 q 488 -126 508 -136 q 433 -115 467 -115 q 372 -121 404 -115 q 324 -131 339 -126 l 388 0 l 318 0 l 318 786 l 17 786 l 17 986 l 846 986 l 846 786 l 546 786 l 546 0 l 479 0 l 443 -53 q 485 -49 461 -49 q 572 -73 535 -49 q 610 -151 610 -97 q 563 -245 610 -207 q 415 -283 515 -283 q 329 -274 367 -283 q 264 -254 292 -265 l 306 -176 z "},"ţ":{"ha":558,"x_min":29,"x_max":549,"o":"m 213 -176 q 264 -195 228 -186 q 338 -204 300 -204 q 393 -194 371 -204 q 415 -160 415 -185 q 394 -126 415 -136 q 340 -115 374 -115 q 278 -121 311 -115 q 231 -131 246 -126 l 289 -11 q 170 42 218 -3 q 122 181 122 86 l 122 561 l 29 561 l 29 729 l 122 729 l 122 961 l 344 961 l 344 729 l 493 729 l 493 561 l 344 561 l 344 257 q 363 205 344 221 q 408 189 381 189 q 460 197 433 189 q 506 215 486 206 l 549 39 q 469 10 513 24 q 379 -10 425 -3 l 350 -53 q 392 -49 368 -49 q 479 -73 442 -49 q 517 -151 517 -97 q 469 -245 517 -207 q 322 -283 422 -283 q 236 -274 274 -283 q 171 -254 199 -265 l 213 -176 z "},"Ť":{"ha":863,"x_min":17,"x_max":846,"o":"m 322 1271 l 440 1183 l 558 1271 l 672 1219 l 521 1071 l 361 1071 l 208 1219 l 322 1271 m 846 786 l 546 786 l 546 0 l 318 0 l 318 786 l 17 786 l 17 986 l 846 986 l 846 786 z "},"ť":{"ha":558,"x_min":29,"x_max":671,"o":"m 539 794 l 397 833 l 469 1014 l 671 1014 l 539 794 m 549 39 q 444 3 503 19 q 325 -14 385 -14 q 247 -3 283 -14 q 182 30 210 7 q 138 90 154 53 q 122 181 122 128 l 122 561 l 29 561 l 29 729 l 122 729 l 122 961 l 344 961 l 344 729 l 493 729 l 493 561 l 344 561 l 344 257 q 363 205 344 221 q 408 189 381 189 q 460 197 433 189 q 506 215 486 206 l 549 39 z "},"Ŧ":{"ha":896,"x_min":33,"x_max":863,"o":"m 863 786 l 563 786 l 563 511 l 810 511 l 810 406 l 563 406 l 563 0 l 335 0 l 335 406 l 86 406 l 86 511 l 335 511 l 335 786 l 33 786 l 33 986 l 863 986 l 863 786 z "},"ŧ":{"ha":560,"x_min":31,"x_max":550,"o":"m 550 39 q 445 3 504 19 q 326 -14 386 -14 q 248 -3 285 -14 q 183 30 211 7 q 140 90 156 53 q 124 181 124 128 l 124 343 l 31 343 l 31 472 l 124 472 l 124 561 l 31 561 l 31 729 l 124 729 l 124 961 l 346 961 l 346 729 l 494 729 l 494 561 l 346 561 l 346 472 l 494 472 l 494 343 l 346 343 l 346 257 q 364 205 346 221 q 410 189 382 189 q 461 197 435 189 q 507 215 488 206 l 550 39 z "},"Ũ":{"ha":1038,"x_min":81,"x_max":956,"o":"m 518 194 q 617 219 576 194 q 682 283 657 243 q 717 376 707 324 q 728 482 728 428 l 728 986 l 956 986 l 956 482 q 930 290 956 379 q 851 135 904 201 q 715 30 797 68 q 518 -8 632 -8 q 317 32 400 -8 q 181 140 233 72 q 105 296 129 207 q 81 482 81 385 l 81 986 l 308 986 l 308 482 q 319 374 308 425 q 356 282 331 322 q 420 218 381 242 q 518 194 460 194 m 607 1074 q 551 1083 575 1074 q 506 1106 526 1093 q 465 1128 485 1118 q 422 1138 446 1138 q 386 1128 399 1138 q 367 1106 374 1118 q 358 1083 360 1093 q 357 1071 357 1072 l 238 1071 q 247 1119 238 1086 q 276 1185 256 1151 q 331 1243 297 1218 q 414 1268 365 1268 q 471 1258 447 1268 q 515 1235 494 1247 q 554 1212 535 1222 q 599 1201 574 1201 q 637 1212 622 1201 q 659 1235 651 1222 q 669 1258 667 1247 q 671 1271 671 1269 l 790 1271 q 781 1228 790 1260 q 749 1161 771 1196 q 693 1100 728 1126 q 607 1074 658 1074 z "},"ũ":{"ha":871,"x_min":69,"x_max":822,"o":"m 297 -14 q 127 56 185 -14 q 69 263 69 126 l 69 729 l 292 729 l 292 311 q 318 209 292 244 q 393 174 344 174 q 479 197 438 174 q 553 279 521 221 l 553 729 l 775 729 l 775 250 q 785 203 775 217 q 822 188 796 190 l 822 0 q 768 -9 790 -7 q 728 -11 746 -11 q 592 82 608 -11 l 588 126 q 463 20 538 54 q 297 -14 389 -14 m 511 817 q 455 826 479 817 q 410 849 431 836 q 369 871 389 861 q 326 881 350 881 q 290 871 303 881 q 271 849 278 861 q 263 826 264 836 q 261 814 261 815 l 142 814 q 151 862 142 829 q 181 928 160 894 q 235 986 201 961 q 318 1011 269 1011 q 375 1001 351 1011 q 419 978 399 990 q 458 955 439 965 q 503 944 478 944 q 541 955 526 944 q 563 978 556 965 q 573 1001 571 990 q 575 1014 575 1013 l 694 1014 q 685 971 694 1003 q 653 904 675 939 q 597 843 632 869 q 511 817 563 817 z "},"Ū":{"ha":1038,"x_min":81,"x_max":956,"o":"m 518 194 q 617 219 576 194 q 682 283 657 243 q 717 376 707 324 q 728 482 728 428 l 728 986 l 956 986 l 956 482 q 930 290 956 379 q 851 135 904 201 q 715 30 797 68 q 518 -8 632 -8 q 317 32 400 -8 q 181 140 233 72 q 105 296 129 207 q 81 482 81 385 l 81 986 l 308 986 l 308 482 q 319 374 308 425 q 356 282 331 322 q 420 218 381 242 q 518 194 460 194 m 308 1119 l 308 1254 l 731 1254 l 731 1119 l 308 1119 z "},"ū":{"ha":871,"x_min":69,"x_max":822,"o":"m 297 -14 q 127 56 185 -14 q 69 263 69 126 l 69 729 l 292 729 l 292 311 q 318 209 292 244 q 393 174 344 174 q 479 197 438 174 q 553 279 521 221 l 553 729 l 775 729 l 775 250 q 785 203 775 217 q 822 188 796 190 l 822 0 q 768 -9 790 -7 q 728 -11 746 -11 q 592 82 608 -11 l 588 126 q 463 20 538 54 q 297 -14 389 -14 m 213 863 l 213 997 l 635 997 l 635 863 l 213 863 z "},"Ŭ":{"ha":1038,"x_min":81,"x_max":956,"o":"m 518 194 q 617 219 576 194 q 682 283 657 243 q 717 376 707 324 q 728 482 728 428 l 728 986 l 956 986 l 956 482 q 930 290 956 379 q 851 135 904 201 q 715 30 797 68 q 518 -8 632 -8 q 317 32 400 -8 q 181 140 233 72 q 105 296 129 207 q 81 482 81 385 l 81 986 l 308 986 l 308 482 q 319 374 308 425 q 356 282 331 322 q 420 218 381 242 q 518 194 460 194 m 518 1164 q 574 1194 550 1164 q 603 1271 599 1224 l 718 1271 q 703 1189 718 1226 q 663 1124 689 1151 q 599 1082 636 1097 q 518 1067 563 1067 q 438 1082 474 1067 q 374 1124 401 1097 q 333 1189 347 1151 q 318 1271 318 1226 l 436 1271 q 460 1195 436 1226 q 518 1164 485 1164 z "},"ŭ":{"ha":871,"x_min":69,"x_max":822,"o":"m 297 -14 q 127 56 185 -14 q 69 263 69 126 l 69 729 l 292 729 l 292 311 q 318 209 292 244 q 393 174 344 174 q 479 197 438 174 q 553 279 521 221 l 553 729 l 775 729 l 775 250 q 785 203 775 217 q 822 188 796 190 l 822 0 q 768 -9 790 -7 q 728 -11 746 -11 q 592 82 608 -11 l 588 126 q 463 20 538 54 q 297 -14 389 -14 m 421 907 q 477 937 453 907 q 506 1014 501 967 l 621 1014 q 606 932 621 969 q 565 867 592 894 q 502 825 539 840 q 421 810 465 810 q 340 825 376 810 q 277 867 304 840 q 235 932 250 894 q 221 1014 221 969 l 339 1014 q 363 938 339 969 q 421 907 388 907 z "},"Ů":{"ha":1038,"x_min":81,"x_max":956,"o":"m 369 1157 q 410 1242 369 1214 q 518 1271 451 1271 q 625 1242 585 1271 q 665 1157 665 1214 q 625 1073 665 1101 q 518 1044 585 1044 q 410 1073 451 1044 q 369 1157 369 1101 m 518 1206 q 478 1192 494 1206 q 463 1158 463 1179 q 478 1124 463 1138 q 518 1110 494 1110 q 557 1123 540 1110 q 574 1158 574 1136 q 558 1192 574 1179 q 518 1206 542 1206 m 518 194 q 617 219 576 194 q 682 283 657 243 q 717 376 707 324 q 728 482 728 428 l 728 986 l 956 986 l 956 482 q 930 290 956 379 q 851 135 904 201 q 715 30 797 68 q 518 -8 632 -8 q 317 32 400 -8 q 181 140 233 72 q 105 296 129 207 q 81 482 81 385 l 81 986 l 308 986 l 308 482 q 319 374 308 425 q 356 282 331 322 q 420 218 381 242 q 518 194 460 194 z "},"ů":{"ha":871,"x_min":69,"x_max":822,"o":"m 274 900 q 315 985 274 957 q 422 1014 356 1014 q 529 985 489 1014 q 569 900 569 957 q 529 816 569 844 q 422 788 489 788 q 315 816 356 788 q 274 900 274 844 m 422 949 q 383 935 399 949 q 367 901 367 922 q 383 867 367 881 q 422 853 399 853 q 461 866 444 853 q 478 901 478 879 q 462 935 478 922 q 422 949 446 949 m 297 -14 q 127 56 185 -14 q 69 263 69 126 l 69 729 l 292 729 l 292 311 q 318 209 292 244 q 393 174 344 174 q 479 197 438 174 q 553 279 521 221 l 553 729 l 775 729 l 775 250 q 785 203 775 217 q 822 188 796 190 l 822 0 q 768 -9 790 -7 q 728 -11 746 -11 q 592 82 608 -11 l 588 126 q 463 20 538 54 q 297 -14 389 -14 z "},"Ű":{"ha":1038,"x_min":81,"x_max":956,"o":"m 518 194 q 617 219 576 194 q 682 283 657 243 q 717 376 707 324 q 728 482 728 428 l 728 986 l 956 986 l 956 482 q 930 290 956 379 q 851 135 904 201 q 715 30 797 68 q 518 -8 632 -8 q 317 32 400 -8 q 181 140 233 72 q 105 296 129 207 q 81 482 81 385 l 81 986 l 308 986 l 308 482 q 319 374 308 425 q 356 282 331 322 q 420 218 381 242 q 518 194 460 194 m 429 1053 l 322 1092 l 385 1272 l 551 1272 l 429 1053 m 672 1053 l 565 1092 l 626 1272 l 793 1272 l 672 1053 z "},"ű":{"ha":871,"x_min":69,"x_max":822,"o":"m 297 -14 q 127 56 185 -14 q 69 263 69 126 l 69 729 l 292 729 l 292 311 q 318 209 292 244 q 393 174 344 174 q 479 197 438 174 q 553 279 521 221 l 553 729 l 775 729 l 775 250 q 785 203 775 217 q 822 188 796 190 l 822 0 q 768 -9 790 -7 q 728 -11 746 -11 q 592 82 608 -11 l 588 126 q 463 20 538 54 q 297 -14 389 -14 m 333 796 l 226 835 l 289 1015 l 456 1015 l 333 796 m 576 796 l 469 835 l 531 1015 l 697 1015 l 576 796 z "},"Ų":{"ha":1038,"x_min":81,"x_max":956,"o":"m 518 194 q 617 219 576 194 q 682 283 657 243 q 717 376 707 324 q 728 482 728 428 l 728 986 l 956 986 l 956 482 q 933 301 956 386 q 862 150 910 215 q 741 44 814 85 q 567 -6 668 3 q 474 -114 474 -64 q 496 -152 474 -137 q 564 -168 518 -167 l 521 -285 q 383 -237 428 -274 q 338 -156 338 -201 q 365 -78 338 -117 q 449 -4 392 -40 q 280 52 350 8 q 165 161 210 96 q 101 309 121 226 q 81 482 81 392 l 81 986 l 308 986 l 308 482 q 319 374 308 425 q 356 282 331 322 q 420 218 381 242 q 518 194 460 194 z "},"ų":{"ha":872,"x_min":71,"x_max":824,"o":"m 299 -14 q 128 56 186 -14 q 71 263 71 126 l 71 729 l 293 729 l 293 311 q 319 209 293 244 q 394 174 346 174 q 481 197 439 174 q 554 279 522 221 l 554 729 l 776 729 l 776 250 q 787 203 776 217 q 824 188 797 190 l 824 0 q 719 -114 719 -62 q 742 -152 719 -137 q 810 -168 764 -167 l 767 -285 q 628 -237 674 -274 q 583 -156 583 -201 q 609 -80 583 -118 q 688 -7 635 -42 q 593 82 606 6 l 589 126 q 465 20 539 54 q 299 -14 390 -14 z "},"Ŵ":{"ha":1465,"x_min":-8,"x_max":1474,"o":"m 500 1121 l 653 1271 l 813 1271 l 964 1121 l 850 1071 l 732 1158 l 614 1071 l 500 1121 m 422 985 l 632 985 l 732 669 l 832 985 l 1043 985 l 878 526 l 978 261 l 1225 986 l 1474 986 l 1079 0 l 889 0 l 732 386 l 576 0 l 385 0 l -8 986 l 239 986 l 488 261 l 585 526 l 422 985 z "},"ŵ":{"ha":1181,"x_min":-6,"x_max":1186,"o":"m 358 864 l 511 1014 l 671 1014 l 822 864 l 708 814 l 590 901 l 472 814 l 358 864 m 975 729 l 1186 729 l 885 0 l 703 0 l 590 300 l 478 0 l 296 0 l -6 729 l 204 729 l 403 206 l 471 404 l 342 729 l 519 729 l 590 510 l 660 729 l 838 729 l 710 404 l 778 206 l 975 729 z "},"Ŷ":{"ha":921,"x_min":0,"x_max":924,"o":"m 247 986 l 460 533 l 675 986 l 924 986 l 572 336 l 572 0 l 346 0 l 346 339 l 0 986 l 247 986 m 226 1121 l 379 1271 l 539 1271 l 690 1121 l 576 1071 l 458 1158 l 340 1071 l 226 1121 z "},"ŷ":{"ha":767,"x_min":3,"x_max":756,"o":"m 82 -110 q 134 -124 110 -119 q 178 -128 158 -128 q 240 -100 218 -128 q 281 0 263 -72 l 3 729 l 232 729 l 401 190 l 547 729 l 756 729 l 478 -118 q 374 -265 449 -208 q 196 -321 299 -321 q 140 -316 168 -321 q 82 -300 111 -311 l 82 -110 m 169 864 l 322 1014 l 482 1014 l 633 864 l 519 814 l 401 901 l 283 814 l 169 864 z "},"Ÿ":{"ha":921,"x_min":0,"x_max":924,"o":"m 247 986 l 460 533 l 675 986 l 924 986 l 572 336 l 572 0 l 346 0 l 346 339 l 0 986 l 247 986 m 222 1082 l 222 1261 l 406 1261 l 406 1082 l 222 1082 m 514 1082 l 514 1261 l 697 1261 l 697 1082 l 514 1082 z "},"Ź":{"ha":868,"x_min":39,"x_max":821,"o":"m 513 1051 l 371 1090 l 443 1271 l 644 1271 l 513 1051 m 39 171 l 553 786 l 58 786 l 58 986 l 815 986 l 815 815 l 326 200 l 821 200 l 821 0 l 39 0 l 39 171 z "},"ź":{"ha":686,"x_min":33,"x_max":647,"o":"m 406 794 l 264 833 l 336 1014 l 538 1014 l 406 794 m 33 133 l 406 575 l 53 575 l 53 729 l 638 729 l 638 596 l 268 154 l 647 154 l 647 0 l 33 0 l 33 133 z "},"Ż":{"ha":868,"x_min":39,"x_max":821,"o":"m 39 171 l 553 786 l 58 786 l 58 986 l 815 986 l 815 815 l 326 200 l 821 200 l 821 0 l 39 0 l 39 171 m 349 1081 l 349 1271 l 549 1271 l 549 1081 l 349 1081 z "},"ż":{"ha":686,"x_min":33,"x_max":647,"o":"m 33 133 l 406 575 l 53 575 l 53 729 l 638 729 l 638 596 l 268 154 l 647 154 l 647 0 l 33 0 l 33 133 m 242 824 l 242 1014 l 442 1014 l 442 824 l 242 824 z "},"Ž":{"ha":868,"x_min":39,"x_max":821,"o":"m 331 1271 l 449 1183 l 567 1271 l 681 1219 l 529 1071 l 369 1071 l 217 1219 l 331 1271 m 39 171 l 553 786 l 58 786 l 58 986 l 815 986 l 815 815 l 326 200 l 821 200 l 821 0 l 39 0 l 39 171 z "},"ž":{"ha":686,"x_min":33,"x_max":647,"o":"m 224 1014 l 342 926 l 460 1014 l 574 963 l 422 814 l 263 814 l 110 963 l 224 1014 m 33 133 l 406 575 l 53 575 l 53 729 l 638 729 l 638 596 l 268 154 l 647 154 l 647 0 l 33 0 l 33 133 z "},"Ə":{"ha":1044,"x_min":22,"x_max":1006,"o":"m 517 -7 q 310 37 401 -7 q 154 149 218 81 q 56 303 90 218 q 22 474 22 389 q 25 522 22 497 q 31 563 28 546 l 757 563 q 730 660 751 618 q 676 732 708 703 q 602 776 643 761 q 517 790 561 790 q 448 781 482 790 q 386 755 414 772 q 338 713 358 738 q 308 658 317 689 l 74 731 q 246 920 131 849 q 518 992 361 992 q 721 949 631 992 q 874 836 811 906 q 972 679 938 767 q 1006 503 1006 592 q 972 315 1006 407 q 876 152 939 224 q 723 37 814 81 q 517 -7 632 -7 m 519 193 q 678 247 614 193 q 753 392 742 300 l 274 392 q 300 310 279 347 q 353 247 321 274 q 428 207 386 221 q 519 193 471 193 z "},"ƒ":{"ha":772,"x_min":40,"x_max":725,"o":"m 235 -281 q 131 -263 181 -281 q 40 -211 81 -246 l 133 -60 q 167 -82 147 -75 q 207 -89 186 -89 q 260 -68 239 -89 q 281 -12 281 -47 l 281 476 l 188 476 l 188 644 l 281 644 l 281 729 q 299 853 281 797 q 350 947 317 908 q 431 1007 383 986 q 535 1028 478 1028 q 725 985 624 1028 l 685 818 q 635 834 663 828 q 585 840 608 840 q 503 738 503 840 l 503 644 l 672 644 l 672 476 l 503 476 l 503 -7 q 482 -118 503 -68 q 425 -204 461 -168 q 340 -260 389 -240 q 235 -281 290 -281 z "},"Ǆ":{"ha":1863,"x_min":94,"x_max":1815,"o":"m 1325 1271 l 1443 1183 l 1561 1271 l 1675 1219 l 1524 1071 l 1364 1071 l 1211 1219 l 1325 1271 m 1033 171 l 1547 786 l 1053 786 l 1053 986 l 1810 986 l 1810 815 l 1321 200 l 1815 200 l 1815 0 l 1033 0 l 1033 171 m 94 0 l 94 986 l 463 986 q 676 947 585 986 q 830 842 768 908 q 923 685 892 775 q 954 494 954 596 q 919 291 954 382 q 820 135 885 200 q 665 35 756 71 q 463 0 574 0 l 94 0 m 722 494 q 705 613 722 560 q 654 706 688 667 q 572 765 621 744 q 463 786 524 786 l 322 786 l 322 200 l 463 200 q 574 222 525 200 q 655 284 622 244 q 705 377 688 324 q 722 494 722 431 z "},"ǅ":{"ha":1681,"x_min":94,"x_max":1642,"o":"m 1218 1014 l 1336 926 l 1454 1014 l 1568 963 l 1417 814 l 1257 814 l 1104 963 l 1218 1014 m 1028 133 l 1400 575 l 1047 575 l 1047 729 l 1632 729 l 1632 596 l 1263 154 l 1642 154 l 1642 0 l 1028 0 l 1028 133 m 94 0 l 94 986 l 463 986 q 676 947 585 986 q 830 842 768 908 q 923 685 892 775 q 954 494 954 596 q 919 291 954 382 q 820 135 885 200 q 665 35 756 71 q 463 0 574 0 l 94 0 m 722 494 q 705 613 722 560 q 654 706 688 667 q 572 765 621 744 q 463 786 524 786 l 322 786 l 322 200 l 463 200 q 574 222 525 200 q 655 284 622 244 q 705 377 688 324 q 722 494 722 431 z "},"ǆ":{"ha":1594,"x_min":35,"x_max":1556,"o":"m 1132 1014 l 1250 926 l 1368 1014 l 1482 963 l 1331 814 l 1171 814 l 1018 963 l 1132 1014 m 942 133 l 1314 575 l 961 575 l 961 729 l 1546 729 l 1546 596 l 1176 154 l 1556 154 l 1556 0 l 942 0 l 942 133 m 379 -14 q 241 15 304 -14 q 132 94 178 43 q 60 215 86 146 q 35 365 35 283 q 58 514 35 444 q 125 634 82 583 q 227 714 168 685 q 357 743 286 743 q 495 707 433 743 q 590 610 557 671 l 590 1014 l 813 1014 l 813 250 q 823 203 813 217 q 860 188 833 190 l 860 0 q 807 -9 829 -7 q 765 -11 785 -11 q 671 13 707 -11 q 629 83 635 38 l 625 121 q 520 19 586 53 q 379 -14 454 -14 m 439 174 q 527 201 485 174 q 592 275 569 228 l 592 428 q 524 519 571 483 q 428 554 478 554 q 362 538 392 554 q 310 496 332 522 q 276 435 288 469 q 264 361 264 400 q 277 286 264 321 q 313 226 290 251 q 369 188 336 201 q 439 174 401 174 z "},"Ǉ":{"ha":1499,"x_min":94,"x_max":1415,"o":"m 868 232 q 927 204 882 221 q 1032 188 972 188 q 1114 205 1083 188 q 1161 258 1144 222 q 1183 351 1178 294 q 1188 485 1188 407 l 1188 986 l 1415 986 l 1415 485 q 1403 280 1415 372 q 1352 122 1392 188 q 1236 21 1313 57 q 1032 -15 1160 -15 q 818 46 907 -15 l 868 232 m 94 0 l 94 986 l 322 986 l 322 200 l 800 200 l 800 0 l 94 0 z "},"ǈ":{"ha":1193,"x_min":94,"x_max":1118,"o":"m 850 -281 q 744 -263 794 -281 q 654 -211 694 -246 l 747 -60 q 782 -82 763 -75 q 822 -89 801 -89 q 875 -68 854 -89 q 896 -12 896 -47 l 896 729 l 1118 729 l 1118 4 q 1098 -111 1118 -58 q 1042 -201 1078 -164 q 956 -260 1006 -239 q 850 -281 907 -281 m 896 813 l 896 1014 l 1118 1014 l 1118 813 l 896 813 m 94 0 l 94 986 l 322 986 l 322 200 l 800 200 l 800 0 l 94 0 z "},"ǉ":{"ha":846,"x_min":74,"x_max":771,"o":"m 503 -281 q 397 -263 447 -281 q 307 -211 347 -246 l 400 -60 q 435 -82 415 -75 q 475 -89 454 -89 q 528 -68 507 -89 q 549 -12 549 -47 l 549 729 l 771 729 l 771 4 q 751 -111 771 -58 q 694 -201 731 -164 q 609 -260 658 -239 q 503 -281 560 -281 m 549 813 l 549 1014 l 771 1014 l 771 813 l 549 813 m 74 1014 l 296 1014 l 296 260 q 367 176 296 176 q 403 181 383 176 q 440 196 424 186 l 469 29 q 374 -1 428 10 q 272 -12 319 -12 q 125 38 176 -12 q 74 182 74 88 l 74 1014 z "},"Ǌ":{"ha":1740,"x_min":94,"x_max":1657,"o":"m 1110 232 q 1169 204 1124 221 q 1274 188 1214 188 q 1356 205 1325 188 q 1403 258 1386 222 q 1424 351 1419 294 q 1429 485 1429 407 l 1429 986 l 1657 986 l 1657 485 q 1645 280 1657 372 q 1594 122 1633 188 q 1478 21 1554 57 q 1274 -15 1401 -15 q 1060 46 1149 -15 l 1110 232 m 322 564 l 322 0 l 94 0 l 94 986 l 272 986 l 732 407 l 732 986 l 960 986 l 960 0 l 776 0 l 322 564 z "},"ǋ":{"ha":1435,"x_min":94,"x_max":1360,"o":"m 1092 -281 q 986 -263 1036 -281 q 896 -211 936 -246 l 989 -60 q 1024 -82 1004 -75 q 1064 -89 1043 -89 q 1117 -68 1096 -89 q 1138 -12 1138 -47 l 1138 729 l 1360 729 l 1360 4 q 1340 -111 1360 -58 q 1283 -201 1319 -164 q 1198 -260 1247 -239 q 1092 -281 1149 -281 m 1138 813 l 1138 1014 l 1360 1014 l 1360 813 l 1138 813 m 322 564 l 322 0 l 94 0 l 94 986 l 272 986 l 732 407 l 732 986 l 960 986 l 960 0 l 776 0 l 322 564 z "},"ǌ":{"ha":1231,"x_min":76,"x_max":1156,"o":"m 888 -281 q 782 -263 832 -281 q 692 -211 732 -246 l 785 -60 q 819 -82 800 -75 q 860 -89 839 -89 q 913 -68 892 -89 q 933 -12 933 -47 l 933 729 l 1156 729 l 1156 4 q 1135 -111 1156 -58 q 1079 -201 1115 -164 q 994 -260 1043 -239 q 888 -281 944 -281 m 933 813 l 933 1014 l 1156 1014 l 1156 813 l 933 813 m 779 0 l 557 0 l 557 410 q 530 515 557 482 q 458 547 503 547 q 411 538 435 547 q 365 510 388 528 q 326 469 343 493 q 299 418 308 446 l 299 0 l 76 0 l 76 729 l 276 729 l 276 607 q 390 708 317 672 q 560 743 464 743 q 674 717 631 743 q 740 651 717 692 q 772 561 764 610 q 779 467 779 513 l 779 0 z "},"Ǫ":{"ha":1056,"x_min":38,"x_max":1018,"o":"m 522 -285 q 384 -237 429 -274 q 339 -156 339 -201 q 367 -78 339 -117 q 451 -3 394 -39 q 281 58 357 11 q 150 173 204 106 q 67 324 96 240 q 38 494 38 407 q 74 682 38 592 q 177 841 111 772 q 333 951 243 910 q 531 992 424 992 q 731 949 640 992 q 885 835 821 906 q 983 674 949 764 q 1018 490 1018 583 q 985 311 1018 397 q 892 158 951 225 q 749 47 832 90 q 568 -6 667 3 q 475 -114 475 -64 q 497 -152 475 -137 q 565 -168 519 -167 l 522 -285 m 269 492 q 286 381 269 435 q 335 286 303 328 q 417 219 368 244 q 528 194 465 194 q 642 221 593 194 q 722 290 690 247 q 770 385 754 332 q 786 494 786 439 q 769 605 786 551 q 719 699 753 658 q 638 765 686 740 q 528 789 590 789 q 415 763 463 789 q 334 696 367 738 q 285 601 301 654 q 269 492 269 547 z "},"ǫ":{"ha":847,"x_min":33,"x_max":814,"o":"m 476 -285 q 338 -237 383 -274 q 293 -156 293 -201 q 390 -12 293 -79 q 238 26 304 -7 q 126 110 172 58 q 57 226 81 161 q 33 364 33 292 q 59 508 33 439 q 135 628 85 576 q 258 712 185 681 q 424 743 331 743 q 589 712 517 743 q 711 628 661 681 q 788 508 761 576 q 814 364 814 439 q 795 241 814 300 q 740 133 776 182 q 651 50 704 85 q 531 -1 599 15 q 429 -114 429 -61 q 451 -152 429 -137 q 519 -168 474 -167 l 476 -285 m 261 364 q 307 226 261 278 q 424 174 353 174 q 488 188 458 174 q 538 226 517 201 q 572 287 560 251 q 585 364 585 322 q 539 502 585 450 q 424 554 493 554 q 359 540 389 554 q 308 501 329 526 q 274 441 286 476 q 261 364 261 406 z "},"Ǳ":{"ha":1847,"x_min":94,"x_max":1801,"o":"m 1019 171 l 1533 786 l 1039 786 l 1039 986 l 1796 986 l 1796 815 l 1307 200 l 1801 200 l 1801 0 l 1019 0 l 1019 171 m 94 0 l 94 986 l 463 986 q 676 947 585 986 q 830 842 768 908 q 923 685 892 775 q 954 494 954 596 q 919 291 954 382 q 820 135 885 200 q 665 35 756 71 q 463 0 574 0 l 94 0 m 722 494 q 705 613 722 560 q 654 706 688 667 q 572 765 621 744 q 463 786 524 786 l 322 786 l 322 200 l 463 200 q 574 222 525 200 q 655 284 622 244 q 705 377 688 324 q 722 494 722 431 z "},"ǲ":{"ha":1674,"x_min":94,"x_max":1636,"o":"m 1022 133 l 1394 575 l 1042 575 l 1042 729 l 1626 729 l 1626 596 l 1257 154 l 1636 154 l 1636 0 l 1022 0 l 1022 133 m 94 0 l 94 986 l 463 986 q 676 947 585 986 q 830 842 768 908 q 923 685 892 775 q 954 494 954 596 q 919 291 954 382 q 820 135 885 200 q 665 35 756 71 q 463 0 574 0 l 94 0 m 722 494 q 705 613 722 560 q 654 706 688 667 q 572 765 621 744 q 463 786 524 786 l 322 786 l 322 200 l 463 200 q 574 222 525 200 q 655 284 622 244 q 705 377 688 324 q 722 494 722 431 z "},"ǳ":{"ha":1594,"x_min":35,"x_max":1556,"o":"m 942 133 l 1314 575 l 961 575 l 961 729 l 1546 729 l 1546 596 l 1176 154 l 1556 154 l 1556 0 l 942 0 l 942 133 m 379 -14 q 241 15 304 -14 q 132 94 178 43 q 60 215 86 146 q 35 365 35 283 q 58 514 35 444 q 125 634 82 583 q 227 714 168 685 q 357 743 286 743 q 495 707 433 743 q 590 610 557 671 l 590 1014 l 813 1014 l 813 250 q 823 203 813 217 q 860 188 833 190 l 860 0 q 807 -9 829 -7 q 765 -11 785 -11 q 671 13 707 -11 q 629 83 635 38 l 625 121 q 520 19 586 53 q 379 -14 454 -14 m 439 174 q 527 201 485 174 q 592 275 569 228 l 592 428 q 524 519 571 483 q 428 554 478 554 q 362 538 392 554 q 310 496 332 522 q 276 435 288 469 q 264 361 264 400 q 277 286 264 321 q 313 226 290 251 q 369 188 336 201 q 439 174 401 174 z "},"Ǵ":{"ha":1017,"x_min":39,"x_max":961,"o":"m 599 1051 l 457 1090 l 529 1271 l 731 1271 l 599 1051 m 772 97 q 513 -7 660 -7 q 329 30 415 -7 q 178 133 243 67 q 76 294 114 200 q 39 500 39 388 q 76 692 39 601 q 180 849 114 782 q 336 954 246 915 q 531 993 426 993 q 771 935 668 993 q 925 778 874 878 l 756 650 q 659 753 722 717 q 522 790 596 790 q 419 767 465 790 q 339 703 372 744 q 288 608 306 663 q 269 492 269 554 q 289 374 269 428 q 343 280 308 319 q 426 218 378 240 q 532 196 474 196 q 772 319 665 196 l 772 350 l 581 350 l 581 515 l 961 515 l 961 0 l 772 0 l 772 97 z "},"ǵ":{"ha":889,"x_min":36,"x_max":813,"o":"m 504 794 l 363 833 l 435 1014 l 636 1014 l 504 794 m 360 -3 q 228 26 288 -3 q 126 106 168 56 q 60 222 83 156 q 36 365 36 289 q 61 515 36 446 q 131 634 86 583 q 238 714 175 685 q 375 743 300 743 q 520 708 458 743 q 619 610 582 672 l 619 729 l 813 729 l 813 50 q 781 -100 813 -33 q 694 -213 750 -167 q 561 -285 639 -260 q 390 -310 483 -310 q 189 -272 272 -310 q 43 -164 106 -235 l 163 -43 q 263 -116 203 -89 q 390 -143 322 -143 q 467 -132 431 -143 q 531 -98 503 -121 q 574 -38 558 -75 q 590 50 590 -1 l 590 121 q 494 28 557 60 q 360 -3 432 -3 m 436 174 q 528 202 488 174 q 590 275 568 231 l 590 428 q 522 520 568 486 q 425 554 476 554 q 359 538 389 554 q 308 495 329 522 q 274 433 286 468 q 263 360 263 397 q 276 285 263 319 q 313 226 289 251 q 367 188 336 201 q 436 174 399 174 z "},"Ǻ":{"ha":931,"x_min":3,"x_max":928,"o":"m 574 1117 q 613 1033 613 1089 q 579 954 613 985 l 928 0 l 694 0 l 618 221 l 311 221 l 236 0 l 3 0 l 350 954 q 317 1033 317 981 q 344 1106 317 1079 q 418 1143 371 1133 l 478 1275 l 679 1275 l 574 1117 m 581 378 l 465 726 l 347 378 l 581 378 m 465 1082 q 426 1069 442 1082 q 410 1035 410 1056 q 426 1000 410 1014 q 465 986 442 986 q 504 999 488 986 q 521 1035 521 1013 q 505 1069 521 1056 q 465 1082 489 1082 z "},"ǻ":{"ha":814,"x_min":31,"x_max":776,"o":"m 283 -14 q 183 3 229 -14 q 103 52 136 21 q 50 126 69 83 q 31 218 31 168 q 53 317 31 272 q 118 393 76 361 q 217 443 160 425 q 343 461 274 461 q 432 453 389 461 q 507 431 475 446 l 507 464 q 361 590 507 590 q 247 570 301 590 q 133 510 193 550 l 68 649 q 218 719 140 696 q 383 743 296 743 q 639 665 549 743 q 729 438 729 588 l 729 250 q 740 203 729 217 q 776 188 750 190 l 776 0 q 724 -9 747 -7 q 681 -11 700 -11 q 586 13 618 -11 q 546 82 554 38 l 542 115 q 426 19 493 53 q 283 -14 358 -14 m 349 146 q 419 158 385 146 q 475 192 453 171 q 507 244 507 217 l 507 314 q 444 331 478 325 q 381 338 410 338 q 280 310 319 338 q 240 238 240 282 q 271 172 240 197 q 349 146 301 146 m 447 1043 l 306 1082 l 378 1263 l 579 1263 l 447 1043 m 235 900 q 276 985 235 957 q 383 1014 317 1014 q 490 985 450 1014 q 531 900 531 957 q 490 816 531 844 q 383 788 450 788 q 276 816 317 788 q 235 900 235 844 m 383 949 q 344 935 360 949 q 328 901 328 922 q 344 867 328 881 q 383 853 360 853 q 422 866 406 853 q 439 901 439 879 q 423 935 439 922 q 383 949 407 949 z "},"Ǽ":{"ha":1344,"x_min":-36,"x_max":1300,"o":"m 893 1051 l 751 1090 l 824 1271 l 1025 1271 l 893 1051 m 572 986 l 1288 986 l 1288 786 l 858 786 l 858 601 l 1213 601 l 1213 403 l 858 403 l 858 200 l 1300 200 l 1300 0 l 632 0 l 632 221 l 333 221 l 207 0 l -36 0 l 572 986 m 614 421 l 614 732 l 429 421 l 614 421 z "},"ǽ":{"ha":1304,"x_min":31,"x_max":1281,"o":"m 701 794 l 560 833 l 632 1014 l 833 1014 l 701 794 m 282 -14 q 182 3 228 -14 q 103 52 136 21 q 50 126 69 83 q 31 218 31 168 q 53 317 31 272 q 118 393 76 361 q 217 443 160 425 q 343 461 274 461 q 428 453 388 461 q 500 433 468 446 q 501 455 500 440 q 506 475 503 469 q 467 562 501 533 q 361 590 432 590 q 247 570 301 590 q 133 510 193 550 l 68 649 q 218 719 140 696 q 383 743 296 743 q 531 720 467 743 q 638 654 594 697 q 747 719 685 694 q 889 743 810 743 q 1055 713 982 743 q 1178 630 1128 682 q 1254 509 1228 578 q 1281 364 1281 440 q 1278 328 1281 347 q 1274 296 1276 310 l 732 296 q 749 231 735 260 q 787 184 764 203 q 838 156 810 165 q 897 146 867 146 q 992 169 947 146 q 1051 233 1036 193 l 1240 181 q 1108 40 1199 94 q 890 -14 1017 -14 q 703 26 783 -14 q 574 132 622 65 q 513 65 547 93 q 439 20 478 38 q 360 -6 400 3 q 282 -14 319 -14 m 347 146 q 417 158 383 146 q 475 192 451 171 q 507 243 507 217 q 504 256 506 246 q 502 279 503 267 q 501 302 501 292 q 500 317 500 313 q 440 332 472 326 q 381 338 408 338 q 280 310 319 338 q 240 238 240 282 q 271 172 240 197 q 347 146 301 146 m 1046 431 q 996 542 1039 500 q 886 583 953 583 q 777 542 819 583 q 728 431 735 500 l 1046 431 z "},"Ǿ":{"ha":1054,"x_min":36,"x_max":1017,"o":"m 1001 986 l 889 828 q 983 669 950 757 q 1017 490 1017 582 q 980 303 1017 393 q 878 144 943 213 q 722 33 813 75 q 525 -8 632 -8 q 325 35 418 -8 l 300 0 l 54 0 l 164 154 q 69 313 101 225 q 36 494 36 401 q 73 682 36 592 q 176 841 110 772 q 332 951 242 910 q 529 992 422 992 q 729 949 636 992 l 756 986 l 1001 986 m 268 492 q 276 415 268 453 q 299 344 283 378 l 606 776 q 568 785 588 782 q 526 789 549 789 q 413 763 461 789 q 333 696 365 738 q 284 601 300 654 q 268 492 268 547 m 785 494 q 777 569 785 532 q 754 639 769 606 l 447 206 q 526 194 485 194 q 640 221 592 194 q 721 290 689 247 q 769 385 753 332 q 785 494 785 439 m 590 1051 l 449 1090 l 521 1271 l 722 1271 l 590 1051 z "},"ǿ":{"ha":847,"x_min":33,"x_max":814,"o":"m 46 -7 l 136 97 q 60 219 86 150 q 33 364 33 288 q 59 508 33 439 q 135 628 85 576 q 258 712 185 681 q 424 743 331 743 q 536 729 485 743 q 631 692 588 715 l 668 736 l 790 736 l 704 636 q 785 513 757 583 q 814 364 814 443 q 788 220 814 289 q 713 99 763 151 q 590 17 663 47 q 424 -14 517 -14 q 208 42 299 -14 l 167 -7 l 46 -7 m 424 174 q 488 188 458 174 q 538 226 517 201 q 572 287 560 251 q 585 364 585 322 q 558 471 585 425 l 338 199 q 424 174 372 174 m 261 364 q 283 261 261 304 l 503 532 q 424 554 465 554 q 359 540 389 554 q 308 501 329 526 q 274 441 286 476 q 261 364 261 406 m 486 794 l 344 833 l 417 1014 l 618 1014 l 486 794 z "},"Ȁ":{"ha":931,"x_min":3,"x_max":928,"o":"m 363 986 l 568 986 l 928 0 l 694 0 l 618 221 l 311 221 l 236 0 l 3 0 l 363 986 m 581 378 l 465 726 l 347 378 l 581 378 m 442 1272 l 610 1272 l 671 1092 l 564 1053 l 442 1272 m 200 1272 l 367 1272 l 429 1092 l 321 1053 l 200 1272 z "},"̏":{"ha":529,"x_min":18,"x_max":489,"o":"m 260 1014 l 428 1014 l 489 833 l 382 794 l 260 1014 m 18 1014 l 185 1014 l 247 833 l 139 794 l 18 1014 z "},"ȁ":{"ha":814,"x_min":31,"x_max":776,"o":"m 283 -14 q 183 3 229 -14 q 103 52 136 21 q 50 126 69 83 q 31 218 31 168 q 53 317 31 272 q 118 393 76 361 q 217 443 160 425 q 343 461 274 461 q 432 453 389 461 q 507 431 475 446 l 507 464 q 361 590 507 590 q 247 570 301 590 q 133 510 193 550 l 68 649 q 218 719 140 696 q 383 743 296 743 q 639 665 549 743 q 729 438 729 588 l 729 250 q 740 203 729 217 q 776 188 750 190 l 776 0 q 724 -9 747 -7 q 681 -11 700 -11 q 586 13 618 -11 q 546 82 554 38 l 542 115 q 426 19 493 53 q 283 -14 358 -14 m 349 146 q 419 158 385 146 q 475 192 453 171 q 507 244 507 217 l 507 314 q 444 331 478 325 q 381 338 410 338 q 280 310 319 338 q 240 238 240 282 q 271 172 240 197 q 349 146 301 146 m 356 1014 l 524 1014 l 585 833 l 478 794 l 356 1014 m 114 1014 l 281 1014 l 343 833 l 235 794 l 114 1014 z "},"Ȃ":{"ha":931,"x_min":3,"x_max":928,"o":"m 363 986 l 568 986 l 928 0 l 694 0 l 618 221 l 311 221 l 236 0 l 3 0 l 363 986 m 581 378 l 465 726 l 347 378 l 581 378 m 465 1174 q 408 1142 432 1174 q 383 1067 383 1111 l 265 1067 q 280 1149 265 1111 q 322 1213 294 1186 q 385 1256 349 1240 q 465 1271 421 1271 q 547 1256 510 1271 q 610 1213 583 1240 q 651 1149 636 1186 q 665 1067 665 1111 l 550 1067 q 522 1144 546 1114 q 465 1174 497 1174 z "},"̑":{"ha":482,"x_min":40,"x_max":440,"o":"m 240 917 q 183 885 207 917 q 158 810 158 854 l 40 810 q 55 892 40 854 q 97 956 69 929 q 160 999 124 983 q 240 1014 196 1014 q 322 999 285 1014 q 385 956 358 983 q 426 892 411 929 q 440 810 440 854 l 325 810 q 297 887 321 857 q 240 917 272 917 z "},"ȃ":{"ha":814,"x_min":31,"x_max":776,"o":"m 283 -14 q 183 3 229 -14 q 103 52 136 21 q 50 126 69 83 q 31 218 31 168 q 53 317 31 272 q 118 393 76 361 q 217 443 160 425 q 343 461 274 461 q 432 453 389 461 q 507 431 475 446 l 507 464 q 361 590 507 590 q 247 570 301 590 q 133 510 193 550 l 68 649 q 218 719 140 696 q 383 743 296 743 q 639 665 549 743 q 729 438 729 588 l 729 250 q 740 203 729 217 q 776 188 750 190 l 776 0 q 724 -9 747 -7 q 681 -11 700 -11 q 586 13 618 -11 q 546 82 554 38 l 542 115 q 426 19 493 53 q 283 -14 358 -14 m 349 146 q 419 158 385 146 q 475 192 453 171 q 507 244 507 217 l 507 314 q 444 331 478 325 q 381 338 410 338 q 280 310 319 338 q 240 238 240 282 q 271 172 240 197 q 349 146 301 146 m 399 917 q 341 885 365 917 q 317 810 317 854 l 199 810 q 213 892 199 854 q 255 956 228 929 q 318 999 282 983 q 399 1014 354 1014 q 480 999 443 1014 q 543 956 517 983 q 584 892 569 929 q 599 810 599 854 l 483 810 q 455 887 479 857 q 399 917 431 917 z "},"Ȅ":{"ha":832,"x_min":94,"x_max":788,"o":"m 410 1272 l 578 1272 l 639 1092 l 532 1053 l 410 1272 m 168 1272 l 335 1272 l 397 1092 l 289 1053 l 168 1272 m 788 200 l 788 0 l 94 0 l 94 986 l 775 986 l 775 786 l 322 786 l 322 594 l 711 594 l 711 410 l 322 410 l 322 200 l 788 200 z "},"ȅ":{"ha":839,"x_min":33,"x_max":814,"o":"m 403 1014 l 571 1014 l 632 833 l 525 794 l 403 1014 m 161 1014 l 328 1014 l 390 833 l 282 794 l 161 1014 m 425 -14 q 260 16 333 -14 q 137 97 188 46 q 60 216 86 149 q 33 357 33 283 q 60 506 33 436 q 136 629 86 576 q 259 713 186 682 q 425 743 332 743 q 590 713 518 743 q 713 630 663 682 q 788 510 763 578 q 814 367 814 442 q 813 328 814 347 q 808 296 811 310 l 269 296 q 323 184 275 222 q 432 146 371 146 q 526 169 481 146 q 586 233 571 193 l 775 181 q 642 40 732 94 q 425 -14 551 -14 m 579 433 q 529 543 572 503 q 422 583 486 583 q 315 542 357 583 q 265 433 272 501 l 579 433 z "},"Ȇ":{"ha":832,"x_min":94,"x_max":788,"o":"m 442 1174 q 384 1142 408 1174 q 360 1067 360 1111 l 242 1067 q 256 1149 242 1111 q 298 1213 271 1186 q 361 1256 325 1240 q 442 1271 397 1271 q 523 1256 486 1271 q 586 1213 560 1240 q 627 1149 613 1186 q 642 1067 642 1111 l 526 1067 q 498 1144 522 1114 q 442 1174 474 1174 m 788 200 l 788 0 l 94 0 l 94 986 l 775 986 l 775 786 l 322 786 l 322 594 l 711 594 l 711 410 l 322 410 l 322 200 l 788 200 z "},"ȇ":{"ha":839,"x_min":33,"x_max":814,"o":"m 428 917 q 370 885 394 917 q 346 810 346 854 l 228 810 q 242 892 228 854 q 284 956 257 929 q 347 999 311 983 q 428 1014 383 1014 q 509 999 472 1014 q 572 956 546 983 q 613 892 599 929 q 628 810 628 854 l 513 810 q 484 887 508 857 q 428 917 460 917 m 425 -14 q 260 16 333 -14 q 137 97 188 46 q 60 216 86 149 q 33 357 33 283 q 60 506 33 436 q 136 629 86 576 q 259 713 186 682 q 425 743 332 743 q 590 713 518 743 q 713 630 663 682 q 788 510 763 578 q 814 367 814 442 q 813 328 814 347 q 808 296 811 310 l 269 296 q 323 184 275 222 q 432 146 371 146 q 526 169 481 146 q 586 233 571 193 l 775 181 q 642 40 732 94 q 425 -14 551 -14 m 579 433 q 529 543 572 503 q 422 583 486 583 q 315 542 357 583 q 265 433 272 501 l 579 433 z "},"Ȉ":{"ha":417,"x_min":-51,"x_max":419,"o":"m 94 0 l 94 986 l 322 986 l 322 0 l 94 0 m 190 1272 l 358 1272 l 419 1092 l 313 1053 l 190 1272 m -51 1272 l 115 1272 l 178 1092 l 69 1053 l -51 1272 z "},"ȉ":{"ha":375,"x_min":-68,"x_max":403,"o":"m 174 1014 l 342 1014 l 403 833 l 296 794 l 174 1014 m -68 1014 l 99 1014 l 161 833 l 53 794 l -68 1014 m 76 0 l 76 729 l 299 729 l 299 0 l 76 0 z "},"Ȋ":{"ha":417,"x_min":7,"x_max":407,"o":"m 94 0 l 94 986 l 322 986 l 322 0 l 94 0 m 207 1174 q 149 1142 174 1174 q 125 1067 125 1111 l 7 1067 q 22 1149 7 1111 q 63 1213 36 1186 q 126 1256 90 1240 q 207 1271 163 1271 q 288 1256 251 1271 q 351 1213 325 1240 q 392 1149 378 1186 q 407 1067 407 1111 l 292 1067 q 263 1144 288 1114 q 207 1174 239 1174 z "},"ȋ":{"ha":375,"x_min":-12,"x_max":388,"o":"m 188 917 q 130 885 154 917 q 106 810 106 854 l -12 810 q 2 892 -12 854 q 44 956 17 929 q 107 999 71 983 q 188 1014 143 1014 q 269 999 232 1014 q 332 956 306 983 q 373 892 358 929 q 388 810 388 854 l 272 810 q 244 887 268 857 q 188 917 219 917 m 76 0 l 76 729 l 299 729 l 299 0 l 76 0 z "},"Ȍ":{"ha":1056,"x_min":38,"x_max":1018,"o":"m 496 1272 l 664 1272 l 725 1092 l 618 1053 l 496 1272 m 254 1272 l 421 1272 l 483 1092 l 375 1053 l 254 1272 m 526 -8 q 326 35 417 -8 q 172 148 236 78 q 73 308 108 218 q 38 494 38 399 q 74 682 38 592 q 177 841 111 772 q 333 951 243 910 q 531 992 424 992 q 731 949 640 992 q 885 835 821 906 q 983 674 949 764 q 1018 490 1018 583 q 981 303 1018 393 q 879 144 944 213 q 724 33 814 75 q 526 -8 633 -8 m 269 492 q 286 381 269 435 q 335 286 303 328 q 417 219 368 244 q 528 194 465 194 q 642 221 593 194 q 722 290 690 247 q 770 385 754 332 q 786 494 786 439 q 769 605 786 551 q 719 699 753 658 q 638 765 686 740 q 528 789 590 789 q 415 763 463 789 q 334 696 367 738 q 285 601 301 654 q 269 492 269 547 z "},"ȍ":{"ha":847,"x_min":33,"x_max":814,"o":"m 400 1014 l 568 1014 l 629 833 l 522 794 l 400 1014 m 158 1014 l 325 1014 l 388 833 l 279 794 l 158 1014 m 424 -14 q 258 17 331 -14 q 135 99 185 47 q 59 220 85 151 q 33 364 33 289 q 59 508 33 439 q 135 628 85 576 q 258 712 185 681 q 424 743 331 743 q 589 712 517 743 q 711 628 661 681 q 788 508 761 576 q 814 364 814 439 q 788 220 814 289 q 713 99 763 151 q 590 17 663 47 q 424 -14 517 -14 m 261 364 q 307 226 261 278 q 424 174 353 174 q 488 188 458 174 q 538 226 517 201 q 572 287 560 251 q 585 364 585 322 q 539 502 585 450 q 424 554 493 554 q 359 540 389 554 q 308 501 329 526 q 274 441 286 476 q 261 364 261 406 z "},"Ȏ":{"ha":1056,"x_min":38,"x_max":1018,"o":"m 529 1174 q 472 1142 496 1174 q 447 1067 447 1111 l 329 1067 q 344 1149 329 1111 q 385 1213 358 1186 q 449 1256 413 1240 q 529 1271 485 1271 q 610 1256 574 1271 q 674 1213 647 1240 q 715 1149 700 1186 q 729 1067 729 1111 l 614 1067 q 585 1144 610 1114 q 529 1174 561 1174 m 526 -8 q 326 35 417 -8 q 172 148 236 78 q 73 308 108 218 q 38 494 38 399 q 74 682 38 592 q 177 841 111 772 q 333 951 243 910 q 531 992 424 992 q 731 949 640 992 q 885 835 821 906 q 983 674 949 764 q 1018 490 1018 583 q 981 303 1018 393 q 879 144 944 213 q 724 33 814 75 q 526 -8 633 -8 m 269 492 q 286 381 269 435 q 335 286 303 328 q 417 219 368 244 q 528 194 465 194 q 642 221 593 194 q 722 290 690 247 q 770 385 754 332 q 786 494 786 439 q 769 605 786 551 q 719 699 753 658 q 638 765 686 740 q 528 789 590 789 q 415 763 463 789 q 334 696 367 738 q 285 601 301 654 q 269 492 269 547 z "},"ȏ":{"ha":847,"x_min":33,"x_max":814,"o":"m 422 917 q 365 885 389 917 q 340 810 340 854 l 222 810 q 237 892 222 854 q 278 956 251 929 q 342 999 306 983 q 422 1014 378 1014 q 503 999 467 1014 q 567 956 540 983 q 608 892 593 929 q 622 810 622 854 l 507 810 q 478 887 503 857 q 422 917 454 917 m 424 -14 q 258 17 331 -14 q 135 99 185 47 q 59 220 85 151 q 33 364 33 289 q 59 508 33 439 q 135 628 85 576 q 258 712 185 681 q 424 743 331 743 q 589 712 517 743 q 711 628 661 681 q 788 508 761 576 q 814 364 814 439 q 788 220 814 289 q 713 99 763 151 q 590 17 663 47 q 424 -14 517 -14 m 261 364 q 307 226 261 278 q 424 174 353 174 q 488 188 458 174 q 538 226 517 201 q 572 287 560 251 q 585 364 585 322 q 539 502 585 450 q 424 554 493 554 q 359 540 389 554 q 308 501 329 526 q 274 441 286 476 q 261 364 261 406 z "},"Ȑ":{"ha":931,"x_min":94,"x_max":917,"o":"m 410 1272 l 578 1272 l 639 1092 l 532 1053 l 410 1272 m 168 1272 l 335 1272 l 397 1092 l 289 1053 l 168 1272 m 94 0 l 94 986 l 539 986 q 667 957 608 986 q 769 881 726 928 q 837 774 813 833 q 861 653 861 714 q 850 565 861 607 q 818 485 839 522 q 767 417 797 447 q 700 367 738 388 l 917 0 l 660 0 l 471 318 l 322 318 l 322 0 l 94 0 m 322 517 l 531 517 q 600 555 571 517 q 629 653 629 593 q 596 750 629 714 q 524 786 563 786 l 322 786 l 322 517 z "},"ȑ":{"ha":556,"x_min":47,"x_max":539,"o":"m 289 1014 l 457 1014 l 518 833 l 411 794 l 289 1014 m 47 1014 l 214 1014 l 276 833 l 168 794 l 47 1014 m 539 539 q 393 513 458 538 q 299 438 328 488 l 299 0 l 76 0 l 76 729 l 281 729 l 281 582 q 377 697 318 656 q 503 740 436 739 q 525 740 518 740 q 539 739 532 740 l 539 539 z "},"Ȓ":{"ha":931,"x_min":94,"x_max":917,"o":"m 447 1174 q 390 1142 414 1174 q 365 1067 365 1111 l 247 1067 q 262 1149 247 1111 q 303 1213 276 1186 q 367 1256 331 1240 q 447 1271 403 1271 q 528 1256 492 1271 q 592 1213 565 1240 q 633 1149 618 1186 q 647 1067 647 1111 l 532 1067 q 503 1144 528 1114 q 447 1174 479 1174 m 94 0 l 94 986 l 539 986 q 667 957 608 986 q 769 881 726 928 q 837 774 813 833 q 861 653 861 714 q 850 565 861 607 q 818 485 839 522 q 767 417 797 447 q 700 367 738 388 l 917 0 l 660 0 l 471 318 l 322 318 l 322 0 l 94 0 m 322 517 l 531 517 q 600 555 571 517 q 629 653 629 593 q 596 750 629 714 q 524 786 563 786 l 322 786 l 322 517 z "},"ȓ":{"ha":556,"x_min":76,"x_max":539,"o":"m 303 917 q 245 885 269 917 q 221 810 221 854 l 103 810 q 117 892 103 854 q 159 956 132 929 q 222 999 186 983 q 303 1014 258 1014 q 384 999 347 1014 q 447 956 421 983 q 488 892 474 929 q 503 810 503 854 l 388 810 q 359 887 383 857 q 303 917 335 917 m 539 539 q 393 513 458 538 q 299 438 328 488 l 299 0 l 76 0 l 76 729 l 281 729 l 281 582 q 377 697 318 656 q 503 740 436 739 q 525 740 518 740 q 539 739 532 740 l 539 539 z "},"Ȕ":{"ha":1038,"x_min":81,"x_max":956,"o":"m 492 1272 l 660 1272 l 721 1092 l 614 1053 l 492 1272 m 250 1272 l 417 1272 l 479 1092 l 371 1053 l 250 1272 m 518 194 q 617 219 576 194 q 682 283 657 243 q 717 376 707 324 q 728 482 728 428 l 728 986 l 956 986 l 956 482 q 930 290 956 379 q 851 135 904 201 q 715 30 797 68 q 518 -8 632 -8 q 317 32 400 -8 q 181 140 233 72 q 105 296 129 207 q 81 482 81 385 l 81 986 l 308 986 l 308 482 q 319 374 308 425 q 356 282 331 322 q 420 218 381 242 q 518 194 460 194 z "},"ȕ":{"ha":871,"x_min":69,"x_max":822,"o":"m 404 1014 l 572 1014 l 633 833 l 526 794 l 404 1014 m 163 1014 l 329 1014 l 392 833 l 283 794 l 163 1014 m 297 -14 q 127 56 185 -14 q 69 263 69 126 l 69 729 l 292 729 l 292 311 q 318 209 292 244 q 393 174 344 174 q 479 197 438 174 q 553 279 521 221 l 553 729 l 775 729 l 775 250 q 785 203 775 217 q 822 188 796 190 l 822 0 q 768 -9 790 -7 q 728 -11 746 -11 q 592 82 608 -11 l 588 126 q 463 20 538 54 q 297 -14 389 -14 z "},"Ȗ":{"ha":1038,"x_min":81,"x_max":956,"o":"m 517 1174 q 459 1142 483 1174 q 435 1067 435 1111 l 317 1067 q 331 1149 317 1111 q 373 1213 346 1186 q 436 1256 400 1240 q 517 1271 472 1271 q 598 1256 561 1271 q 661 1213 635 1240 q 702 1149 688 1186 q 717 1067 717 1111 l 601 1067 q 573 1144 597 1114 q 517 1174 549 1174 m 518 194 q 617 219 576 194 q 682 283 657 243 q 717 376 707 324 q 728 482 728 428 l 728 986 l 956 986 l 956 482 q 930 290 956 379 q 851 135 904 201 q 715 30 797 68 q 518 -8 632 -8 q 317 32 400 -8 q 181 140 233 72 q 105 296 129 207 q 81 482 81 385 l 81 986 l 308 986 l 308 482 q 319 374 308 425 q 356 282 331 322 q 420 218 381 242 q 518 194 460 194 z "},"ȗ":{"ha":871,"x_min":69,"x_max":822,"o":"m 418 917 q 360 885 385 917 q 336 810 336 854 l 218 810 q 233 892 218 854 q 274 956 247 929 q 338 999 301 983 q 418 1014 374 1014 q 499 999 463 1014 q 563 956 536 983 q 603 892 589 929 q 618 810 618 854 l 503 810 q 474 887 499 857 q 418 917 450 917 m 297 -14 q 127 56 185 -14 q 69 263 69 126 l 69 729 l 292 729 l 292 311 q 318 209 292 244 q 393 174 344 174 q 479 197 438 174 q 553 279 521 221 l 553 729 l 775 729 l 775 250 q 785 203 775 217 q 822 188 796 190 l 822 0 q 768 -9 790 -7 q 728 -11 746 -11 q 592 82 608 -11 l 588 126 q 463 20 538 54 q 297 -14 389 -14 z "},"Ș":{"ha":854,"x_min":25,"x_max":815,"o":"m 376 -296 l 419 -203 l 353 -203 l 353 -65 l 539 -65 l 539 -203 l 474 -296 l 376 -296 m 686 697 q 657 718 682 703 q 594 750 632 733 q 513 779 557 767 q 424 792 468 792 q 301 710 301 792 q 315 668 301 685 q 353 638 328 651 q 418 614 379 625 q 508 589 457 603 q 636 547 579 569 q 733 490 693 524 q 794 407 772 456 q 815 290 815 358 q 784 149 815 207 q 701 56 753 92 q 583 5 650 21 q 446 -11 517 -11 q 335 -3 392 -11 q 224 22 278 6 q 119 60 169 38 q 25 111 68 82 l 125 310 q 161 283 131 303 q 237 244 192 264 q 338 210 282 225 q 450 194 393 194 q 571 268 571 194 q 553 314 571 296 q 503 347 535 332 q 427 374 471 361 q 332 401 383 386 q 214 447 264 422 q 131 503 164 471 q 83 576 99 535 q 67 674 67 618 q 96 811 67 751 q 175 912 125 871 q 291 974 225 953 q 431 994 357 994 q 532 985 482 994 q 628 960 582 975 q 713 925 674 944 q 786 886 753 906 l 686 697 z "},"ș":{"ha":693,"x_min":28,"x_max":663,"o":"m 289 -296 l 332 -203 l 265 -203 l 265 -65 l 451 -65 l 451 -203 l 386 -296 l 289 -296 m 364 -14 q 181 16 271 -14 q 28 103 90 46 l 107 239 q 237 168 174 193 q 358 143 300 143 q 425 158 401 143 q 449 203 449 174 q 419 249 449 232 q 314 286 389 267 q 190 326 240 307 q 107 369 139 346 q 61 424 75 393 q 47 496 47 454 q 69 597 47 551 q 131 675 92 643 q 223 725 169 707 q 339 743 276 743 q 492 721 421 743 q 631 640 564 699 l 544 507 q 433 569 482 550 q 339 589 385 589 q 278 574 303 589 q 253 528 253 560 q 280 482 253 497 q 381 449 307 467 q 512 407 458 428 q 599 360 565 386 q 647 301 632 335 q 663 222 663 268 q 582 50 663 114 q 364 -14 501 -14 z "},"Ț":{"ha":863,"x_min":17,"x_max":846,"o":"m 367 -296 l 410 -203 l 343 -203 l 343 -65 l 529 -65 l 529 -203 l 464 -296 l 367 -296 m 846 786 l 546 786 l 546 0 l 318 0 l 318 786 l 17 786 l 17 986 l 846 986 l 846 786 z "},"ț":{"ha":558,"x_min":29,"x_max":549,"o":"m 250 -296 l 293 -203 l 226 -203 l 226 -65 l 413 -65 l 413 -203 l 347 -296 l 250 -296 m 549 39 q 444 3 503 19 q 325 -14 385 -14 q 247 -3 283 -14 q 182 30 210 7 q 138 90 154 53 q 122 181 122 128 l 122 561 l 29 561 l 29 729 l 122 729 l 122 961 l 344 961 l 344 729 l 493 729 l 493 561 l 344 561 l 344 257 q 363 205 344 221 q 408 189 381 189 q 460 197 433 189 q 506 215 486 206 l 549 39 z "},"ə":{"ha":839,"x_min":25,"x_max":806,"o":"m 415 -14 q 249 17 322 -14 q 126 99 176 47 q 51 220 76 151 q 25 364 25 289 q 26 401 25 382 q 31 433 28 419 l 569 433 q 516 544 564 507 q 407 582 468 582 q 313 558 357 582 q 253 494 268 535 l 64 549 q 197 688 107 633 q 414 743 288 743 q 578 713 506 743 q 702 631 651 682 q 779 513 753 581 q 806 369 806 444 q 780 222 806 292 q 704 99 754 151 q 581 17 654 47 q 415 -14 508 -14 m 418 146 q 525 187 483 146 q 574 297 567 228 l 260 297 q 310 187 267 228 q 418 146 354 146 z "},"ˉ":{"ha":594,"x_min":86,"x_max":508,"o":"m 86 863 l 86 997 l 508 997 l 508 863 l 86 863 z "},"Δ":{"ha":910,"x_min":22,"x_max":888,"o":"m 888 175 l 888 0 l 22 0 l 22 175 l 364 986 l 549 986 l 888 175 m 668 200 l 456 735 l 249 200 l 668 200 z "},"Ω":{"ha":1088,"x_min":47,"x_max":1039,"o":"m 47 158 l 267 158 q 116 306 171 214 q 61 517 61 399 q 98 697 61 611 q 199 849 135 783 q 352 954 264 915 q 543 993 440 993 q 735 954 647 993 q 888 849 824 915 q 989 697 953 783 q 1025 517 1025 611 q 971 306 1025 399 q 821 158 917 214 l 1039 158 l 1039 0 l 599 0 l 599 158 q 683 213 646 176 q 747 299 721 250 q 788 403 774 347 q 801 517 801 460 q 783 617 801 568 q 732 704 765 665 q 651 767 699 743 q 543 790 603 790 q 435 767 483 790 q 354 704 388 743 q 303 617 321 665 q 286 517 286 568 q 300 403 286 460 q 340 299 314 347 q 404 213 367 250 q 488 158 442 176 l 488 0 l 47 0 l 47 158 z "},"μ":{"ha":888,"x_min":76,"x_max":839,"o":"m 76 729 l 299 729 l 299 311 q 325 209 299 244 q 406 174 351 174 q 486 197 444 174 q 560 279 528 221 l 560 729 l 782 729 l 782 250 q 794 203 782 217 q 839 188 807 190 l 839 0 q 779 -9 804 -7 q 735 -11 754 -11 q 641 15 676 -11 q 599 85 606 40 l 594 126 q 565 81 586 106 q 517 36 544 57 q 458 1 490 15 q 392 -14 425 -14 q 348 -6 367 -14 q 315 12 329 1 q 294 34 301 22 q 285 53 286 46 l 299 -296 l 76 -296 l 76 729 z "},"π":{"ha":918,"x_min":36,"x_max":896,"o":"m 358 536 l 358 0 l 138 0 l 138 536 l 36 536 l 36 725 l 844 725 l 844 536 l 722 536 l 722 260 q 793 176 722 176 q 830 181 810 176 q 867 196 850 186 l 896 29 q 800 -1 854 10 q 699 -12 746 -12 q 552 38 604 -12 q 500 182 500 88 l 500 536 l 358 536 z "},"Ḍ":{"ha":994,"x_min":94,"x_max":954,"o":"m 376 -283 l 376 -93 l 576 -93 l 576 -283 l 376 -283 m 94 0 l 94 986 l 463 986 q 676 947 585 986 q 830 842 768 908 q 923 685 892 775 q 954 494 954 596 q 919 291 954 382 q 820 135 885 200 q 665 35 756 71 q 463 0 574 0 l 94 0 m 722 494 q 705 613 722 560 q 654 706 688 667 q 572 765 621 744 q 463 786 524 786 l 322 786 l 322 200 l 463 200 q 574 222 525 200 q 655 284 622 244 q 705 377 688 324 q 722 494 722 431 z "},"ḍ":{"ha":908,"x_min":35,"x_max":860,"o":"m 371 -283 l 371 -93 l 571 -93 l 571 -283 l 371 -283 m 379 -14 q 241 15 304 -14 q 132 94 178 43 q 60 215 86 146 q 35 365 35 283 q 58 514 35 444 q 125 634 82 583 q 227 714 168 685 q 357 743 286 743 q 495 707 433 743 q 590 610 557 671 l 590 1014 l 813 1014 l 813 250 q 823 203 813 217 q 860 188 833 190 l 860 0 q 807 -9 829 -7 q 765 -11 785 -11 q 671 13 707 -11 q 629 83 635 38 l 625 121 q 520 19 586 53 q 379 -14 454 -14 m 439 174 q 527 201 485 174 q 592 275 569 228 l 592 428 q 524 519 571 483 q 428 554 478 554 q 362 538 392 554 q 310 496 332 522 q 276 435 288 469 q 264 361 264 400 q 277 286 264 321 q 313 226 290 251 q 369 188 336 201 q 439 174 401 174 z "},"Ḥ":{"ha":1038,"x_min":94,"x_max":943,"o":"m 943 986 l 943 0 l 715 0 l 715 404 l 322 404 l 322 0 l 94 0 l 94 986 l 322 986 l 322 604 l 715 604 l 715 986 l 943 986 m 417 -283 l 417 -93 l 617 -93 l 617 -283 l 417 -283 z "},"ḥ":{"ha":850,"x_min":76,"x_max":779,"o":"m 779 0 l 557 0 l 557 410 q 529 514 557 481 q 453 547 501 547 q 410 538 433 547 q 366 512 388 529 q 326 471 344 494 q 299 418 308 447 l 299 0 l 76 0 l 76 1014 l 299 1014 l 299 607 q 405 708 339 672 q 550 743 471 743 q 669 717 624 743 q 738 652 714 692 q 771 563 763 613 q 779 467 779 514 l 779 0 m 328 -283 l 328 -93 l 528 -93 l 528 -283 l 328 -283 z "},"Ṅ":{"ha":1054,"x_min":94,"x_max":960,"o":"m 425 1079 l 425 1269 l 625 1269 l 625 1079 l 425 1079 m 322 564 l 322 0 l 94 0 l 94 986 l 272 986 l 732 407 l 732 986 l 960 986 l 960 0 l 776 0 l 322 564 z "},"ṅ":{"ha":850,"x_min":76,"x_max":779,"o":"m 350 824 l 350 1014 l 550 1014 l 550 824 l 350 824 m 779 0 l 557 0 l 557 410 q 530 515 557 482 q 458 547 503 547 q 411 538 435 547 q 365 510 388 528 q 326 469 343 493 q 299 418 308 446 l 299 0 l 76 0 l 76 729 l 276 729 l 276 607 q 390 708 317 672 q 560 743 464 743 q 674 717 631 743 q 740 651 717 692 q 772 561 764 610 q 779 467 779 513 l 779 0 z "},"Ṛ":{"ha":931,"x_min":94,"x_max":917,"o":"m 94 0 l 94 986 l 539 986 q 667 957 608 986 q 769 881 726 928 q 837 774 813 833 q 861 653 861 714 q 850 565 861 607 q 818 485 839 522 q 767 417 797 447 q 700 367 738 388 l 917 0 l 660 0 l 471 318 l 322 318 l 322 0 l 94 0 m 322 517 l 531 517 q 600 555 571 517 q 629 653 629 593 q 596 750 629 714 q 524 786 563 786 l 322 786 l 322 517 m 372 -283 l 372 -93 l 572 -93 l 572 -283 l 372 -283 z "},"ṛ":{"ha":556,"x_min":76,"x_max":539,"o":"m 539 539 q 393 513 458 538 q 299 438 328 488 l 299 0 l 76 0 l 76 729 l 281 729 l 281 582 q 377 697 318 656 q 503 740 436 739 q 525 740 518 740 q 539 739 532 740 l 539 539 m 88 -283 l 88 -93 l 288 -93 l 288 -283 l 88 -283 z "},"Ṣ":{"ha":854,"x_min":25,"x_max":815,"o":"m 686 697 q 657 718 682 703 q 594 750 632 733 q 513 779 557 767 q 424 792 468 792 q 301 710 301 792 q 315 668 301 685 q 353 638 328 651 q 418 614 379 625 q 508 589 457 603 q 636 547 579 569 q 733 490 693 524 q 794 407 772 456 q 815 290 815 358 q 784 149 815 207 q 701 56 753 92 q 583 5 650 21 q 446 -11 517 -11 q 335 -3 392 -11 q 224 22 278 6 q 119 60 169 38 q 25 111 68 82 l 125 310 q 161 283 131 303 q 237 244 192 264 q 338 210 282 225 q 450 194 393 194 q 571 268 571 194 q 553 314 571 296 q 503 347 535 332 q 427 374 471 361 q 332 401 383 386 q 214 447 264 422 q 131 503 164 471 q 83 576 99 535 q 67 674 67 618 q 96 811 67 751 q 175 912 125 871 q 291 974 225 953 q 431 994 357 994 q 532 985 482 994 q 628 960 582 975 q 713 925 674 944 q 786 886 753 906 l 686 697 m 322 -283 l 322 -93 l 522 -93 l 522 -283 l 322 -283 z "},"ṣ":{"ha":693,"x_min":28,"x_max":663,"o":"m 364 -14 q 181 16 271 -14 q 28 103 90 46 l 107 239 q 237 168 174 193 q 358 143 300 143 q 425 158 401 143 q 449 203 449 174 q 419 249 449 232 q 314 286 389 267 q 190 326 240 307 q 107 369 139 346 q 61 424 75 393 q 47 496 47 454 q 69 597 47 551 q 131 675 92 643 q 223 725 169 707 q 339 743 276 743 q 492 721 421 743 q 631 640 564 699 l 544 507 q 433 569 482 550 q 339 589 385 589 q 278 574 303 589 q 253 528 253 560 q 280 482 253 497 q 381 449 307 467 q 512 407 458 428 q 599 360 565 386 q 647 301 632 335 q 663 222 663 268 q 582 50 663 114 q 364 -14 501 -14 m 247 -283 l 247 -93 l 447 -93 l 447 -283 l 247 -283 z "},"Ṭ":{"ha":863,"x_min":17,"x_max":846,"o":"m 328 -283 l 328 -93 l 528 -93 l 528 -283 l 328 -283 m 846 786 l 546 786 l 546 0 l 318 0 l 318 786 l 17 786 l 17 986 l 846 986 l 846 786 z "},"ṭ":{"ha":558,"x_min":29,"x_max":549,"o":"m 218 -283 l 218 -93 l 418 -93 l 418 -283 l 218 -283 m 549 39 q 444 3 503 19 q 325 -14 385 -14 q 247 -3 283 -14 q 182 30 210 7 q 138 90 154 53 q 122 181 122 128 l 122 561 l 29 561 l 29 729 l 122 729 l 122 961 l 344 961 l 344 729 l 493 729 l 493 561 l 344 561 l 344 257 q 363 205 344 221 q 408 189 381 189 q 460 197 433 189 q 506 215 486 206 l 549 39 z "},"Ẁ":{"ha":1465,"x_min":-8,"x_max":1474,"o":"m 422 985 l 632 985 l 732 669 l 832 985 l 1043 985 l 878 526 l 978 261 l 1225 986 l 1474 986 l 1079 0 l 889 0 l 732 386 l 576 0 l 385 0 l -8 986 l 239 986 l 488 261 l 585 526 l 422 985 m 536 1272 l 738 1272 l 810 1092 l 669 1053 l 536 1272 z "},"ẁ":{"ha":1181,"x_min":-6,"x_max":1186,"o":"m 975 729 l 1186 729 l 885 0 l 703 0 l 590 300 l 478 0 l 296 0 l -6 729 l 204 729 l 403 206 l 471 404 l 342 729 l 519 729 l 590 510 l 660 729 l 838 729 l 710 404 l 778 206 l 975 729 m 394 1015 l 596 1015 l 668 835 l 528 796 l 394 1015 z "},"Ẃ":{"ha":1465,"x_min":-8,"x_max":1474,"o":"m 796 1051 l 654 1090 l 726 1271 l 928 1271 l 796 1051 m 422 985 l 632 985 l 732 669 l 832 985 l 1043 985 l 878 526 l 978 261 l 1225 986 l 1474 986 l 1079 0 l 889 0 l 732 386 l 576 0 l 385 0 l -8 986 l 239 986 l 488 261 l 585 526 l 422 985 z "},"ẃ":{"ha":1181,"x_min":-6,"x_max":1186,"o":"m 654 794 l 513 833 l 585 1014 l 786 1014 l 654 794 m 975 729 l 1186 729 l 885 0 l 703 0 l 590 300 l 478 0 l 296 0 l -6 729 l 204 729 l 403 206 l 471 404 l 342 729 l 519 729 l 590 510 l 660 729 l 838 729 l 710 404 l 778 206 l 975 729 z "},"Ẅ":{"ha":1465,"x_min":-8,"x_max":1474,"o":"m 494 1082 l 494 1261 l 678 1261 l 678 1082 l 494 1082 m 786 1082 l 786 1261 l 969 1261 l 969 1082 l 786 1082 m 422 985 l 632 985 l 732 669 l 832 985 l 1043 985 l 878 526 l 978 261 l 1225 986 l 1474 986 l 1079 0 l 889 0 l 732 386 l 576 0 l 385 0 l -8 986 l 239 986 l 488 261 l 585 526 l 422 985 z "},"ẅ":{"ha":1181,"x_min":-6,"x_max":1186,"o":"m 353 825 l 353 1004 l 536 1004 l 536 825 l 353 825 m 644 825 l 644 1004 l 828 1004 l 828 825 l 644 825 m 975 729 l 1186 729 l 885 0 l 703 0 l 590 300 l 478 0 l 296 0 l -6 729 l 204 729 l 403 206 l 471 404 l 342 729 l 519 729 l 590 510 l 660 729 l 838 729 l 710 404 l 778 206 l 975 729 z "},"Ẓ":{"ha":868,"x_min":39,"x_max":821,"o":"m 39 171 l 553 786 l 58 786 l 58 986 l 815 986 l 815 815 l 326 200 l 821 200 l 821 0 l 39 0 l 39 171 m 339 -283 l 339 -93 l 539 -93 l 539 -283 l 339 -283 z "},"ẓ":{"ha":686,"x_min":33,"x_max":647,"o":"m 33 133 l 406 575 l 53 575 l 53 729 l 638 729 l 638 596 l 268 154 l 647 154 l 647 0 l 33 0 l 33 133 m 240 -283 l 240 -93 l 440 -93 l 440 -283 l 240 -283 z "},"Ẹ":{"ha":832,"x_min":94,"x_max":788,"o":"m 788 200 l 788 0 l 94 0 l 94 986 l 775 986 l 775 786 l 322 786 l 322 594 l 711 594 l 711 410 l 322 410 l 322 200 l 788 200 m 342 -283 l 342 -93 l 542 -93 l 542 -283 l 342 -283 z "},"ẹ":{"ha":839,"x_min":33,"x_max":814,"o":"m 425 -14 q 260 16 333 -14 q 137 97 188 46 q 60 216 86 149 q 33 357 33 283 q 60 506 33 436 q 136 629 86 576 q 259 713 186 682 q 425 743 332 743 q 590 713 518 743 q 713 630 663 682 q 788 510 763 578 q 814 367 814 442 q 813 328 814 347 q 808 296 811 310 l 269 296 q 323 184 275 222 q 432 146 371 146 q 526 169 481 146 q 586 233 571 193 l 775 181 q 642 40 732 94 q 425 -14 551 -14 m 579 433 q 529 543 572 503 q 422 583 486 583 q 315 542 357 583 q 265 433 272 501 l 579 433 m 317 -283 l 317 -93 l 517 -93 l 517 -283 l 317 -283 z "},"Ẽ":{"ha":832,"x_min":94,"x_max":788,"o":"m 788 200 l 788 0 l 94 0 l 94 986 l 775 986 l 775 786 l 322 786 l 322 594 l 711 594 l 711 410 l 322 410 l 322 200 l 788 200 m 535 1074 q 478 1083 503 1074 q 433 1106 454 1093 q 393 1128 413 1118 q 350 1138 374 1138 q 314 1128 326 1138 q 294 1106 301 1118 q 286 1083 288 1093 q 285 1071 285 1072 l 165 1071 q 174 1119 165 1086 q 204 1185 183 1151 q 259 1243 225 1218 q 342 1268 293 1268 q 399 1258 375 1268 q 442 1235 422 1247 q 482 1212 463 1222 q 526 1201 501 1201 q 565 1212 550 1201 q 587 1235 579 1222 q 597 1258 594 1247 q 599 1271 599 1269 l 718 1271 q 708 1228 718 1260 q 677 1161 699 1196 q 621 1100 656 1126 q 535 1074 586 1074 z "},"ẽ":{"ha":839,"x_min":33,"x_max":814,"o":"m 425 -14 q 260 16 333 -14 q 137 97 188 46 q 60 216 86 149 q 33 357 33 283 q 60 506 33 436 q 136 629 86 576 q 259 713 186 682 q 425 743 332 743 q 590 713 518 743 q 713 630 663 682 q 788 510 763 578 q 814 367 814 442 q 813 328 814 347 q 808 296 811 310 l 269 296 q 323 184 275 222 q 432 146 371 146 q 526 169 481 146 q 586 233 571 193 l 775 181 q 642 40 732 94 q 425 -14 551 -14 m 579 433 q 529 543 572 503 q 422 583 486 583 q 315 542 357 583 q 265 433 272 501 l 579 433 m 511 817 q 455 826 479 817 q 410 849 431 836 q 369 871 389 861 q 326 881 350 881 q 290 871 303 881 q 271 849 278 861 q 263 826 264 836 q 261 814 261 815 l 142 814 q 151 862 142 829 q 181 928 160 894 q 235 986 201 961 q 318 1011 269 1011 q 375 1001 351 1011 q 419 978 399 990 q 458 955 439 965 q 503 944 478 944 q 541 955 526 944 q 563 978 556 965 q 573 1001 571 990 q 575 1014 575 1013 l 694 1014 q 685 971 694 1003 q 653 904 675 939 q 597 843 632 869 q 511 817 563 817 z "},"Ị":{"ha":417,"x_min":94,"x_max":322,"o":"m 94 0 l 94 986 l 322 986 l 322 0 l 94 0 m 106 -283 l 106 -93 l 306 -93 l 306 -283 l 106 -283 z "},"ị":{"ha":375,"x_min":76,"x_max":299,"o":"m 76 0 l 76 729 l 299 729 l 299 0 l 76 0 m 76 813 l 76 1014 l 299 1014 l 299 813 l 76 813 m 85 -283 l 85 -93 l 285 -93 l 285 -283 l 85 -283 z "},"Ọ":{"ha":1056,"x_min":38,"x_max":1018,"o":"m 425 -283 l 425 -93 l 625 -93 l 625 -283 l 425 -283 m 526 -8 q 326 35 417 -8 q 172 148 236 78 q 73 308 108 218 q 38 494 38 399 q 74 682 38 592 q 177 841 111 772 q 333 951 243 910 q 531 992 424 992 q 731 949 640 992 q 885 835 821 906 q 983 674 949 764 q 1018 490 1018 583 q 981 303 1018 393 q 879 144 944 213 q 724 33 814 75 q 526 -8 633 -8 m 269 492 q 286 381 269 435 q 335 286 303 328 q 417 219 368 244 q 528 194 465 194 q 642 221 593 194 q 722 290 690 247 q 770 385 754 332 q 786 494 786 439 q 769 605 786 551 q 719 699 753 658 q 638 765 686 740 q 528 789 590 789 q 415 763 463 789 q 334 696 367 738 q 285 601 301 654 q 269 492 269 547 z "},"ọ":{"ha":847,"x_min":33,"x_max":814,"o":"m 324 -283 l 324 -93 l 524 -93 l 524 -283 l 324 -283 m 424 -14 q 258 17 331 -14 q 135 99 185 47 q 59 220 85 151 q 33 364 33 289 q 59 508 33 439 q 135 628 85 576 q 258 712 185 681 q 424 743 331 743 q 589 712 517 743 q 711 628 661 681 q 788 508 761 576 q 814 364 814 439 q 788 220 814 289 q 713 99 763 151 q 590 17 663 47 q 424 -14 517 -14 m 261 364 q 307 226 261 278 q 424 174 353 174 q 488 188 458 174 q 538 226 517 201 q 572 287 560 251 q 585 364 585 322 q 539 502 585 450 q 424 554 493 554 q 359 540 389 554 q 308 501 329 526 q 274 441 286 476 q 261 364 261 406 z "},"Ụ":{"ha":1038,"x_min":81,"x_max":956,"o":"m 518 194 q 617 219 576 194 q 682 283 657 243 q 717 376 707 324 q 728 482 728 428 l 728 986 l 956 986 l 956 482 q 930 290 956 379 q 851 135 904 201 q 715 30 797 68 q 518 -8 632 -8 q 317 32 400 -8 q 181 140 233 72 q 105 296 129 207 q 81 482 81 385 l 81 986 l 308 986 l 308 482 q 319 374 308 425 q 356 282 331 322 q 420 218 381 242 q 518 194 460 194 m 415 -283 l 415 -93 l 615 -93 l 615 -283 l 415 -283 z "},"ụ":{"ha":871,"x_min":69,"x_max":822,"o":"m 297 -14 q 127 56 185 -14 q 69 263 69 126 l 69 729 l 292 729 l 292 311 q 318 209 292 244 q 393 174 344 174 q 479 197 438 174 q 553 279 521 221 l 553 729 l 775 729 l 775 250 q 785 203 775 217 q 822 188 796 190 l 822 0 q 768 -9 790 -7 q 728 -11 746 -11 q 592 82 608 -11 l 588 126 q 463 20 538 54 q 297 -14 389 -14 m 319 -283 l 319 -93 l 519 -93 l 519 -283 l 319 -283 z "},"Ỳ":{"ha":921,"x_min":0,"x_max":924,"o":"m 247 986 l 460 533 l 675 986 l 924 986 l 572 336 l 572 0 l 346 0 l 346 339 l 0 986 l 247 986 m 263 1272 l 464 1272 l 536 1092 l 396 1053 l 263 1272 z "},"ỳ":{"ha":767,"x_min":3,"x_max":756,"o":"m 82 -110 q 134 -124 110 -119 q 178 -128 158 -128 q 240 -100 218 -128 q 281 0 263 -72 l 3 729 l 232 729 l 401 190 l 547 729 l 756 729 l 478 -118 q 374 -265 449 -208 q 196 -321 299 -321 q 140 -316 168 -321 q 82 -300 111 -311 l 82 -110 m 206 1015 l 407 1015 l 479 835 l 339 796 l 206 1015 z "},"Ỹ":{"ha":921,"x_min":0,"x_max":924,"o":"m 247 986 l 460 533 l 675 986 l 924 986 l 572 336 l 572 0 l 346 0 l 346 339 l 0 986 l 247 986 m 547 1074 q 491 1083 515 1074 q 446 1106 467 1093 q 406 1128 425 1118 q 363 1138 386 1138 q 326 1128 339 1138 q 307 1106 314 1118 q 299 1083 300 1093 q 297 1071 297 1072 l 178 1071 q 187 1119 178 1086 q 217 1185 196 1151 q 272 1243 238 1218 q 354 1268 306 1268 q 411 1258 388 1268 q 455 1235 435 1247 q 494 1212 475 1222 q 539 1201 514 1201 q 577 1212 563 1201 q 599 1235 592 1222 q 609 1258 607 1247 q 611 1271 611 1269 l 731 1271 q 721 1228 731 1260 q 690 1161 711 1196 q 633 1100 668 1126 q 547 1074 599 1074 z "},"ỹ":{"ha":767,"x_min":3,"x_max":756,"o":"m 82 -110 q 134 -124 110 -119 q 178 -128 158 -128 q 240 -100 218 -128 q 281 0 263 -72 l 3 729 l 232 729 l 401 190 l 547 729 l 756 729 l 478 -118 q 374 -265 449 -208 q 196 -321 299 -321 q 140 -316 168 -321 q 82 -300 111 -311 l 82 -110 m 490 817 q 434 826 458 817 q 389 849 410 836 q 349 871 368 861 q 306 881 329 881 q 269 871 282 881 q 250 849 257 861 q 242 826 243 836 q 240 814 240 815 l 121 814 q 130 862 121 829 q 160 928 139 894 q 215 986 181 961 q 297 1011 249 1011 q 354 1001 331 1011 q 398 978 378 990 q 438 955 418 965 q 482 944 457 944 q 520 955 506 944 q 542 978 535 965 q 552 1001 550 990 q 554 1014 554 1013 l 674 1014 q 664 971 674 1003 q 633 904 654 939 q 576 843 611 869 q 490 817 542 817 z "}," ":{"ha":849,"x_min":0,"x_max":0,"o":""}," ":{"ha":1297,"x_min":0,"x_max":0,"o":""},"–":{"ha":854,"x_min":75,"x_max":779,"o":"m 75 282 l 75 482 l 779 482 l 779 282 l 75 282 z "},"—":{"ha":1301,"x_min":75,"x_max":1226,"o":"m 75 282 l 75 482 l 1226 482 l 1226 282 l 75 282 z "},"‘":{"ha":372,"x_min":74,"x_max":300,"o":"m 271 1014 l 238 839 l 300 839 l 300 635 l 74 635 l 74 843 l 126 1014 l 271 1014 z "},"’":{"ha":358,"x_min":68,"x_max":294,"o":"m 97 649 l 131 824 l 68 824 l 68 1028 l 294 1028 l 294 819 l 242 649 l 97 649 z "},"‚":{"ha":378,"x_min":75,"x_max":303,"o":"m 104 -194 l 139 0 l 75 0 l 75 226 l 303 226 l 303 -6 l 249 -194 l 104 -194 z "},"“":{"ha":672,"x_min":74,"x_max":600,"o":"m 271 1014 l 238 839 l 300 839 l 300 635 l 74 635 l 74 843 l 126 1014 l 271 1014 m 571 1014 l 538 839 l 600 839 l 600 635 l 374 635 l 374 843 l 426 1014 l 571 1014 z "},"”":{"ha":658,"x_min":68,"x_max":594,"o":"m 97 649 l 131 824 l 68 824 l 68 1028 l 294 1028 l 294 819 l 242 649 l 97 649 m 397 649 l 431 824 l 368 824 l 368 1028 l 594 1028 l 594 819 l 542 649 l 397 649 z "},"„":{"ha":667,"x_min":75,"x_max":590,"o":"m 104 -194 l 139 0 l 75 0 l 75 226 l 303 226 l 303 -6 l 249 -194 l 104 -194 m 393 -194 l 428 0 l 364 0 l 364 226 l 590 226 l 590 -6 l 538 -194 l 393 -194 z "},"†":{"ha":671,"x_min":47,"x_max":624,"o":"m 231 -181 l 231 276 l 47 276 l 47 476 l 231 476 l 231 1076 l 442 1076 l 442 476 l 624 476 l 624 276 l 442 276 l 442 -181 l 231 -181 z "},"‡":{"ha":699,"x_min":61,"x_max":638,"o":"m 244 -181 l 244 110 l 61 110 l 61 310 l 244 310 l 244 465 l 61 465 l 61 665 l 244 665 l 244 1076 l 456 1076 l 456 665 l 638 665 l 638 465 l 456 465 l 456 310 l 638 310 l 638 110 l 456 110 l 456 -181 l 244 -181 z "},"•":{"ha":510,"x_min":101,"x_max":407,"o":"m 407 488 q 395 428 407 456 q 363 379 383 400 q 314 347 342 358 q 254 335 286 335 q 194 347 222 335 q 146 379 167 358 q 113 428 125 400 q 101 488 101 456 q 113 546 101 518 q 146 594 125 574 q 194 628 167 615 q 254 640 222 640 q 314 628 286 640 q 363 594 342 615 q 395 546 383 574 q 407 488 407 518 z "},"…":{"ha":914,"x_min":75,"x_max":838,"o":"m 75 0 l 75 226 l 257 226 l 257 0 l 75 0 m 367 0 l 367 226 l 547 226 l 547 0 l 367 0 m 657 0 l 657 226 l 838 226 l 838 0 l 657 0 z "},"‰":{"ha":1681,"x_min":53,"x_max":1638,"o":"m 290 571 q 197 588 240 571 q 122 633 154 604 q 71 702 89 663 q 53 786 53 742 q 71 869 53 831 q 122 938 89 908 q 197 983 154 967 q 290 1000 240 1000 q 383 983 340 1000 q 459 938 426 967 q 510 869 492 908 q 528 786 528 831 q 510 702 528 742 q 459 633 492 663 q 383 588 426 604 q 290 571 340 571 m 290 679 q 349 710 325 679 q 374 786 374 742 q 349 861 374 831 q 290 892 324 892 q 231 860 256 892 q 207 786 207 829 q 232 710 207 742 q 290 679 257 679 m 854 -14 q 761 3 804 -14 q 685 49 718 19 q 635 117 653 78 q 617 200 617 156 q 635 284 617 244 q 685 353 653 324 q 761 399 718 382 q 854 415 804 415 q 947 399 904 415 q 1023 353 990 382 q 1074 284 1056 324 q 1092 200 1092 244 q 1074 117 1092 156 q 1023 49 1056 78 q 947 3 990 19 q 854 -14 904 -14 m 854 94 q 913 126 889 94 q 938 200 938 157 q 913 276 938 244 q 854 307 889 307 q 795 276 819 307 q 771 200 771 244 q 795 125 771 156 q 854 94 819 94 m 1400 -14 q 1307 3 1350 -14 q 1231 49 1264 19 q 1181 117 1199 78 q 1163 200 1163 156 q 1181 284 1163 244 q 1231 353 1199 324 q 1307 399 1264 382 q 1400 415 1350 415 q 1493 399 1450 415 q 1569 353 1536 382 q 1619 284 1601 324 q 1638 200 1638 244 q 1619 117 1638 156 q 1569 49 1601 78 q 1493 3 1536 19 q 1400 -14 1450 -14 m 1400 94 q 1459 126 1435 94 q 1483 200 1483 157 q 1458 276 1483 244 q 1400 307 1433 307 q 1340 276 1365 307 q 1315 200 1315 244 q 1340 125 1315 156 q 1400 94 1365 94 m 149 78 l 540 528 l 896 999 l 996 910 l 617 471 l 247 -12 l 149 78 z "},"‹":{"ha":500,"x_min":46,"x_max":421,"o":"m 46 407 l 421 675 l 421 496 l 221 360 l 421 233 l 421 54 l 46 301 l 46 407 z "},"›":{"ha":500,"x_min":79,"x_max":454,"o":"m 454 301 l 79 54 l 79 233 l 279 360 l 79 496 l 79 675 l 454 407 l 454 301 z "},"⁰":{"ha":692,"x_min":40,"x_max":651,"o":"m 347 529 q 213 558 271 529 q 117 630 156 586 q 60 728 79 674 q 40 832 40 782 q 62 940 40 886 q 123 1038 83 994 q 219 1108 163 1081 q 347 1135 276 1135 q 479 1106 422 1135 q 574 1032 536 1076 q 632 934 613 988 q 651 832 651 881 q 631 724 651 778 q 570 626 610 669 q 474 556 531 583 q 347 529 418 529 m 174 832 q 184 771 174 801 q 216 715 194 740 q 270 674 238 690 q 347 658 303 658 q 424 675 392 658 q 478 718 457 692 q 509 774 499 744 q 519 832 519 804 q 508 893 519 863 q 476 949 497 924 q 422 990 454 974 q 347 1006 389 1006 q 269 989 301 1006 q 215 947 236 972 q 183 890 193 921 q 174 832 174 860 z "},"⁴":{"ha":583,"x_min":28,"x_max":546,"o":"m 331 539 l 331 661 l 28 661 l 28 788 l 371 1136 l 460 1136 l 460 788 l 546 788 l 546 661 l 460 661 l 460 539 l 331 539 m 150 788 l 336 788 l 336 981 l 150 788 z "},"⁵":{"ha":560,"x_min":32,"x_max":524,"o":"m 290 928 q 383 913 340 928 q 456 873 425 899 q 506 812 488 847 q 524 735 524 776 q 504 651 524 689 q 450 587 485 614 q 367 544 415 560 q 261 529 318 529 q 125 556 186 529 q 32 628 64 582 l 107 715 q 176 671 135 688 q 269 654 218 654 q 356 675 321 654 q 392 740 392 696 q 381 781 392 764 q 355 810 371 799 q 319 826 339 821 q 282 831 300 831 q 213 814 247 831 q 163 769 178 797 l 49 769 q 68 860 57 813 q 91 955 79 907 q 113 1049 103 1003 q 131 1136 124 1096 l 478 1136 l 478 1007 l 225 1007 l 196 908 q 232 922 208 915 q 290 928 256 928 z "},"⁶":{"ha":600,"x_min":44,"x_max":563,"o":"m 563 733 q 542 651 563 689 q 488 585 522 613 q 406 540 453 557 q 303 524 358 524 q 113 599 182 524 q 44 811 44 674 q 118 1050 44 965 q 321 1135 192 1135 q 441 1113 385 1135 q 535 1049 497 1092 l 460 958 q 399 997 438 983 q 315 1011 360 1011 q 206 979 247 1011 q 164 888 165 947 q 228 920 186 910 q 310 931 269 931 q 412 915 365 931 q 492 874 458 900 q 544 811 525 847 q 563 733 563 775 m 306 643 q 357 650 332 643 q 400 669 382 657 q 429 698 418 682 q 440 732 440 714 q 401 793 440 768 q 306 818 361 818 q 208 794 247 818 q 169 733 169 769 q 181 699 169 715 q 210 669 192 682 q 253 650 229 657 q 306 643 278 643 z "},"⁷":{"ha":558,"x_min":33,"x_max":561,"o":"m 358 1007 l 33 1007 l 33 1136 l 561 1136 l 210 539 l 64 539 l 358 1007 z "},"⁸":{"ha":596,"x_min":42,"x_max":554,"o":"m 554 715 q 533 641 554 675 q 478 582 513 607 q 396 543 443 557 q 297 529 349 529 q 198 544 244 529 q 117 583 151 558 q 62 643 82 608 q 42 718 42 678 q 76 804 42 772 q 156 857 110 836 q 92 899 119 872 q 64 969 64 926 q 85 1036 64 1006 q 139 1088 106 1067 q 214 1122 172 1110 q 297 1135 256 1135 q 381 1123 339 1135 q 456 1090 422 1111 q 511 1038 490 1068 q 532 971 532 1007 q 506 901 532 931 q 440 857 479 872 q 522 801 489 835 q 554 715 554 767 m 424 729 q 413 758 424 746 q 384 780 401 771 q 344 794 367 789 q 297 799 321 799 q 210 780 247 799 q 172 729 172 761 q 183 700 172 713 q 213 678 194 688 q 253 663 231 668 q 299 658 275 658 q 345 663 322 658 q 385 678 368 668 q 413 701 403 688 q 424 729 424 714 m 193 957 q 226 918 193 932 q 297 904 260 904 q 369 918 335 904 q 403 957 403 932 q 371 996 403 982 q 297 1010 339 1010 q 224 995 256 1010 q 193 957 193 981 z "},"⁹":{"ha":600,"x_min":38,"x_max":556,"o":"m 38 925 q 57 1008 38 969 q 111 1074 76 1046 q 193 1119 146 1103 q 296 1135 240 1135 q 486 1060 417 1135 q 556 847 556 985 q 482 608 556 693 q 279 524 408 524 q 158 546 214 524 q 64 611 103 568 l 139 701 q 201 660 163 675 q 285 646 240 646 q 392 679 351 646 q 436 771 433 713 q 372 739 414 750 q 289 728 329 728 q 188 743 233 728 q 108 785 142 758 q 56 847 75 811 q 38 925 38 883 m 294 1015 q 242 1008 267 1015 q 200 989 218 1001 q 172 960 182 976 q 161 925 161 943 q 201 865 161 890 q 296 840 240 840 q 390 865 351 840 q 429 925 429 890 q 419 960 429 943 q 390 989 408 976 q 347 1008 371 1001 q 294 1015 322 1015 z "},"₀":{"ha":692,"x_min":40,"x_max":651,"o":"m 347 -129 q 213 -101 271 -129 q 117 -28 156 -72 q 60 69 79 15 q 40 174 40 124 q 62 282 40 228 q 123 379 83 336 q 219 449 163 422 q 347 476 276 476 q 479 447 422 476 q 574 374 536 418 q 632 276 613 329 q 651 174 651 222 q 631 65 651 119 q 570 -32 610 11 q 474 -102 531 -75 q 347 -129 418 -129 m 174 174 q 184 113 174 143 q 216 57 194 82 q 270 16 238 32 q 347 0 303 0 q 424 17 392 0 q 478 60 457 33 q 509 116 499 86 q 519 174 519 146 q 508 235 519 204 q 476 290 497 265 q 422 331 454 315 q 347 347 389 347 q 269 331 301 347 q 215 288 236 314 q 183 232 193 263 q 174 174 174 201 z "}}}
